<?xml version="1.0" encoding="UTF-8"?>
<svg viewBox="0 0 356 248" version="1.1" xmlns="http://www.w3.org/2000/svg" xmlns:xlink="http://www.w3.org/1999/xlink">
    <g fill="#70d6ff" fill-rule="evenodd">
        <path d="M48.287,2.122 C47.982,3.288 47.335,4.243 46.849,4.243 C46.364,4.243 45.966,5.068 45.966,6.076 C45.966,7.085 45.404,7.945 44.716,7.988 C37.381,8.445 33.966,10.149 33.966,13.351 C33.966,15.013 33.331,15.161 28.074,14.721 C24.833,14.449 21.128,14.617 19.84,15.094 L17.499,15.96 L19.938,16.734 C21.501,17.23 22.513,17.101 22.755,16.376 C23.298,14.748 25.504,14.981 27.038,16.829 C27.869,17.831 29.295,18.231 30.91,17.916 C32.835,17.54 33.937,18.049 35.374,19.978 L37.283,22.539 L34.374,21.931 C32.775,21.596 32.029,21.567 32.716,21.866 C34.201,22.512 34.403,25.243 32.966,25.243 C30.91,25.243 32.061,27.229 34.466,27.832 C35.841,28.177 36.966,28.861 36.966,29.351 C36.966,30.472 36.681,30.465 33.531,29.268 C32.12,28.731 30.966,27.531 30.966,26.601 C30.966,25.671 30.634,25.241 30.229,25.647 C29.823,26.052 29.486,27.14 29.479,28.064 C29.469,29.399 28.596,29.706 25.216,29.564 C22.218,29.437 20.966,29.784 20.966,30.741 C20.966,32.405 26.421,35.243 29.62,35.243 C32.155,35.243 32.732,36.645 30.716,37.909 C28.85,39.079 24.706,39.473 25.357,38.419 C25.668,37.915 23.683,37.453 20.945,37.391 C18.09,37.327 15.966,37.723 15.966,38.32 C15.966,38.893 15.486,39.064 14.899,38.702 C14.313,38.339 13.151,38.875 12.318,39.893 C10.988,41.517 10.869,41.532 11.343,40.019 C11.659,39.01 11.195,37.911 10.222,37.366 C8.758,36.547 8.733,36.228 10.013,34.677 C11.284,33.138 11.284,32.978 10.012,33.398 C9.212,33.663 8.187,35.311 7.733,37.061 C7.28,38.811 6.472,40.299 5.937,40.368 C5.403,40.437 4.516,40.605 3.966,40.743 C3.416,40.881 2.655,41.049 2.275,41.118 C1.895,41.187 2.457,41.904 3.525,42.711 C4.736,43.627 4.971,44.191 4.149,44.211 C3.258,44.233 3.053,44.941 3.514,46.395 C4.751,50.292 4.129,55.892 2.048,59.597 L0,63.243 L3.424,63.243 C5.307,63.243 7.114,63.673 7.439,64.199 C7.764,64.725 8.743,64.882 9.613,64.548 C10.854,64.072 11.052,64.396 10.53,66.041 C9.728,68.568 12.949,72.243 15.966,72.243 C17.066,72.243 17.966,72.725 17.966,73.315 C17.966,73.904 18.979,74.287 20.216,74.166 C21.453,74.045 23.232,74.277 24.168,74.683 C25.104,75.088 26.347,75.125 26.931,74.765 C28.409,73.851 35.966,77.339 35.966,78.935 C35.966,79.655 35.357,80.243 34.612,80.243 C33.867,80.243 32.067,81.346 30.612,82.695 C28.079,85.043 27.774,85.09 23.466,83.793 C20.991,83.048 18.966,82.795 18.966,83.231 C18.966,83.667 17.504,84.23 15.716,84.481 C13.928,84.733 11.566,85.266 10.466,85.666 C8.683,86.315 8.656,86.272 10.216,85.269 C12.876,83.559 12.314,82.243 8.922,82.243 C7.067,82.243 5.942,82.731 6.041,83.493 C6.406,86.305 5.895,87.43 4.498,86.894 C3.691,86.584 2.794,86.712 2.506,87.178 C1.632,88.592 8.763,88.925 11.195,87.583 C12.444,86.894 14.254,86.566 15.216,86.854 C16.178,87.142 16.966,86.897 16.966,86.31 C16.966,85.723 17.416,85.243 17.966,85.243 C20.376,85.243 18.751,89.933 15.367,92.749 C13.387,94.396 11.154,96.926 10.404,98.371 C8.739,101.581 7.71,120.895 9.068,123.435 C9.767,124.739 9.678,125.262 8.751,125.311 C8.044,125.348 8.507,125.879 9.779,126.492 C11.528,127.334 11.952,128.163 11.517,129.897 C11.117,131.49 11.327,132.048 12.204,131.727 C15.325,130.582 18.394,136.048 16.827,139.96 C16.213,141.491 15.612,144.318 15.491,146.243 C15.369,148.168 14.964,150.7 14.59,151.869 C14.072,153.489 14.393,154.121 15.938,154.525 C17.305,154.883 17.966,154.57 17.966,153.566 C17.966,151.999 20.403,152.245 20.552,153.826 C20.77,156.133 22.251,158.071 23.448,157.612 C24.171,157.334 25.023,157.527 25.341,158.041 C26.04,159.172 30.966,158.372 30.966,157.126 C30.966,156.641 31.866,156.243 32.966,156.243 C35.437,156.243 35.635,159.094 33.216,159.859 C24.634,162.573 21.142,165.352 18.619,171.479 C17.291,174.702 17.274,175.408 18.497,176.631 C19.693,177.828 19.699,178.131 18.536,178.578 C17.778,178.869 16.412,182.4 15.501,186.425 C14.591,190.45 13.187,194.755 12.383,195.993 C11.063,198.022 11.089,198.243 12.645,198.243 C13.594,198.243 15.882,199.706 17.73,201.493 C19.676,203.376 20.808,204.007 20.42,202.993 C19.291,200.035 22.678,200.935 25.124,204.243 C26.447,206.032 28.251,207.243 29.595,207.243 C30.834,207.243 32.126,207.693 32.466,208.243 C32.806,208.793 34.632,209.243 36.525,209.243 C39.019,209.243 39.966,209.685 39.966,210.85 C39.966,212.006 40.457,212.242 41.716,211.689 C42.678,211.267 44.591,210.928 45.966,210.935 C52.982,210.975 54.165,211.288 54.676,213.243 C55.21,215.286 56.966,216.052 56.966,214.243 C56.966,213.693 57.641,213.243 58.466,213.243 C59.291,213.243 59.966,213.709 59.966,214.278 C59.966,214.992 60.567,214.992 61.9,214.278 C62.964,213.709 65.244,213.243 66.966,213.243 C68.688,213.243 70.968,213.709 72.032,214.278 C73.745,215.195 73.966,214.969 73.966,212.3 C73.966,209.446 74.099,209.346 76.472,210.428 C77.851,211.056 78.863,212.272 78.722,213.13 C78.519,214.37 79.29,214.625 82.466,214.37 C87.215,213.989 88.265,213.465 87.625,211.798 C87.297,210.942 87.932,210.705 89.666,211.036 C91.876,211.459 92.06,211.287 91.175,209.63 C90.285,207.965 90.575,207.713 93.635,207.488 C96.7,207.263 97.03,207.467 96.468,209.238 C95.979,210.777 96.285,211.243 97.782,211.243 C99.926,211.243 101.151,214.161 99.925,216.351 C98.745,218.46 104.025,218.184 106.405,216.013 C108.775,213.849 110.966,213.72 110.966,215.743 C110.966,217.338 114.48,217.839 115.386,216.372 C116.173,215.099 122.236,214.069 122.9,215.096 C123.848,216.565 127.966,217.504 127.966,216.251 C127.966,215.632 127.567,215.372 127.079,215.673 C126.592,215.974 125.67,215.591 125.031,214.821 C123.127,212.527 125.372,212.204 128.787,214.28 C130.584,215.373 131.966,215.737 131.966,215.117 C131.966,214.404 133.198,214.252 135.488,214.681 C140.703,215.66 143.044,212.798 143.001,205.493 C142.994,204.255 143.433,203.243 143.977,203.243 C144.521,203.243 144.966,203.641 144.966,204.126 C144.966,204.612 145.924,205.26 147.096,205.567 C148.569,205.952 149.032,206.629 148.597,207.763 C148.082,209.104 148.467,209.303 150.717,208.856 C160.583,206.9 161.179,206.9 160.802,208.856 C160.576,210.027 159.324,210.921 157.454,211.245 C153.217,211.979 153.659,214.477 158.216,215.555 C160.279,216.043 161.966,216.816 161.966,217.274 C161.966,217.732 164.216,217.902 166.966,217.652 C169.716,217.402 171.966,217.616 171.966,218.128 C171.966,218.64 174.216,219.635 176.966,220.34 C179.716,221.044 181.966,221.874 181.966,222.182 C181.966,222.491 184.169,222.743 186.861,222.743 C189.924,222.743 192.45,223.345 193.611,224.352 C195.835,226.281 200.914,227.791 199.11,225.987 C197.531,224.408 197.675,222.243 199.359,222.243 C200.67,222.243 202.177,224.572 201.689,225.845 C201.322,226.8 206.935,229.38 207.978,228.735 C208.535,228.391 208.669,228.853 208.295,229.828 C207.328,232.347 210.244,231.105 211.425,228.494 C212.251,226.668 214.157,225.279 218.466,223.362 C219.016,223.118 218.935,223.561 218.287,224.347 C216.47,226.551 220.677,230.264 223.716,229.14 C224.954,228.682 225.966,227.843 225.966,227.275 C225.966,225.558 227.404,226.113 228.818,228.377 C229.929,230.157 229.928,230.652 228.808,231.362 C227.752,232.031 227.812,232.216 229.093,232.228 C230.439,232.24 230.631,233.064 230.202,236.993 C229.692,241.658 229.718,241.712 231.653,239.993 C232.737,239.031 234.601,238.243 235.795,238.243 C237.095,238.243 237.966,237.617 237.966,236.684 C237.966,235.76 238.436,235.416 239.121,235.838 C239.836,236.281 240.004,236.113 239.561,235.398 C239.169,234.763 238.2,234.243 237.407,234.243 C236.614,234.243 235.966,233.793 235.966,233.243 C235.966,231.961 237.583,231.968 239.997,233.26 C241.592,234.113 242.159,233.77 243.532,231.116 C244.431,229.378 245.166,226.445 245.166,224.599 C245.166,222.753 245.646,221.243 246.233,221.243 C246.819,221.243 247.003,220.947 246.641,220.585 C246.279,220.223 246.394,219.432 246.897,218.826 C247.731,217.821 250.966,205.384 250.966,203.181 C250.966,202.665 250.291,202.243 249.466,202.243 C245.16,202.243 250.216,198.061 256.599,196.342 C258.773,195.756 261.526,194.37 262.717,193.26 C265.295,190.859 266.112,190.698 265.326,192.746 C264.913,193.822 265.628,194.425 267.841,194.868 C269.542,195.208 270.678,195.9 270.366,196.405 C269.494,197.815 275.036,196.245 278.701,194.042 C280.654,192.869 282.735,192.352 283.952,192.739 C285.774,193.317 285.872,193.125 284.967,190.746 C284.416,189.298 283.977,187.355 283.991,186.428 C284.025,184.102 290.182,181.25 295.257,181.21 L299.466,181.176 L297.266,179.34 L295.066,177.504 L297.266,176.35 C299.108,175.384 298.611,175.274 294.216,175.673 C290.027,176.053 288.966,175.849 288.966,174.665 C288.966,173.848 289.6,172.937 290.376,172.639 C291.151,172.342 292.06,171.006 292.395,169.671 C292.73,168.335 293.615,167.243 294.361,167.243 C295.107,167.243 298.255,166.12 301.358,164.748 C304.46,163.376 307.329,162.305 307.732,162.367 C309.593,162.653 310.866,162.065 313.334,159.778 C316.169,157.151 323.256,154.757 325.571,155.645 C326.474,155.992 327.479,154.952 328.422,152.693 C329.224,150.776 329.786,149.07 329.673,148.903 C329.214,148.23 332.729,145.435 334.454,145.101 C335.469,144.904 336.51,144.112 336.767,143.341 C337.241,141.919 335.846,142.042 331.552,143.799 C330.271,144.324 329.86,144.224 330.308,143.498 C330.677,142.902 330.413,142.209 329.722,141.96 C328.992,141.695 329.617,140.964 331.216,140.214 C332.729,139.503 333.966,138.319 333.966,137.582 C333.966,136.846 334.858,136.243 335.948,136.243 C337.646,136.243 337.43,135.728 334.448,132.657 C332.533,130.685 330.966,128.664 330.966,128.165 C330.966,127.667 329.147,127.987 326.925,128.876 C324.702,129.766 322.602,130.212 322.258,129.868 C321.914,129.524 322.32,129.243 323.159,129.243 C323.999,129.243 325.508,128.149 326.512,126.811 C327.517,125.473 330.054,123.605 332.15,122.66 C335.353,121.216 335.763,120.703 334.721,119.448 C333.662,118.172 333.826,118.064 335.849,118.706 C337.589,119.258 338.017,119.134 337.463,118.238 C337.049,117.568 337.228,116.699 337.862,116.308 C338.658,115.815 338.39,115.032 336.99,113.764 C335.012,111.974 334.965,111.987 334.933,114.338 L334.899,116.743 L332.86,114.292 L330.82,111.841 L332.893,111.074 C334.033,110.653 334.966,109.816 334.966,109.216 C334.966,108.616 335.428,108.41 335.992,108.759 C336.556,109.108 337.517,107.96 338.128,106.209 C339.142,103.298 339.526,103.072 342.602,103.571 C346.309,104.173 346.84,103.602 344.301,101.746 C343.21,100.948 341.461,100.793 339.228,101.297 C336.499,101.912 335.928,101.784 336.362,100.654 C336.66,99.878 336.467,99.243 335.935,99.243 C335.402,99.243 334.966,98.745 334.966,98.136 C334.966,97.527 335.641,97.288 336.466,97.605 C338.353,98.329 338.341,98.097 336.267,93.748 C335.025,91.144 334.016,90.26 332.517,90.464 C331.024,90.667 330.376,90.106 330.134,88.4 C329.861,86.467 330.146,86.165 331.766,86.679 C334.937,87.686 335.441,84.404 332.473,82.07 C331.094,80.985 329.966,79.681 329.966,79.17 C329.966,77.652 332.704,78.119 333.328,79.743 C334.334,82.366 335.685,81.365 336.306,77.534 C336.69,75.172 336.482,73.562 335.733,73.099 C334.848,72.552 334.896,71.743 335.927,69.817 C337.65,66.597 335.999,62.243 333.054,62.243 C330.54,62.243 329.941,58.162 331.681,52.886 C332.949,49.042 332.945,49.032 330.459,49.655 C328.693,50.099 327.966,49.874 327.966,48.884 C327.966,48.116 327.25,46.894 326.376,46.168 C324.932,44.97 324.955,44.718 326.626,43.434 C328.287,42.157 328.118,42.08 324.894,42.643 C320.694,43.376 319.289,42.479 321.732,40.624 C322.697,39.891 322.938,39.292 322.275,39.275 C321.62,39.257 320.806,39.693 320.466,40.243 C319.661,41.545 314.966,41.545 314.966,40.243 C314.966,39.693 314.275,39.243 313.431,39.243 C312.586,39.243 310.674,38.519 309.181,37.634 L306.466,36.026 L308.716,38.045 C311.513,40.555 311.528,41.437 308.809,43.838 C306.677,45.721 306.658,45.718 307.176,43.645 C307.608,41.914 307.285,41.593 305.333,41.807 C303.72,41.984 302.966,41.556 302.966,40.464 C302.966,39.005 302.853,39.003 301.716,40.44 C299.648,43.054 293.672,43.59 291.135,41.389 C288.151,38.802 288.367,38.362 292.98,37.625 C295.921,37.155 296.923,36.55 296.73,35.363 C296.525,34.103 297.198,33.801 299.763,34.003 C303.807,34.322 307.318,32.603 306.575,30.666 C306.275,29.883 306.427,29.243 306.914,29.243 C307.401,29.243 307.953,29.704 308.14,30.266 C308.328,30.829 309.214,30.434 310.109,29.389 C311.912,27.283 311.551,26.35 308.205,24.477 C306.316,23.42 305.492,23.485 303.205,24.87 C300.568,26.466 300.578,26.43 303.466,23.909 C305.953,21.738 306.214,21.124 304.994,20.32 C303.73,19.487 303.765,19.257 305.244,18.69 C306.191,18.326 306.966,17.611 306.966,17.101 C306.966,16.567 306.145,16.612 305.032,17.208 C303.968,17.777 301.969,18.243 300.591,18.243 C299.212,18.243 297.806,18.693 297.466,19.243 C297.126,19.793 297.276,20.243 297.8,20.243 C298.324,20.243 299.018,20.935 299.342,21.781 C300.112,23.788 297.052,24.989 295.88,23.139 C295.305,22.23 294.991,22.16 294.981,22.936 C294.973,23.593 295.979,24.881 297.216,25.8 L299.466,27.471 L297.003,26.895 C295.486,26.54 293.889,26.908 292.846,27.851 C290.923,29.592 284.344,29.399 284.676,27.612 C285.022,25.754 281.298,23.058 278.877,23.413 C276.252,23.797 275.012,26.243 277.442,26.243 C278.345,26.243 278.806,26.693 278.466,27.243 C278.126,27.793 278.325,28.243 278.907,28.243 C279.489,28.243 279.966,28.973 279.966,29.865 C279.966,31.194 279.695,31.263 278.466,30.243 C277.237,29.223 276.966,29.292 276.966,30.621 C276.966,31.513 276.479,32.243 275.883,32.243 C275.287,32.243 274.985,31.685 275.213,31.002 C275.441,30.319 275.068,29.202 274.385,28.52 C273.703,27.837 273.373,26.403 273.653,25.333 C274.119,23.549 273.654,23.402 268.066,23.565 C264.714,23.663 261.97,24.08 261.969,24.493 C261.967,24.906 260.871,25.243 259.533,25.243 C258.017,25.243 256.872,25.963 256.495,27.153 C256.161,28.203 255.179,29.651 254.313,30.37 C252.979,31.477 252.445,31.318 250.836,29.331 C249.57,27.767 249.255,26.599 249.894,25.83 C251.281,24.159 249.51,21.82 247.454,22.609 C246.061,23.144 245.972,23.545 246.976,24.755 C247.771,25.713 247.829,26.243 247.138,26.243 C246.548,26.243 245.647,25.496 245.136,24.583 C244.306,23.099 244.085,23.151 243.052,25.083 C242.416,26.271 241.188,27.243 240.324,27.243 C239.301,27.243 238.964,27.796 239.359,28.825 C239.693,29.695 239.966,30.595 239.966,30.825 C239.966,31.055 240.641,31.243 241.466,31.243 C242.291,31.243 242.966,31.918 242.966,32.743 C242.966,34.543 240.835,34.712 239.166,33.043 C238.233,32.11 237.69,32.119 236.724,33.085 C235.736,34.073 235.753,34.493 236.808,35.145 C237.857,35.794 237.786,36.098 236.468,36.604 C234.111,37.508 233.972,37.448 233.914,35.493 C233.869,34.01 233.626,34.08 232.321,35.949 C231.122,37.665 230.137,38.027 227.888,37.577 C225.653,37.13 224.836,37.424 224.287,38.871 C223.897,39.901 223.004,41.324 222.302,42.035 C221.261,43.088 220.91,42.867 220.401,40.842 C220.058,39.475 220.042,37.928 220.366,37.405 C221.208,36.042 217.836,34.973 216.599,36.21 C215.276,37.533 213.653,37.558 214.466,36.243 C214.816,35.677 213.987,35.243 212.556,35.243 C210.957,35.243 210.197,35.702 210.487,36.493 C211.198,38.433 209.714,40.017 206.966,40.251 C203.238,40.569 201.551,40.324 202.302,39.574 C203.285,38.591 199.934,35.243 197.966,35.243 C195.582,35.243 192.393,38.855 194.155,39.56 C195.215,39.985 195.209,40.1 194.122,40.164 C193.383,40.207 192.543,39.343 192.256,38.243 C191.968,37.143 191.305,36.243 190.782,36.243 C189.913,36.243 190.593,32.42 191.672,31.245 C191.924,30.97 192.763,31.613 193.537,32.672 C194.312,33.731 195.231,34.312 195.579,33.963 C196.682,32.86 195.036,30.074 192.961,29.531 C191.864,29.244 190.966,28.442 190.966,27.749 C190.966,27.055 190.281,25.919 189.443,25.224 C188.606,24.529 188.158,23.213 188.448,22.299 C188.738,21.386 188.35,19.783 187.586,18.737 C186.359,17.06 185.758,16.971 182.455,17.985 C179.402,18.922 178.448,18.867 177.268,17.688 C175.426,15.846 174.045,15.862 171.96,17.749 C170.514,19.057 169.915,19.071 167.381,17.851 C162.028,15.274 159.966,14.956 159.966,16.711 C159.966,17.995 159.575,18.104 157.998,17.26 C156.915,16.68 154.552,16.305 152.748,16.426 C149.122,16.669 143.686,20.066 144.307,21.701 C144.563,22.375 141.391,22.768 135.334,22.814 C129.584,22.857 125.966,22.49 125.966,21.864 C125.966,21.269 125.465,21.344 124.766,22.043 C123.191,23.618 116.75,23.585 114.964,21.993 C113.85,20.999 113.858,21.131 115.006,22.637 C116.32,24.361 116.271,24.482 114.458,23.98 C113.362,23.677 111.29,23.169 109.852,22.851 C107.691,22.373 107.321,21.835 107.721,19.743 C107.987,18.352 108.601,16.969 109.085,16.669 C110.728,15.654 109.961,13.748 107.44,12.578 C105.16,11.521 104.793,11.678 103.445,14.284 C102.41,16.286 100.935,17.346 98.569,17.79 C94.427,18.567 91.842,17.3 89.96,13.57 C89.175,12.015 88.416,10.566 88.273,10.35 C88.131,10.135 87.374,10.49 86.591,11.139 C85.808,11.789 83.517,12.469 81.499,12.65 C77.363,13.021 74.095,15.243 77.684,15.243 C80.853,15.243 82.966,16.286 82.966,17.85 C82.966,18.616 83.446,19.243 84.032,19.243 C84.619,19.243 84.956,20.464 84.782,21.957 C84.529,24.133 83.771,24.838 80.966,25.509 C73.223,27.36 60.145,26.38 61.581,24.057 C61.904,23.534 62.821,23.357 63.619,23.663 C64.429,23.974 64.8,23.784 64.459,23.232 C64.123,22.688 62.717,22.243 61.336,22.243 C59.954,22.243 58.133,21.553 57.289,20.709 C56.446,19.865 55.015,19.405 54.111,19.686 C53.206,19.967 51.851,19.811 51.099,19.339 C49.965,18.627 49.949,17.822 51.007,14.612 C52.455,10.213 54.459,8.321 57.716,8.275 L59.966,8.243 L57.966,6.243 C56.866,5.143 55.577,4.243 55.101,4.243 C54.625,4.243 53.022,3.288 51.539,2.122 L48.842,0 L48.287,2.122 M52.466,6.243 C52.126,6.793 52.298,7.243 52.848,7.243 C53.398,7.243 54.126,6.793 54.466,6.243 C54.806,5.693 54.634,5.243 54.084,5.243 C53.534,5.243 52.806,5.693 52.466,6.243 M42.966,9.806 C42.966,10.97 45.853,13.235 46.338,12.451 C46.612,12.007 45.966,11.099 44.901,10.435 C43.837,9.77 42.966,9.487 42.966,9.806 M140.466,17.243 C140.923,18.683 140.646,19.243 139.474,19.243 C138.58,19.243 138.14,19.715 138.496,20.292 C138.939,21.008 139.59,20.97 140.555,20.169 C141.331,19.525 141.966,19.364 141.966,19.812 C141.966,20.259 142.603,19.755 143.381,18.69 C144.431,17.254 144.496,16.565 143.631,16.015 C141.357,14.568 139.808,15.17 140.466,17.243 M39.591,16.951 C39.277,17.265 39.26,17.909 39.552,18.382 C40.254,19.518 42.966,19.493 42.966,18.35 C42.966,17.246 40.371,16.171 39.591,16.951 M131.641,16.901 C130.952,17.59 132.726,20.243 133.876,20.243 C134.241,20.243 134.608,19.343 134.691,18.243 C134.836,16.325 133.017,15.525 131.641,16.901 M161.466,18.243 C161.806,18.793 162.282,19.243 162.525,19.243 C162.768,19.243 162.966,18.793 162.966,18.243 C162.966,17.693 162.489,17.243 161.907,17.243 C161.325,17.243 161.126,17.693 161.466,18.243 M154.203,19.405 C153.523,20.086 152.966,21.255 152.966,22.002 C152.966,22.749 152.623,23.149 152.203,22.89 C151.784,22.631 150.389,22.981 149.104,23.669 L146.766,24.92 L150.377,26.634 C153.874,28.293 155.966,28.125 155.966,26.184 C155.966,25.666 154.988,25.243 153.792,25.243 L151.617,25.243 L153.899,22.814 C156.268,20.293 156.557,17.052 154.203,19.405 M63.476,20.259 C63.822,20.818 64.523,21.017 65.035,20.7 C66.422,19.843 66.164,19.243 64.407,19.243 C63.55,19.243 63.131,19.7 63.476,20.259 M178.466,22.243 C178.806,22.793 179.507,23.243 180.025,23.243 C180.543,23.243 180.966,22.793 180.966,22.243 C180.966,21.693 180.264,21.243 179.407,21.243 C178.55,21.243 178.126,21.693 178.466,22.243 M250.966,22.274 C250.966,22.807 251.641,23.243 252.466,23.243 C253.291,23.243 253.966,23.066 253.966,22.85 C253.966,22.634 253.291,22.198 252.466,21.881 C251.641,21.565 250.966,21.742 250.966,22.274 M183.425,25.31 C183.062,25.896 182.971,26.582 183.223,26.833 C183.92,27.531 186.966,26.15 186.966,25.136 C186.966,23.884 184.223,24.019 183.425,25.31 M37.966,26.802 C37.966,27.659 38.423,28.078 38.982,27.733 C39.541,27.387 39.74,26.686 39.423,26.174 C38.566,24.787 37.966,25.045 37.966,26.802 M188.633,26.91 C188.266,27.276 187.966,28.041 187.966,28.61 C187.966,29.236 188.432,29.177 189.149,28.46 C189.8,27.809 190.1,27.044 189.816,26.76 C189.532,26.476 188.999,26.543 188.633,26.91 M253.466,27.243 C253.126,27.793 253.298,28.243 253.848,28.243 C254.398,28.243 255.126,27.793 255.466,27.243 C255.806,26.693 255.634,26.243 255.084,26.243 C254.534,26.243 253.806,26.693 253.466,27.243 M315.466,27.243 C315.126,27.793 315.55,28.243 316.407,28.243 C317.264,28.243 317.966,27.793 317.966,27.243 C317.966,26.693 317.543,26.243 317.025,26.243 C316.507,26.243 315.806,26.693 315.466,27.243 M241.53,28.14 C240.849,29.241 244.782,31.761 245.718,30.824 C246.038,30.504 245.774,30.243 245.133,30.243 C244.491,30.243 244.078,29.737 244.216,29.118 C244.543,27.647 242.332,26.842 241.53,28.14 M326.98,38.726 C325.958,39.957 326.204,40.383 328.422,41.226 C332,42.586 331.966006,42.6 331.966006,39.743 C331.966006,36.869 329.02,36.268 326.98,38.726 M183.966,39.274 C183.966,39.807 184.641,40.243 185.466,40.243 C186.291,40.243 186.966,40.066 186.966,39.85 C186.966,39.634 186.291,39.198 185.466,38.881 C184.641,38.565 183.966,38.742 183.966,39.274 M26.966,41.215 C26.966,42.571 28.743,43.413 29.391,42.364 C29.701,41.863 29.282,41.195 28.46,40.879 C27.638,40.564 26.966,40.715 26.966,41.215 M223.425,43.31 C222.429,44.921 223.759,45.734 227.548,45.828 C229.648,45.88 230.966,45.434 230.966,44.671 C230.966,43.923 230.173,43.638 228.966,43.953 C227.848,44.246 226.966,43.984 226.966,43.36 C226.966,41.937 224.296,41.899 223.425,43.31 M314.401,46.348 C314.097,46.84 314.288,47.243 314.825,47.243 C315.363,47.243 316.456,47.494 317.255,47.8 C318.054,48.107 318.934,47.77 319.209,47.05 C319.783,45.554 315.296,44.899 314.401,46.348 M302.966,47.243 C300.597,48.002 300.637,48.049 303.716,48.143 C305.503,48.198 306.966,47.793 306.966,47.243 C306.966,46.113 306.495,46.113 302.966,47.243 M319.966,48.613 C319.966,50.258 321.761,51.781 322.652,50.891 C322.955,50.587 322.476,49.61 321.585,48.719 C320.187,47.321 319.966,47.307 319.966,48.613 M308.068,49.042 C307.165,49.343 307.16,49.771 308.047,50.84 C309.796,52.948 312.966,52.603 312.966,50.305 C312.966,48.451 311.205,47.997 308.068,49.042 M317.116,51.193 C317.336,51.853 317.842,52.359 318.241,52.318 C319.437,52.194 319.205,50.823 317.916,50.393 C317.256,50.173 316.896,50.533 317.116,51.193 M327.033,53.663 C326.086,54.803 326.199,55.032 327.606,54.825 C328.569,54.684 329.532,54.045 329.745,53.406 C330.287,51.779 328.452,51.953 327.033,53.663 M301.966,63.243 C301.966,63.793 302.416,64.243 302.966,64.243 C303.516,64.243 303.966,63.793 303.966,63.243 C303.966,62.693 303.516,62.243 302.966,62.243 C302.416,62.243 301.966,62.693 301.966,63.243 M299.966,66.243 C299.966,66.793 300.443,67.243 301.025,67.243 C301.607,67.243 301.806,66.793 301.466,66.243 C301.126,65.693 300.65,65.243 300.407,65.243 C300.164,65.243 299.966,65.693 299.966,66.243 M325.564,70.084 C325.098,70.839 330.101,75.243 331.426,75.243 C332.666,75.243 331.832,72.432 330.137,70.898 C328.137,69.088 326.374,68.774 325.564,70.084 M321.829,74.137 C322.579,74.612 322.763,75.168 322.238,75.372 C321.713,75.576 321.017,77.318 320.692,79.243 C320.367,81.168 320.334,82.178 320.619,81.487 C321.354,79.704 323,80.991 322.304,82.805 C321.942,83.749 320.941,84.11 319.598,83.782 C318.425,83.496 318.029,83.52 318.716,83.836 C319.404,84.151 319.966,85.047 319.966,85.826 C319.966,86.605 320.416,87.243 320.966,87.243 C321.516,87.243 321.966,86.737 321.966,86.118 C321.966,85.389 323.078,85.215 325.128,85.625 C328.089,86.218 328.19,86.146 326.716,84.5 C325.851,83.534 325.007,80.943 324.841,78.743 C324.549,74.878 323.559,73.274 321.466,73.274 C320.916,73.274 321.079,73.662 321.829,74.137 M34.125,82.551 C33.126,83.755 33.911,84.235 38.949,85.504 C44.085,86.798 44.966,86.813 44.966,85.607 C44.966,83.007 35.874,80.444 34.125,82.551 M314.966,85.243 C314.966,85.793 315.668,86.243 316.525,86.243 C317.382,86.243 317.806,85.793 317.466,85.243 C317.126,84.693 316.425,84.243 315.907,84.243 C315.389,84.243 314.966,84.693 314.966,85.243 M8.966,91.302 C8.966,91.884 9.416,92.083 9.966,91.743 C10.516,91.403 10.966,90.927 10.966,90.684 C10.966,90.441 10.516,90.243 9.966,90.243 C9.416,90.243 8.966,90.72 8.966,91.302 M331.966,98.743 C331.966,99.568 332.143,100.243 332.359,100.243 C332.575,100.243 333.011,99.568 333.328,98.743 C333.644,97.918 333.467,97.243 332.935,97.243 C332.402,97.243 331.966,97.918 331.966,98.743 M328.603,106.195 C326.977,106.765 326.943,106.979 328.305,108.109 C329.458,109.067 330.349,109.108 331.902,108.277 C333.037,107.67 333.966,107.016 333.966,106.824 C333.966,106.03 330.3,105.6 328.603,106.195 M339.023,107.136 C337.82,109.385 338.532,109.803 340.958,108.269 C342.081,107.559 342.166,107.043 341.3,106.177 C340.435,105.312 339.873,105.549 339.023,107.136 M352.981,110.326 C352.99,111.106 353.441,112.418 353.984,113.243 C354.768,114.433 354.908,114.284 354.661,112.519 C354.304,109.961 352.958,108.204 352.981,110.326 M335.966,110.636 C335.966,110.852 336.664,111.297 337.518,111.625 C338.408,111.966 338.809,111.798 338.459,111.232 C337.872,110.281 335.966,109.826 335.966,110.636 M327.604,116.743 C327.921,117.568 328.582,118.243 329.073,118.243 C329.564,118.243 329.966,117.568 329.966,116.743 C329.966,115.918 329.305,115.243 328.497,115.243 C327.603,115.243 327.254,115.829 327.604,116.743 M340.966,119.743 C340.966,120.568 340.516,121.243 339.966,121.243 C339.416,121.243 338.966,121.631 338.966,122.104 C338.966,122.578 340.091,122.751 341.466,122.488 C344.248,121.956 344.202,122.021 343.359,119.825 C342.589,117.818 340.966,117.763 340.966,119.743 M328.966,120.243 C328.966,120.793 329.416,121.243 329.966,121.243 C330.516,121.243 330.966,120.793 330.966,120.243 C330.966,119.693 330.516,119.243 329.966,119.243 C329.416,119.243 328.966,119.693 328.966,120.243 M322.966,122.512 C320.801,123.409 320.715,123.607 322.322,123.989 C323.343,124.232 324.663,123.946 325.256,123.353 C326.868,121.741 325.787,121.343 322.966,122.512 M346.615,123.771 C346.97,124.697 346.685,125.799 345.976,126.237 C344.139,127.372 345.564,132.611 347.508,131.865 C348.481,131.492 348.966,131.96 348.966,133.274 C348.966,134.695 348.286,135.243 346.525,135.243 C345.182,135.243 343.806,135.693 343.466,136.243 C343.126,136.793 343.373,137.243 344.014,137.243 C344.655,137.243 344.921,137.918 344.604,138.743 C343.787,140.874 344.819,140.617 349.162,137.607 C353.46,134.629 353.519,134.477 351.501,131.597 C350.696,130.447 350.301,129.241 350.625,128.917 C350.948,128.594 350.859,127.522 350.426,126.536 C349.993,125.55 349.6,124.299 349.552,123.757 C349.505,123.214 348.68,122.619 347.72,122.434 C346.441,122.188 346.145,122.546 346.615,123.771 M25.216,142.473 C23.979,143.065 22.966,144.155 22.966,144.896 C22.966,146.731 25.889,146.608 26.604,144.743 C27.461,142.51 29.629,142.93 30.476,145.493 L31.22,147.743 L31.674,145.407 C31.923,144.122 31.979,142.941 31.797,142.781 C30.596,141.729 27.114,141.566 25.216,142.473 M340.542,142.366 C340.916,142.971 340.602,143.89 339.844,144.409 C338.786,145.132 338.912,145.28 340.383,145.047 C342.849,144.656 343.522,142.67 341.456,141.878 C340.445,141.49 340.111,141.668 340.542,142.366 M18.966,145.302 C18.966,145.884 19.416,146.083 19.966,145.743 C20.516,145.403 20.966,144.927 20.966,144.684 C20.966,144.441 20.516,144.243 19.966,144.243 C19.416,144.243 18.966,144.72 18.966,145.302 M278.966,174.802 C278.966,175.659 279.423,176.078 279.982,175.733 C280.541,175.387 280.74,174.686 280.423,174.174 C279.566,172.787 278.966,173.045 278.966,174.802 M303.466,174.243 C303.126,174.793 303.775,175.243 304.907,175.243 C306.039,175.243 306.966,174.793 306.966,174.243 C306.966,173.693 306.318,173.243 305.525,173.243 C304.732,173.243 303.806,173.693 303.466,174.243 M17.966,180.243 C17.966,180.793 18.416,181.243 18.966,181.243 C19.516,181.243 19.966,180.793 19.966,180.243 C19.966,179.693 19.516,179.243 18.966,179.243 C18.416,179.243 17.966,179.693 17.966,180.243 M267.466,190.243 C266.891,191.173 267.362,191.374 270.758,191.654 C271.468,191.713 272.404,192.334 272.838,193.036 C273.782,194.564 276.966,193.567 276.966,191.743 C276.966,189.386 268.793,188.095 267.466,190.243 M27.966,195.243 C27.966,195.793 28.668,196.243 29.525,196.243 C30.382,196.243 30.806,195.793 30.466,195.243 C30.126,194.693 29.425,194.243 28.907,194.243 C28.389,194.243 27.966,194.693 27.966,195.243 M76.695,198.847 C76.294,199.248 75.966,200.266 75.966,201.11 C75.966,202.235 76.262,202.347 77.078,201.531 C77.69,200.919 78.019,199.9 77.808,199.268 C77.597,198.636 77.096,198.446 76.695,198.847 M28.966,203.302 C28.966,203.884 28.516,204.083 27.966,203.743 C27.416,203.403 26.966,203.527 26.966,204.017 C26.966,205.766 28.226,206.126 29.585,204.767 C31.216,203.136 31.351,202.243 29.966,202.243 C29.416,202.243 28.966,202.72 28.966,203.302 M60.466,203.243 C60.806,203.793 61.282,204.243 61.525,204.243 C61.768,204.243 61.966,203.793 61.966,203.243 C61.966,202.693 61.489,202.243 60.907,202.243 C60.325,202.243 60.126,202.693 60.466,203.243 M70.966,203.243 C70.966,203.793 71.416,204.243 71.966,204.243 C72.516,204.243 72.966,203.793 72.966,203.243 C72.966,202.693 72.516,202.243 71.966,202.243 C71.416,202.243 70.966,202.693 70.966,203.243 M148.466,203.243 C148.126,203.793 148.576,204.243 149.466,204.243 C150.356,204.243 150.806,203.793 150.466,203.243 C150.126,202.693 149.676,202.243 149.466,202.243 C149.256,202.243 148.806,202.693 148.466,203.243 M67.466,204.243 C67.126,204.793 67.55,205.243 68.407,205.243 C69.264,205.243 69.966,204.793 69.966,204.243 C69.966,203.693 69.543,203.243 69.025,203.243 C68.507,203.243 67.806,203.693 67.466,204.243 M66.359,207.825 C66.693,208.695 66.966,209.595 66.966,209.825 C66.966,210.055 67.645,210.243 68.474,210.243 C69.733,210.243 69.776,209.911 68.734,208.243 C67.252,205.87 65.49,205.559 66.359,207.825 M99.966,208.576 C99.966,209.503 100.743,210.236 101.716,210.228 C102.715,210.219 103.037,209.892 102.466,209.466 C101.916,209.056 101.129,208.312 100.716,207.815 C100.303,207.317 99.966,207.66 99.966,208.576 M144.158,208.318 C144.355,208.909 144.943,209.393 145.466,209.393 C145.989,209.393 146.577,208.909 146.774,208.318 C146.971,207.727 146.383,207.243 145.466,207.243 C144.549,207.243 143.961,207.727 144.158,208.318 M62.503,209.304 C63.206,210.44 65.966,210.562 65.966,209.456 C65.966,209.023 65.056,208.6 63.944,208.516 C62.832,208.433 62.184,208.787 62.503,209.304 M97.466,209.243 C97.126,209.793 97.325,210.243 97.907,210.243 C98.489,210.243 98.966,209.793 98.966,209.243 C98.966,208.693 98.768,208.243 98.525,208.243 C98.282,208.243 97.806,208.693 97.466,209.243 M172.618,210.4 C167.927,211.082 166.181,211.792 167.052,212.662 C167.282,212.892 170.719,212.78 174.69,212.412 C180.688,211.856 181.533,211.57 179.687,210.719 C178.401,210.126 175.426,209.992 172.618,210.4 M59.966,211.712 C59.966,212.604 60.553,212.955 61.46,212.607 C62.282,212.291 62.706,211.631 62.401,211.138 C61.529,209.726 59.966,210.094 59.966,211.712 M150.947,211.766 C149.89,213.039 149.952,213.186 151.325,212.659 C152.227,212.312 152.966,211.627 152.966,211.136 C152.966,209.85 152.387,210.031 150.947,211.766 M114.966,213.302 C114.966,213.884 115.416,214.083 115.966,213.743 C116.516,213.403 116.966,212.927 116.966,212.684 C116.966,212.441 116.516,212.243 115.966,212.243 C115.416,212.243 114.966,212.72 114.966,213.302 M229.966,221.243 C229.966,221.793 230.416,222.243 230.966,222.243 C231.516,222.243 231.966,221.793 231.966,221.243 C231.966,220.693 231.516,220.243 230.966,220.243 C230.416,220.243 229.966,220.693 229.966,221.243 M176.966,223.243 C178.905,224.496 179.966,224.496 179.966,223.243 C179.966,222.693 178.953,222.25 177.716,222.258 C175.897,222.271 175.753,222.459 176.966,223.243 M234.466,223.243 C234.806,223.793 235.732,224.243 236.525,224.243 C237.318,224.243 237.966,223.793 237.966,223.243 C237.966,222.693 237.039,222.243 235.907,222.243 C234.775,222.243 234.126,222.693 234.466,223.243 M230.966,225.636 C230.966,225.852 231.641,226.288 232.466,226.605 C233.291,226.921 233.966,226.744 233.966,226.212 C233.966,225.679 233.291,225.243 232.466,225.243 C231.641,225.243 230.966,225.42 230.966,225.636 M212.966,231.243 C213.555,232.343 214.418,233.243 214.885,233.243 C215.351,233.243 215.968,232.343 216.256,231.243 C216.673,229.646 216.286,229.243 214.337,229.243 C212.206,229.243 212.031,229.497 212.966,231.243 M213.058,238.874 C212.498,240.899 212.256,242.903 212.518,243.327 C212.78,243.752 212.057,244.397 210.912,244.76 C208.919,245.393 208.907,245.482 210.647,246.801 C212.238,248.008 212.687,247.918 214.231,246.083 C215.867,244.138 215.875,243.897 214.34,242.775 C212.81,241.656 212.809,241.517 214.326,240.935 C216.094,240.257 216.568,236.733 215.02,235.776 C214.5,235.455 213.617,236.849 213.058,238.874"></path>
    </g>
</svg>