<svg xmlns="http://www.w3.org/2000/svg" viewBox="0 0 372 274">
    <path fill-rule="evenodd" d="M156.352.289c-3.269 1.251-3.55 2.551-.821 3.794C157.206 4.846 158 6.019 158 7.73c0 1.386-.492 2.521-1.092 2.521-.601 0-2.237.9-3.635 2-1.399 1.1-3.957 2-5.685 2-1.729 0-4.031.615-5.115 1.367-2.24 1.552-15.476 3.231-15.467 1.963.004-.457.676-2.114 1.495-3.684 1.653-3.17 1.212-4.857-1.044-3.991-1.082.415-1.322.068-.891-1.294.349-1.106-.66-.457-2.489 1.601-1.692 1.904-3.077 3.768-3.077 4.142 0 .719-7.356 3.896-9.02 3.896-.539 0-.98-.665-.98-1.479 0-1.209-.45-1.273-2.469-.353-1.357.618-2.262 1.458-2.01 1.865.251.408-.26.679-1.136.604-1.866-.16-5.385 5.805-5.385 9.129 0 1.263-.625 2.537-1.389 2.83-.8.307-1.176 1.35-.887 2.456.699 2.672-2.168 3.542-5.176 1.571-4.876-3.194-23.192-1.524-20.753 1.893.388.543 1.937 1.622 3.443 2.398 2.026 1.044 2.467 1.737 1.697 2.665-.76.915-.554 1.394.762 1.773.992.286.453.436-1.197.334-2.468-.153-3.06.238-3.338 2.205-.26 1.842.026 2.251 1.25 1.781.963-.369 1.588-.083 1.588.728 0 .907-.999 1.221-3.106.976-2.06-.24-4.163.391-6.248 1.876-1.912 1.362-4.708 2.268-7.144 2.317-8.434.167-8.869.284-7.448 1.997 1.124 1.354.972 1.529-1.127 1.295-1.335-.148-4.149.104-6.254.561-2.585.56-4.693.422-6.5-.426-4.2-1.972-8.844-2.819-10.321-1.883-.999.633-1.025.86-.102.872.688.008 1.25.69 1.25 1.515 0 2.464-6.634 2.009-7.29-.5-.337-1.288-.03-2 .861-2 .76 0 2.089-1.078 2.953-2.396.863-1.317 2.561-2.674 3.773-3.016 2.09-.589 2.11-.692.4-2.003-1.239-.95-1.418-1.511-.573-1.793.746-.249.907-.932.409-1.738-.59-.955-1.344-.254-2.677 2.487-1.021 2.099-1.856 4.304-1.856 4.9 0 .597-1.013 1.529-2.25 2.072-1.237.543-2.388 1.957-2.557 3.143-.338 2.369-4.1 3.826-7.278 2.817-1.053-.334-1.915-.18-1.915.343 0 1.375 5.019 2.127 7.614 1.141 2.362-.898 3.386.349 3.386 4.125 0 2.399-1.971 2.558-2.079.168-.049-1.078-.473-.669-1.105 1.067-.585 1.603-1.567 2.609-2.281 2.335-1.535-.589-3.985 9.354-3.04 12.334.489 1.538.274 1.862-.93 1.401-1.645-.632-1.971.392-.96 3.025.332.867 1.006 1.328 1.497 1.025.49-.303.456.596-.077 1.997-1.267 3.333-.338 5.561 2.332 5.588 1.179.012 3.226.855 4.549 1.872 2.754 2.118 2.299 4.978-.927 5.822-1.955.511-1.945.586.338 2.702 2.044 1.894 2.366 3.177 2.487 9.918.177 9.8 1.64 15.244 4.911 18.275 1.616 1.499 2.057 2.397 1.181 2.411-.827.013-.377.809 1.104 1.953 2.401 1.853 2.429 2.001.714 3.727-1.56 1.571-1.911 1.608-2.768.298-.854-1.303-1.121-1.264-2.039.294-.692 1.177-1.718 1.584-2.981 1.182-1.059-.336-1.926-.161-1.926.389s.9 1.286 2 1.635 2 1.103 2 1.674c0 .572-.661.786-1.469.476-.808-.31-2.721.089-4.25.887-1.53.798-3.434 1.453-4.231 1.457-1.155.005-1.197.259-.208 1.248.889.889 1.442.928 1.95.134.389-.608 2.058-1.055 3.708-.991 1.966.075 3.815-.72 5.363-2.309 2.165-2.22 2.444-2.278 3.331-.694.73 1.305 1.294 1.458 2.298.625.847-.703 1.55-.748 1.935-.125.333.539.036 1.348-.661 1.799-3.584 2.317-5.432 3.347-7.057 3.93-.985.354-1.672 1.374-1.525 2.266.146.893-.087 2.186-.518 2.873-.502.801-.224 1.25.775 1.25.857 0 1.559-.45 1.559-1s1.152-1 2.559-1c1.451 0 2.292.433 1.941 1-.34.55-.141 1 .441 1s1.059.723 1.059 1.607c0 1.09-.537 1.401-1.67.966-.919-.352-2.078-.063-2.576.643-.718 1.018-1.012 1.025-1.413.034-.789-1.945-2.341-1.471-2.341.715 0 1.08.812 2.399 1.804 2.93 2.023 1.083 4.789-.126 3.832-1.675-.356-.576.882-1.178 2.905-1.415 3.429-.4 3.513-.327 3.084 2.642-.243 1.679-.483 3.221-.533 3.425-.051.205-.762-.183-1.58-.862-1.205-1-1.606-.929-2.107.377-.341.887-1.504 1.613-2.585 1.613-1.335 0-1.858.562-1.63 1.75.186.962 1.006 1.75 1.824 1.75.817 0 1.336-.675 1.153-1.5-.184-.825 0-1.166.408-.759.407.408 1.34.245 2.071-.362 1.82-1.51 3.11 1.802 1.34 3.438-.991.916-1.12.901-.574-.067.388-.687.241-1.25-.328-1.25-.615 0-.792 1.212-.436 2.988.388 1.942.029 3.856-1.025 5.465-1.534 2.34-1.509 2.537.441 3.581 1.548.829 2.442.791 3.577-.151 1.224-1.016 2.117-.952 4.686.334 1.745.874 3.888 1.816 4.763 2.093 2.323.737 1.698 5-.906 6.177-2.094.947-3.081 3.513-1.351 3.513.459 0 2.146 1.338 3.75 2.972 1.605 1.635 3.65 2.985 4.546 3 1.51.026 4.647 5.582 4.109 7.278-.326 1.028.538.94 2.828-.285 2.449-1.311 2.436-2.512-.066-5.692-1.1-1.399-2-3.396-2-4.439 0-1.043-.675-2.156-1.5-2.472-2.366-.908-1.75-2.362 1-2.362 1.556 0 2.5.567 2.5 1.5 0 .962.986 1.511 2.75 1.531 1.768.021 3.41.938 4.598 2.569 1.995 2.738 1.561 4.4-.666 2.551-1.607-1.334-3.052-.331-1.811 1.257 1.457 1.864 2.188 6.438 1.133 7.09-.552.341-1.004.158-1.004-.408 0-.565-.699-.759-1.554-.431-1.348.517-1.294.879.406 2.719 1.515 1.639 2.211 4.624 3.06 13.122.604 6.05 1.193 11.788 1.308 12.75.115.962.61 1.75 1.101 1.75s.615.723.276 1.607c-.413 1.077.776 2.919 3.607 5.585 5.2 4.898 8.321 6.558 13.941 7.416 5.23.799 6.401 1.633 8.5 6.057 1.679 3.537 1.856 3.564 8.105 1.226 2.236-.836 3.141-2.891 1.273-2.891-1.24 0-4.482-4.874-3.737-5.619.306-.307 1.836.389 3.4 1.545 1.564 1.156 5.431 2.523 8.593 3.038 3.163.515 6.213 1.222 6.779 1.572.566.35 1.572.189 2.236-.358 1.734-1.429 7.418-.749 9.502 1.137 1.025.928 2.665 1.377 3.874 1.061 1.153-.301 3.533.195 5.288 1.102 1.756.908 6.35 1.916 10.209 2.239 6.079.51 7.383.98 9.756 3.519l2.738 2.93 1.802-2.75c1.658-2.53 1.672-2.844.169-3.943-.897-.656-1.632-2.101-1.632-3.211 0-2.414 2.465-4.71 4.024-3.747.956.591 1.994-1.348 2.268-4.236.107-1.133 4.317-4.279 5.725-4.279.785 0 1.06 1.215.793 3.5-.29 2.483-.014 3.5.95 3.5.747 0 1.149.337.895.75-.255.413.623.75 1.952.75 1.675 0 2.248-.435 1.87-1.42-.75-1.956 1.524-3.15 3.741-1.963 1.005.537 4.505 1.147 7.778 1.355 3.272.207 6.402.656 6.954.997 2.759 1.705 7.592 1.37 9.771-.677 2.164-2.032 2.34-2.047 4.206-.359 1.071.97 2.459 1.447 3.084 1.06.625-.386 2.29.357 3.7 1.652 1.765 1.622 2.702 1.966 3.01 1.105.245-.687 1.11-1.25 1.921-1.25.812 0 1.21-.43.885-.956-.325-.526-1.364-.691-2.309-.366-1.334.459-1.271.243.282-.969 1.968-1.535 1.957-1.576-.68-2.583-1.474-.563-4.235-.771-6.137-.462-1.913.31-4.291.043-5.321-.599-1.75-1.091-1.739-1.127.19-.608 1.129.304 2.929-.088 3.999-.871 1.873-1.369 1.84-1.45-.862-2.128-1.781-.447-2.62-1.197-2.292-2.049.283-.74.085-1.611-.441-1.936-.526-.325-.956.336-.956 1.468s-.394 2.059-.875 2.059c-1.437 0-.99-4.838.5-5.41.756-.29 1.375-.056 1.375.521 0 .655 1.18.789 3.146.357 2.873-.631 3.096-.502 2.577 1.482-.359 1.375-.046 2.373.855 2.718.782.3 1.422 1.173 1.422 1.939 0 1.57 1.548 1.687 4.5.339 1.83-.835 1.795-.893-.407-.68-1.324.129-2.599-.328-2.833-1.016-.235-.687.087-1.25.716-1.25.628 0 .909-.377.625-.837-.623-1.007 2.134-5.163 3.424-5.163.502 0 .653.675.337 1.5-.317.825-.115 1.5.448 1.5.563 0 1.2-.53 1.416-1.177.642-1.927 2.774.104 2.774 2.642 0 1.91.419 2.258 2.25 1.867 2.194-.468 2.201-.441.309 1.094-1.745 1.415-1.47 2.046.732 1.679.434-.073 1.726.369 2.87.981 1.678.898 1.923.852 1.268-.236-.66-1.097-.494-1.091.888.029 1.086.882 2.954 1.176 5.173.816 1.91-.31 3.751-.114 4.091.436.374.605 1.358.329 2.495-.7 2.078-1.88 1.688-3.662-.608-2.78-.807.309-1.468.065-1.468-.544s1.405-1.107 3.122-1.107c2.605 0 2.925-.239 1.927-1.441-.657-.792-1.837-1.194-2.622-.893-.871.335-1.427-.078-1.427-1.059 0-1.023-.817-1.578-2.25-1.528-1.237.043-1.687.306-1 .583.688.278 1.25.903 1.25 1.39 0 .487-.675.626-1.5.31-2.251-.864-1.883-5.029.5-5.652 1.3-.34 2-.03 2 .884 0 .773.638 1.406 1.418 1.406.78 0 2.13.273 3 .607 1.038.398 1.582.055 1.582-1 0-1.766 3.493-2.237 4.5-.607.34.55 1.407 1 2.37 1 .964 0 2.769.947 4.011 2.103 1.43 1.333 3.12 1.939 4.612 1.654 1.546-.296 2.552.098 2.931 1.146.318.878.863 2.231 1.213 3.006.452 1.001.162 1.228-.999.782-.9-.345-2.626-.261-3.837.187-2.187.809-2.184.825.536 2.607 2.654 1.739 2.805 1.733 4.95-.213 1.217-1.104 3.977-2.276 6.132-2.604 2.156-.329 4.181-.961 4.5-1.406.32-.444 1.867-1.627 3.438-2.628 2.067-1.317 3.159-1.518 3.95-.727.601.601 1.791 1.086 2.643 1.078 1.251-.013 1.288-.181.193-.875-.829-.525-.968-1.1-.359-1.476.548-.339 1.762.55 2.696 1.975l1.698 2.593 2.447-3.601c1.346-1.981 3.245-3.601 4.22-3.601.975 0 2.646-.661 3.714-1.468 1.067-.808 3.187-1.483 4.709-1.5 1.523-.018 4.981-1.189 7.685-2.602 4.004-2.094 5.303-2.363 7.005-1.453 1.877 1.005 1.933 1.274.556 2.651-2.085 2.086-1.035 3.366 2.795 3.404 2.853.028 3.007.171 1.457 1.349-1.829 1.388-1.378 2.619.96 2.619.799 0 1.088-.493.678-1.156-.514-.831.212-.971 2.584-.496 1.814.362 3.796.301 4.405-.136 2.002-1.438 8.743-3.409 9.403-2.749.355.355.059 1.009-.659 1.453-.963.594-.747.953.82 1.362 1.742.456 2.016.211 1.517-1.361-.65-2.048 1.858-2.808 3.026-.917 1.001 1.62 2.317 1.152 3.024-1.075.362-1.142.955-1.779 1.317-1.417.621.621.726.979 1.034 3.527.085.702.773.689 2.138-.042 1.483-.794 1.782-1.526 1.135-2.785-.483-.939-.676-2.27-.43-2.958.247-.687-.294-1.25-1.203-1.25-1.439 0-1.386-.373.417-2.904 1.137-1.598 2.071-3.51 2.074-4.25.004-.74.648-2.576 1.432-4.079.784-1.503 1.095-2.938.691-3.188-.405-.249-.394-3.97.024-8.266.417-4.297.995-10.429 1.282-13.625.288-3.197.782-6.23 1.096-6.739.315-.509-.171-.641-1.08-.292-.937.36-2.035.03-2.535-.761-.981-1.55-.166-7.863 1.205-9.346 1.475-1.594.986-2.391-1.126-1.838-2.62.685-5.266-1.566-4.643-3.949.299-1.145.037-1.726-.672-1.49-1.146.382-3.68-1.525-3.68-2.769 0-.351.9-.353 2-.004 1.645.522 2 .18 2-1.933 0-2.889-1.149-3.298-3-1.067-2.149 2.589-5.002 1.874-4.985-1.25.009-1.512.418-3.385.91-4.162.573-.907.42-1.886-.43-2.736-1.097-1.097-1.806-1.07-4.159.156-1.56.814-2.498 1.539-2.086 1.611.412.072 1.275.187 1.917.256 1.813.194 2.199 2.625.416 2.625-.87 0-1.583-.45-1.583-1s-.627-1-1.393-1-1.652-.675-1.969-1.5c-.35-.914-.001-1.5.893-1.5.808 0 1.469-.48 1.469-1.067s.803-.813 1.784-.502c1.257.4 3.271-.981 6.829-4.682 5.436-5.655 6.974-8.384 5.081-9.022-.899-.302-.912-.751-.054-1.814.627-.777.959-3.213.738-5.413-.501-4.988-1.147-12.435-1.279-14.75-.058-1.03-.896-1.75-2.037-1.75-1.321 0-1.89-.636-1.787-2 .083-1.1.73-2 1.438-2 2.066 0 1.484-2.618-.963-4.334-1.925-1.35-2.033-1.727-.75-2.607 1.235-.847 1.109-1.031-.719-1.044-1.65-.011-2.079-.463-1.674-1.765.516-1.658.485-1.658-.584.006-.872 1.356-.775 2.259.424 3.972 2.086 2.978 1.955 4.983-.458 7.05-3.272 2.801-4.165 2.132-3.632-2.72.318-2.888.078-4.593-.684-4.872-.882-.322-.861-.895.083-2.307 2.225-3.327 2.531-4.492 1.461-5.562-.731-.731-1.746-.56-3.355.567-3.205 2.245-4.543 2.024-5.269-.871-.874-3.482-5.101-6.167-7.098-4.509-1.336 1.109-1.886.731-1.653-1.135.043-.347-.804-1.429-1.882-2.405-1.078-.976-1.96-2.618-1.96-3.65 0-2.38-2.571-3.415-4.501-1.813-1.189.986-1.596.911-2.094-.388-.832-2.169.308-4.909 1.688-4.056.809.5.809.128.001-1.381-.607-1.135-1.552-2.341-2.099-2.679-1.507-.932-1.19-3.497.432-3.497.784 0 1.655.788 1.934 1.75.294 1.011.43.694.324-.75-.148-1.994-.723-2.5-2.846-2.5-1.464 0-3.001-.337-3.417-.75-.415-.413-1.693-.764-2.839-.78-1.895-.028-1.925-.123-.333-1.05 2.323-1.353 2.4-5.107.086-4.219-1.073.412-1.422.247-.982-.465.442-.715-.36-1.074-2.282-1.019-3.112.089-9.381-3.281-7.358-3.955.646-.215.902-1.099.57-1.963-.41-1.07-.153-1.409.807-1.06.775.281 1.297 1.017 1.159 1.636-.144.649 1.091 1.125 2.921 1.125 1.744 0 3.994.745 5 1.655 1.148 1.038 1.829 1.213 1.829.469 0-.653-.667-1.443-1.482-1.755-1.128-.433-1.236-1.027-.453-2.49.565-1.056.755-2.361.422-2.9-.333-.538-.113-.979.489-.979 1.322 0-.317-3.376-3.077-6.338-1.006-1.081-1.592-2.35-1.301-2.821.291-.47-.188-1.13-1.064-1.466-1-.384-1.378-1.291-1.015-2.435.452-1.425.077-1.792-1.72-1.68-1.265.079-2.671.616-3.125 1.192-.561.712-.989.647-1.333-.202-.279-.687-.963-1.25-1.52-1.25s-2.283-.905-3.835-2.01c-2.518-1.793-2.986-1.847-4.333-.5-2.027 2.026-2.653 1.902-2.653-.525 0-1.754-.289-1.881-2.088-.918-1.609.861-1.949 1.729-1.484 3.785.552 2.443.484 2.516-.807.872-.775-.989-1.191-2.633-.924-3.654.33-1.262-.185-2.07-1.606-2.521-1.15-.365-2.091-1.132-2.091-1.703 0-.572-.685-.777-1.523-.456-.838.322-2.411-.304-3.5-1.393-1.545-1.545-1.649-1.977-.477-1.977.825 0 1.5.45 1.5 1s.419 1 .932 1c1.884 0-.429-8.593-2.531-9.399-1.604-.616-2.002 2.909-.437 3.876 1.842 1.139-2.44 4.023-5.956 4.012-2.814-.009-3.747-.543-4.804-2.75-.722-1.507-1.964-2.739-2.759-2.739-.795 0-1.332-.562-1.195-1.25.145-.725-.59-1.148-1.75-1.006-1.1.134-6.242.461-11.427.726-10.062.516-12.887 1.694-9.7 4.047 1.779 1.314 1.741 1.416-.769 2.046-1.452.365-3.768.448-5.146.184-1.378-.263-2.72-.131-2.983.293-.262.425-1.489.502-2.726.173l-2.249-.6 2.426-.584c1.334-.321 2.604-1.118 2.821-1.77.41-1.229-4.198-2.888-6.641-2.39-.766.157-1.766-.312-2.221-1.042-.64-1.025-1.19-.814-2.416.927-1.32 1.873-1.933 2.068-3.64 1.154-1.129-.604-3.138-.891-4.465-.637-1.326.253-2.653.071-2.947-.405-.793-1.283-5.833-1.05-7.217.334-.933.933-1.2.878-1.201-.25 0-.841-1.05-1.511-2.5-1.594-1.374-.08-2.499.306-2.499.857 0 .563-.765.684-1.75.275-2.265-.94-3.222-.963-6.446-.154-2.559.643-2.707.45-3.895-5.083-.679-3.163-1.609-6.505-2.067-7.427-1.412-2.841-9.703-7.781-14.135-8.423-2.572-.373-4.984-1.499-6.207-2.897-1.525-1.744-2.51-2.092-4.148-1.466M236.5 17.618l-6 3.133 7.403.297c4.072.163 7.801-.101 8.287-.587 1.2-1.2-.799-6.241-2.415-6.093-.701.065-3.975 1.528-7.275 3.25m-176 3.633c.34.55.816 1 1.059 1s.441-.45.441-1-.477-1-1.059-1-.781.45-.441 1m1.384 6.108c-1.165.751-1.146 1.048.116 1.877 1.848 1.213 2.133 1.217 3.971.054 1.556-.984.872-2.298-1.366-2.626-.735-.108-1.96.205-2.721.695M291.5 29.251c.34.55.816 1 1.059 1s.441-.45.441-1-.477-1-1.059-1-.781.45-.441 1m-6.867 1.513c-.487 1.269-.075 1.55 1.904 1.303 3.132-.392 3.715-2.209.84-2.619-1.245-.178-2.379.367-2.744 1.316M297 30.192c0 .518.45 1.219 1 1.559.55.34 1-.084 1-.941s-.45-1.559-1-1.559-1 .423-1 .941m-81 1.442c0 .888 4.046 1.352 4.558.523.308-.498-.592-.906-1.999-.906s-2.559.173-2.559.383m40 .617c0 .55.9 1 2 1s2-.45 2-1-.9-1-2-1-2 .45-2 1m-170 5c0 .55.45 1 1 1s1-.45 1-1-.45-1-1-1-1 .45-1 1m191.753 9.488c.262 1.369.875 2.242 1.364 1.94.503-.311.438-1.391-.149-2.489-1.4-2.615-1.786-2.44-1.215.549m31.06 4.195c.721.289 1.584.253 1.916-.079.332-.332-.258-.568-1.312-.525-1.165.048-1.402.285-.604.604M15 54.251c0 .55.702 1 1.559 1s1.281-.45.941-1c-.34-.55-1.041-1-1.559-1s-.941.45-.941 1m41.128.921c-1.138.703-1.136.924.009 1.379.95.378.833.566-.387.621-2.05.093-2.406 2.079-.372 2.079 1.965 0 4.141-2.881 3.021-4.001-.507-.507-1.521-.542-2.271-.078m-28.767 8.58c-.316.825-1.228 1.499-2.027 1.499-.799 0-1.169.457-.824 1.016.346.559 1.159.688 1.808.287.65-.401 2.459-.595 4.021-.431 2.243.235 2.769-.068 2.501-1.439-.436-2.224-4.704-2.95-5.479-.932M10 75.251c0 .55.477 1 1.059 1s.781-.45.441-1-.816-1-1.059-1-.441.45-.441 1m-1.812 4.063c.24.721 1.028 1.509 1.75 1.75.75.25 1.125-.125.875-.875-.241-.722-1.029-1.51-1.75-1.75-.75-.25-1.125.125-.875.875m11.364.879c-.966 1.068-1.562 2.527-1.324 3.241.238.715-.166 1.898-.898 2.63-1.439 1.439-1.794 4.804-.58 5.497.413.235 2.36.717 4.329 1.072 3.5.63 3.569.58 3.15-2.278-.265-1.8-1.16-3.114-2.329-3.42-1.045-.273-1.9-1.019-1.9-1.658 0-.747.798-.907 2.242-.449 2.014.639 2.1.54.843-.975-1.061-1.278-1.119-1.968-.243-2.844.637-.637 1.158-1.518 1.158-1.958 0-1.496-2.684-.807-4.448 1.142M7.5 84.251c-.34.55.084 1 .941 1s1.559-.45 1.559-1-.423-1-.941-1-1.219.45-1.559 1M321 99.144c0 1.579 2.815 2.031 3.386.544.364-.949-.117-1.437-1.417-1.437-1.083 0-1.969.402-1.969.893m16 3.166c0 .582.45.781 1 .441s1-.816 1-1.059-.45-.441-1-.441-1 .477-1 1.059m13 30.751c0 .537.713 1.249 1.584 1.584.973.373 1.431.15 1.187-.581-.498-1.495-2.771-2.318-2.771-1.003m3.562 3.994c-.808 2.546.29 5.196 2.152 5.196.945 0 1.28-.574.904-1.552-.327-.854-.181-1.296.324-.984.506.313 1.202.111 1.548-.448.345-.559-.074-1.016-.931-1.016-.857 0-1.447-.506-1.309-1.125.442-1.989-2.058-2.055-2.688-.071M9 147.751c0 .825.661 1.5 1.469 1.5.894 0 1.243-.586.893-1.5-.317-.825-.978-1.5-1.469-1.5-.491 0-.893.675-.893 1.5m2 5.893c0 .766.675 1.652 1.5 1.969.825.316 1.5 1.174 1.5 1.907 0 .853 1.248 1.331 3.474 1.331 3.147 0 3.335-.153 2-1.629-.811-.896-1.474-2.188-1.474-2.871 0-.81-.592-.651-1.702.459-1.603 1.603-1.758 1.578-2.653-.428-1.074-2.407-2.645-2.845-2.645-.738m-10 4.607c0 .55.45 1 1 1s1-.45 1-1-.45-1-1-1-1 .45-1 1m356.427 2.771c.36 1.134.186 2.35-.386 2.704-1.737 1.073-1.167 2.525.99 2.525 3.043 0 3.571-2.79.984-5.2l-2.241-2.089.653 2.06M0 162.251c0 .55.477 1 1.059 1s.738.52.346 1.155c-.453.731-.274.882.489.41.921-.569.929-1.074.032-2.154C.544 160.997 0 160.88 0 162.251m11.813 3.683c.721.289 1.584.253 1.916-.079.332-.332-.258-.568-1.312-.525-1.165.048-1.402.285-.604.604M1 167.313c0 .516.9.938 2 .938s2-.354 2-.787c0-.433-.9-.855-2-.938-1.1-.083-2 .271-2 .787m342.25.298c-2.574 1.275-2.962 2.64-.75 2.64.825 0 1.5-.45 1.5-1s.675-1 1.5-1 1.5-.45 1.5-1c0-1.195-.757-1.122-3.75.36M10.5 181.251c.34.55.816 1 1.059 1s.441-.45.441-1-.477-1-1.059-1-.781.45-.441 1m38.5 10c0 .55.45 1 1 1s1-.45 1-1-.45-1-1-1-1 .45-1 1m211 45c0 .55.675 1 1.5 1s1.5-.45 1.5-1-.675-1-1.5-1-1.5.45-1.5 1m105.606.584c-.373.973-.15 1.431.581 1.187 1.495-.498 2.318-2.771 1.003-2.771-.537 0-1.249.713-1.584 1.584m-95.635.951c-1.69 2.036-.897 2.616 1.34.979.995-.727 1.383-1.585.862-1.907-.52-.322-1.511.096-2.202.928m22.032.957c-1.375 3.616-1.257 5.508.342 5.508 2.025 0 4.878-3.605 4.481-5.664-.566-2.941-3.684-2.84-4.823.156m-12.132-.325c-.071.183-.204 1.521-.295 2.973-.113 1.794.249 2.481 1.129 2.143.712-.273 1.295-1.124 1.295-1.89 0-.766.034-1.719.075-2.118.075-.722-1.958-1.744-2.204-1.108m7.767 3.333c-.35.914-.001 1.5.893 1.5.808 0 1.469-.675 1.469-1.5s-.402-1.5-.893-1.5-1.152.675-1.469 1.5m-23.638 9.5c0 .55.477 1 1.059 1s.781-.45.441-1-.816-1-1.059-1-.441.45-.441 1m-38 6c0 .55.423 1 .941 1s1.219-.45 1.559-1c.34-.55-.084-1-.941-1s-1.559.45-1.559 1"/>
  </svg>