<svg xmlns="http://www.w3.org/2000/svg" viewBox="0 0 356 248">
    <path fill-rule="evenodd" d="M48.287 2.122c-.305 1.166-.952 2.121-1.438 2.121-.485 0-.883.825-.883 1.833 0 1.009-.562 1.869-1.25 1.912-7.335.457-10.75 2.161-10.75 5.363 0 1.662-.635 1.81-5.892 1.37-3.241-.272-6.946-.104-8.234.373l-2.341.866 2.439.774c1.563.496 2.575.367 2.817-.358.543-1.628 2.749-1.395 4.283.453.831 1.002 2.257 1.402 3.872 1.087 1.925-.376 3.027.133 4.464 2.062l1.909 2.561-2.909-.608c-1.599-.335-2.345-.364-1.658-.065 1.485.646 1.687 3.377.25 3.377-2.056 0-.905 1.986 1.5 2.589 1.375.345 2.5 1.029 2.5 1.519 0 1.121-.285 1.114-3.435-.083-1.411-.537-2.565-1.737-2.565-2.667 0-.93-.332-1.36-.737-.954-.406.405-.743 1.493-.75 2.417-.01 1.335-.883 1.642-4.263 1.5-2.998-.127-4.25.22-4.25 1.177 0 1.664 5.455 4.502 8.654 4.502 2.535 0 3.112 1.402 1.096 2.666-1.866 1.17-6.01 1.564-5.359.51.311-.504-1.674-.966-4.412-1.028-2.855-.064-4.979.332-4.979.929 0 .573-.48.744-1.067.382-.586-.363-1.748.173-2.581 1.191-1.33 1.624-1.449 1.639-.975.126.316-1.009-.148-2.108-1.121-2.653-1.464-.819-1.489-1.138-.209-2.689 1.271-1.539 1.271-1.699-.001-1.279-.8.265-1.825 1.913-2.279 3.663-.453 1.75-1.261 3.238-1.796 3.307-.534.069-1.421.237-1.971.375a32.53 32.53 0 0 1-1.691.375c-.38.069.182.786 1.25 1.593 1.211.916 1.446 1.48.624 1.5-.891.022-1.096.73-.635 2.184 1.237 3.897.615 9.497-1.466 13.202L0 63.243h3.424c1.883 0 3.69.43 4.015.956.325.526 1.304.683 2.174.349 1.241-.476 1.439-.152.917 1.493-.802 2.527 2.419 6.202 5.436 6.202 1.1 0 2 .482 2 1.072 0 .589 1.013.972 2.25.851s3.016.111 3.952.517c.936.405 2.179.442 2.763.082 1.478-.914 9.035 2.574 9.035 4.17 0 .72-.609 1.308-1.354 1.308-.745 0-2.545 1.103-4 2.452-2.533 2.348-2.838 2.395-7.146 1.098-2.475-.745-4.5-.998-4.5-.562 0 .436-1.462.999-3.25 1.25-1.788.252-4.15.785-5.25 1.185-1.783.649-1.81.606-.25-.397 2.66-1.71 2.098-3.026-1.294-3.026-1.855 0-2.98.488-2.881 1.25.365 2.812-.146 3.937-1.543 3.401-.807-.31-1.704-.182-1.992.284-.874 1.414 6.257 1.747 8.689.405 1.249-.689 3.059-1.017 4.021-.729.962.288 1.75.043 1.75-.544 0-.587.45-1.067 1-1.067 2.41 0 .785 4.69-2.599 7.506-1.98 1.647-4.213 4.177-4.963 5.622-1.665 3.21-2.694 22.524-1.336 25.064.699 1.304.61 1.827-.317 1.876-.707.037-.244.568 1.028 1.181 1.749.842 2.173 1.671 1.738 3.405-.4 1.593-.19 2.151.687 1.83 3.121-1.145 6.19 4.321 4.623 8.233-.614 1.531-1.215 4.358-1.336 6.283-.122 1.925-.527 4.457-.901 5.626-.518 1.62-.197 2.252 1.348 2.656 1.367.358 2.028.045 2.028-.959 0-1.567 2.437-1.321 2.586.26.218 2.307 1.699 4.245 2.896 3.786.723-.278 1.575-.085 1.893.429.699 1.131 5.625.331 5.625-.915 0-.485.9-.883 2-.883 2.471 0 2.669 2.851.25 3.616-8.582 2.714-12.074 5.493-14.597 11.62-1.328 3.223-1.345 3.929-.122 5.152 1.196 1.197 1.202 1.5.039 1.947-.758.291-2.124 3.822-3.035 7.847-.91 4.025-2.314 8.33-3.118 9.568-1.32 2.029-1.294 2.25.262 2.25.949 0 3.237 1.463 5.085 3.25 1.946 1.883 3.078 2.514 2.69 1.5-1.129-2.958 2.258-2.058 4.704 1.25 1.323 1.789 3.127 3 4.471 3 1.239 0 2.531.45 2.871 1 .34.55 2.166 1 4.059 1 2.494 0 3.441.442 3.441 1.607 0 1.156.491 1.392 1.75.839.962-.422 2.875-.761 4.25-.754 7.016.04 8.199.353 8.71 2.308.534 2.043 2.29 2.809 2.29 1 0-.55.675-1 1.5-1s1.5.466 1.5 1.035c0 .714.601.714 1.934 0 1.064-.569 3.344-1.035 5.066-1.035s4.002.466 5.066 1.035c1.713.917 1.934.691 1.934-1.978 0-2.854.133-2.954 2.506-1.872 1.379.628 2.391 1.844 2.25 2.702-.203 1.24.568 1.495 3.744 1.24 4.749-.381 5.799-.905 5.159-2.572-.328-.856.307-1.093 2.041-.762 2.21.423 2.394.251 1.509-1.406-.89-1.665-.6-1.917 2.46-2.142 3.065-.225 3.395-.021 2.833 1.75-.489 1.539-.183 2.005 1.314 2.005 2.144 0 3.369 2.918 2.143 5.108-1.18 2.109 4.1 1.833 6.48-.338 2.37-2.164 4.561-2.293 4.561-.27 0 1.595 3.514 2.096 4.42.629.787-1.273 6.85-2.303 7.514-1.276.948 1.469 5.066 2.408 5.066 1.155 0-.619-.399-.879-.887-.578-.487.301-1.409-.082-2.048-.852-1.904-2.294.341-2.617 3.756-.541 1.797 1.093 3.179 1.457 3.179.837 0-.713 1.232-.865 3.522-.436 5.215.979 7.556-1.883 7.513-9.188-.007-1.238.432-2.25.976-2.25s.989.398.989.883c0 .486.958 1.134 2.13 1.441 1.473.385 1.936 1.062 1.501 2.196-.515 1.341-.13 1.54 2.12 1.093 9.866-1.956 10.462-1.956 10.085 0-.226 1.171-1.478 2.065-3.348 2.389-4.237.734-3.795 3.232.762 4.31 2.063.488 3.75 1.261 3.75 1.719 0 .458 2.25.628 5 .378s5-.036 5 .476 2.25 1.507 5 2.212c2.75.704 5 1.534 5 1.842 0 .309 2.203.561 4.895.561 3.063 0 5.589.602 6.75 1.609 2.224 1.929 7.303 3.439 5.499 1.635-1.579-1.579-1.435-3.744.249-3.744 1.311 0 2.818 2.329 2.33 3.602-.367.955 5.246 3.535 6.289 2.89.557-.344.691.118.317 1.093-.967 2.519 1.949 1.277 3.13-1.334.826-1.826 2.732-3.215 7.041-5.132.55-.244.469.199-.179.985-1.817 2.204 2.39 5.917 5.429 4.793 1.238-.458 2.25-1.297 2.25-1.865 0-1.717 1.438-1.162 2.852 1.102 1.111 1.78 1.11 2.275-.01 2.985-1.056.669-.996.854.285.866 1.346.012 1.538.836 1.109 4.765-.51 4.665-.484 4.719 1.451 3 1.084-.962 2.948-1.75 4.142-1.75 1.3 0 2.171-.626 2.171-1.559 0-.924.47-1.268 1.155-.846.715.443.883.275.44-.44-.392-.635-1.361-1.155-2.154-1.155-.793 0-1.441-.45-1.441-1 0-1.282 1.617-1.275 4.031.017 1.595.853 2.162.51 3.535-2.144.899-1.738 1.634-4.671 1.634-6.517s.48-3.356 1.067-3.356c.586 0 .77-.296.408-.658-.362-.362-.247-1.153.256-1.759.834-1.005 4.069-13.442 4.069-15.645 0-.516-.675-.938-1.5-.938-4.306 0 .75-4.182 7.133-5.901 2.174-.586 4.927-1.972 6.118-3.082 2.578-2.401 3.395-2.562 2.609-.514-.413 1.076.302 1.679 2.515 2.122 1.701.34 2.837 1.032 2.525 1.537-.872 1.41 4.67-.16 8.335-2.363 1.953-1.173 4.034-1.69 5.251-1.303 1.822.578 1.92.386 1.015-1.993-.551-1.448-.99-3.391-.976-4.318.034-2.326 6.191-5.178 11.266-5.218l4.209-.034-2.2-1.836-2.2-1.836 2.2-1.154c1.842-.966 1.345-1.076-3.05-.677-4.189.38-5.25.176-5.25-1.008 0-.817.634-1.728 1.41-2.026.775-.297 1.684-1.633 2.019-2.968.335-1.336 1.22-2.428 1.966-2.428s3.894-1.123 6.997-2.495c3.102-1.372 5.971-2.443 6.374-2.381 1.861.286 3.134-.302 5.602-2.589 2.835-2.627 9.922-5.021 12.237-4.133.903.347 1.908-.693 2.851-2.952.802-1.917 1.364-3.623 1.251-3.79-.459-.673 3.056-3.468 4.781-3.802 1.015-.197 2.056-.989 2.313-1.76.474-1.422-.921-1.299-5.215.458-1.281.525-1.692.425-1.244-.301.369-.596.105-1.289-.586-1.538-.73-.265-.105-.996 1.494-1.746 1.513-.711 2.75-1.895 2.75-2.632 0-.736.892-1.339 1.982-1.339 1.698 0 1.482-.515-1.5-3.586-1.915-1.972-3.482-3.993-3.482-4.492 0-.498-1.819-.178-4.041.711-2.223.89-4.323 1.336-4.667.992-.344-.344.062-.625.901-.625.84 0 2.349-1.094 3.353-2.432 1.005-1.338 3.542-3.206 5.638-4.151 3.203-1.444 3.613-1.957 2.571-3.212-1.059-1.276-.895-1.384 1.128-.742 1.74.552 2.168.428 1.614-.468-.414-.67-.235-1.539.399-1.93.796-.493.528-1.276-.872-2.544-1.978-1.79-2.025-1.777-2.057.574l-.034 2.405-2.039-2.451-2.04-2.451 2.073-.767c1.14-.421 2.073-1.258 2.073-1.858 0-.6.462-.806 1.026-.457.564.349 1.525-.799 2.136-2.55 1.014-2.911 1.398-3.137 4.474-2.638 3.707.602 4.238.031 1.699-1.825-1.091-.798-2.84-.953-5.073-.449-2.729.615-3.3.487-2.866-.643.298-.776.105-1.411-.427-1.411-.533 0-.969-.498-.969-1.107s.675-.848 1.5-.531c1.887.724 1.875.492-.199-3.857-1.242-2.604-2.251-3.488-3.75-3.284-1.493.203-2.141-.358-2.383-2.064-.273-1.933.012-2.235 1.632-1.721 3.171 1.007 3.675-2.275.707-4.609-1.379-1.085-2.507-2.389-2.507-2.9 0-1.518 2.738-1.051 3.362.573 1.006 2.623 2.357 1.622 2.978-2.209.384-2.362.176-3.972-.573-4.435-.885-.547-.837-1.356.194-3.282 1.723-3.22.072-7.574-2.873-7.574-2.514 0-3.113-4.081-1.373-9.357 1.268-3.844 1.264-3.854-1.222-3.231-1.766.444-2.493.219-2.493-.771 0-.768-.716-1.99-1.59-2.716-1.444-1.198-1.421-1.45.25-2.734 1.661-1.277 1.492-1.354-1.732-.791-4.2.733-5.605-.164-3.162-2.019.965-.733 1.206-1.332.543-1.349-.655-.018-1.469.418-1.809.968-.805 1.302-5.5 1.302-5.5 0 0-.55-.691-1-1.535-1-.845 0-2.757-.724-4.25-1.609l-2.715-1.608 2.25 2.019c2.797 2.51 2.812 3.392.093 5.793-2.132 1.883-2.151 1.88-1.633-.193.432-1.731.109-2.052-1.843-1.838-1.613.177-2.367-.251-2.367-1.343 0-1.459-.113-1.461-1.25-.024-2.068 2.614-8.044 3.15-10.581.949-2.984-2.587-2.768-3.027 1.845-3.764 2.941-.47 3.943-1.075 3.75-2.262-.205-1.26.468-1.562 3.033-1.36 4.044.319 7.555-1.4 6.812-3.337-.3-.783-.148-1.423.339-1.423s1.039.461 1.226 1.023c.188.563 1.074.168 1.969-.877 1.803-2.106 1.442-3.039-1.904-4.912-1.889-1.057-2.713-.992-5 .393-2.637 1.596-2.627 1.56.261-.961 2.487-2.171 2.748-2.785 1.528-3.589-1.264-.833-1.229-1.063.25-1.63.947-.364 1.722-1.079 1.722-1.589 0-.534-.821-.489-1.934.107-1.064.569-3.063 1.035-4.441 1.035-1.379 0-2.785.45-3.125 1-.34.55-.19 1 .334 1s1.218.692 1.542 1.538c.77 2.007-2.29 3.208-3.462 1.358-.575-.909-.889-.979-.899-.203-.008.657.998 1.945 2.235 2.864l2.25 1.671-2.463-.576c-1.517-.355-3.114.013-4.157.956-1.923 1.741-8.502 1.548-8.17-.239.346-1.858-3.378-4.554-5.799-4.199-2.625.384-3.865 2.83-1.435 2.83.903 0 1.364.45 1.024 1-.34.55-.141 1 .441 1s1.059.73 1.059 1.622c0 1.329-.271 1.398-1.5.378s-1.5-.951-1.5.378c0 .892-.487 1.622-1.083 1.622s-.898-.558-.67-1.241c.228-.683-.145-1.8-.828-2.482-.682-.683-1.012-2.117-.732-3.187.466-1.784.001-1.931-5.587-1.768-3.352.098-6.096.515-6.097.928-.002.413-1.098.75-2.436.75-1.516 0-2.661.72-3.038 1.91-.334 1.05-1.316 2.498-2.182 3.217-1.334 1.107-1.868.948-3.477-1.039-1.266-1.564-1.581-2.732-.942-3.501 1.387-1.671-.384-4.01-2.44-3.221-1.393.535-1.482.936-.478 2.146.795.958.853 1.488.162 1.488-.59 0-1.491-.747-2.002-1.66-.83-1.484-1.051-1.432-2.084.5-.636 1.188-1.864 2.16-2.728 2.16-1.023 0-1.36.553-.965 1.582.334.87.607 1.77.607 2 0 .23.675.418 1.5.418s1.5.675 1.5 1.5c0 1.8-2.131 1.969-3.8.3-.933-.933-1.476-.924-2.442.042-.988.988-.971 1.408.084 2.06 1.049.649.978.953-.34 1.459-2.357.904-2.496.844-2.554-1.111-.045-1.483-.288-1.413-1.593.456-1.199 1.716-2.184 2.078-4.433 1.628-2.235-.447-3.052-.153-3.601 1.294-.39 1.03-1.283 2.453-1.985 3.164-1.041 1.053-1.392.832-1.901-1.193-.343-1.367-.359-2.914-.035-3.437.842-1.363-2.53-2.432-3.767-1.195-1.323 1.323-2.946 1.348-2.133.033.35-.566-.479-1-1.91-1-1.599 0-2.359.459-2.069 1.25.711 1.94-.773 3.524-3.521 3.758-3.728.318-5.415.073-4.664-.677.983-.983-2.368-4.331-4.336-4.331-2.384 0-5.573 3.612-3.811 4.317 1.06.425 1.054.54-.033.604-.739.043-1.579-.821-1.866-1.921-.288-1.1-.951-2-1.474-2-.869 0-.189-3.823.89-4.998.252-.275 1.091.368 1.865 1.427.775 1.059 1.694 1.64 2.042 1.291 1.103-1.103-.543-3.889-2.618-4.432-1.097-.287-1.995-1.089-1.995-1.782 0-.694-.685-1.83-1.523-2.525-.837-.695-1.285-2.011-.995-2.925.29-.913-.098-2.516-.862-3.562-1.227-1.677-1.828-1.766-5.131-.752-3.053.937-4.007.882-5.187-.297-1.842-1.842-3.223-1.826-5.308.061-1.446 1.308-2.045 1.322-4.579.102-5.353-2.577-7.415-2.895-7.415-1.14 0 1.284-.391 1.393-1.968.549-1.083-.58-3.446-.955-5.25-.834-3.626.243-9.062 3.64-8.441 5.275.256.674-2.916 1.067-8.973 1.113-5.75.043-9.368-.324-9.368-.95 0-.595-.501-.52-1.2.179-1.575 1.575-8.016 1.542-9.802-.05-1.114-.994-1.106-.862.042.644 1.314 1.724 1.265 1.845-.548 1.343a111.837 111.837 0 0 0-4.606-1.129c-2.161-.478-2.531-1.016-2.131-3.108.266-1.391.88-2.774 1.364-3.074 1.643-1.015.876-2.921-1.645-4.091-2.28-1.057-2.647-.9-3.995 1.706-1.035 2.002-2.51 3.062-4.876 3.506-4.142.777-6.727-.49-8.609-4.22-.785-1.555-1.544-3.004-1.687-3.22-.142-.215-.899.14-1.682.789-.783.65-3.074 1.33-5.092 1.511-4.136.371-7.404 2.593-3.815 2.593 3.169 0 5.282 1.043 5.282 2.607 0 .766.48 1.393 1.066 1.393.587 0 .924 1.221.75 2.714-.253 2.176-1.011 2.881-3.816 3.552-7.743 1.851-20.821.871-19.385-1.452.323-.523 1.24-.7 2.038-.394.81.311 1.181.121.84-.431-.336-.544-1.742-.989-3.123-.989-1.382 0-3.203-.69-4.047-1.534-.843-.844-2.274-1.304-3.178-1.023-.905.281-2.26.125-3.012-.347-1.134-.712-1.15-1.517-.092-4.727 1.448-4.399 3.452-6.291 6.709-6.337l2.25-.032-2-2c-1.1-1.1-2.389-2-2.865-2-.476 0-2.079-.955-3.562-2.121L48.842 0l-.555 2.122m4.179 4.121c-.34.55-.168 1 .382 1s1.278-.45 1.618-1c.34-.55.168-1-.382-1s-1.278.45-1.618 1m-9.5 3.563c0 1.164 2.887 3.429 3.372 2.645.274-.444-.372-1.352-1.437-2.016-1.064-.665-1.935-.948-1.935-.629m97.5 7.437c.457 1.44.18 2-.992 2-.894 0-1.334.472-.978 1.049.443.716 1.094.678 2.059-.123.776-.644 1.411-.805 1.411-.357 0 .447.637-.057 1.415-1.122 1.05-1.436 1.115-2.125.25-2.675-2.274-1.447-3.823-.845-3.165 1.228m-100.875-.292c-.314.314-.331.958-.039 1.431.702 1.136 3.414 1.111 3.414-.032 0-1.104-2.595-2.179-3.375-1.399m92.05-.05c-.689.689 1.085 3.342 2.235 3.342.365 0 .732-.9.815-2 .145-1.918-1.674-2.718-3.05-1.342m29.825 1.342c.34.55.816 1 1.059 1s.441-.45.441-1-.477-1-1.059-1-.781.45-.441 1m-7.263 1.162c-.68.681-1.237 1.85-1.237 2.597 0 .747-.343 1.147-.763.888-.419-.259-1.814.091-3.099.779l-2.338 1.251 3.611 1.714c3.497 1.659 5.589 1.491 5.589-.45 0-.518-.978-.941-2.174-.941h-2.175l2.282-2.429c2.369-2.521 2.658-5.762.304-3.409m-90.727.854c.346.559 1.047.758 1.559.441 1.387-.857 1.129-1.457-.628-1.457-.857 0-1.276.457-.931 1.016m114.99 1.984c.34.55 1.041 1 1.559 1s.941-.45.941-1-.702-1-1.559-1-1.281.45-.941 1m72.5.031c0 .533.675.969 1.5.969s1.5-.177 1.5-.393c0-.216-.675-.652-1.5-.969-.825-.316-1.5-.139-1.5.393m-67.541 3.036c-.363.586-.454 1.272-.202 1.523.697.698 3.743-.683 3.743-1.697 0-1.252-2.743-1.117-3.541.174M37.966 26.802c0 .857.457 1.276 1.016.931.559-.346.758-1.047.441-1.559-.857-1.387-1.457-1.129-1.457.628m150.667.108c-.367.366-.667 1.131-.667 1.7 0 .626.466.567 1.183-.15.651-.651.951-1.416.667-1.7-.284-.284-.817-.217-1.183.15m64.833.333c-.34.55-.168 1 .382 1s1.278-.45 1.618-1c.34-.55.168-1-.382-1s-1.278.45-1.618 1m62 0c-.34.55.084 1 .941 1s1.559-.45 1.559-1-.423-1-.941-1-1.219.45-1.559 1m-73.936.897c-.681 1.101 3.252 3.621 4.188 2.684.32-.32.056-.581-.585-.581-.642 0-1.055-.506-.917-1.125.327-1.471-1.884-2.276-2.686-.978m85.45 10.586c-1.022 1.231-.776 1.657 1.442 2.5 3.578 1.36 3.544 1.374 3.544-1.483 0-2.874-2.946-3.475-4.986-1.017m-143.014.548c0 .533.675.969 1.5.969s1.5-.177 1.5-.393c0-.216-.675-.652-1.5-.969-.825-.316-1.5-.139-1.5.393m-157 1.941c0 1.356 1.777 2.198 2.425 1.149.31-.501-.109-1.169-.931-1.485-.822-.315-1.494-.164-1.494.336m196.459 2.095c-.996 1.611.334 2.424 4.123 2.518 2.1.052 3.418-.394 3.418-1.157 0-.748-.793-1.033-2-.718-1.118.293-2 .031-2-.593 0-1.423-2.67-1.461-3.541-.05m90.976 3.038c-.304.492-.113.895.424.895.538 0 1.631.251 2.43.557.799.307 1.679-.03 1.954-.75.574-1.496-3.913-2.151-4.808-.702m-11.435.895c-2.369.759-2.329.806.75.9 1.787.055 3.25-.35 3.25-.9 0-1.13-.471-1.13-4 0m17 1.37c0 1.645 1.795 3.168 2.686 2.278.303-.304-.176-1.281-1.067-2.172-1.398-1.398-1.619-1.412-1.619-.106m-11.898.429c-.903.301-.908.729-.021 1.798 1.749 2.108 4.919 1.763 4.919-.535 0-1.854-1.761-2.308-4.898-1.263m9.048 2.151c.22.66.726 1.166 1.125 1.125 1.196-.124.964-1.495-.325-1.925-.66-.22-1.02.14-.8.8m9.917 2.47c-.947 1.14-.834 1.369.573 1.162.963-.141 1.926-.78 2.139-1.419.542-1.627-1.293-1.453-2.712.257m-25.067 9.58c0 .55.45 1 1 1s1-.45 1-1-.45-1-1-1-1 .45-1 1m-2 3c0 .55.477 1 1.059 1s.781-.45.441-1-.816-1-1.059-1-.441.45-.441 1m25.598 3.841c-.466.755 4.537 5.159 5.862 5.159 1.24 0 .406-2.811-1.289-4.345-2-1.81-3.763-2.124-4.573-.814m-3.735 4.053c.75.475.934 1.031.409 1.235-.525.204-1.221 1.946-1.546 3.871-.325 1.925-.358 2.935-.073 2.244.735-1.783 2.381-.496 1.685 1.318-.362.944-1.363 1.305-2.706.977-1.173-.286-1.569-.262-.882.054.688.315 1.25 1.211 1.25 1.99 0 .779.45 1.417 1 1.417s1-.506 1-1.125c0-.729 1.112-.903 3.162-.493 2.961.593 3.062.521 1.588-1.125-.865-.966-1.709-3.557-1.875-5.757-.292-3.865-1.282-5.469-3.375-5.469-.55 0-.387.388.363.863M34.125 82.551c-.999 1.204-.214 1.684 4.824 2.953 5.136 1.294 6.017 1.309 6.017.103 0-2.6-9.092-5.163-10.841-3.056m280.841 2.692c0 .55.702 1 1.559 1s1.281-.45.941-1c-.34-.55-1.041-1-1.559-1s-.941.45-.941 1m-306 6.059c0 .582.45.781 1 .441s1-.816 1-1.059-.45-.441-1-.441-1 .477-1 1.059m323 7.441c0 .825.177 1.5.393 1.5.216 0 .652-.675.969-1.5.316-.825.139-1.5-.393-1.5-.533 0-.969.675-.969 1.5m-3.363 7.452c-1.626.57-1.66.784-.298 1.914 1.153.958 2.044.999 3.597.168 1.135-.607 2.064-1.261 2.064-1.453 0-.794-3.666-1.224-5.363-.629m10.42.941c-1.203 2.249-.491 2.667 1.935 1.133 1.123-.71 1.208-1.226.342-2.092-.865-.865-1.427-.628-2.277.959m13.958 3.19c.009.78.46 2.092 1.003 2.917.784 1.19.924 1.041.677-.724-.357-2.558-1.703-4.315-1.68-2.193m-17.015.31c0 .216.698.661 1.552.989.89.341 1.291.173.941-.393-.587-.951-2.493-1.406-2.493-.596m-8.362 6.107c.317.825.978 1.5 1.469 1.5.491 0 .893-.675.893-1.5s-.661-1.5-1.469-1.5c-.894 0-1.243.586-.893 1.5m13.362 3c0 .825-.45 1.5-1 1.5s-1 .388-1 .861c0 .474 1.125.647 2.5.384 2.782-.532 2.736-.467 1.893-2.663-.77-2.007-2.393-2.062-2.393-.082m-12 .5c0 .55.45 1 1 1s1-.45 1-1-.45-1-1-1-1 .45-1 1m-6 2.269c-2.165.897-2.251 1.095-.644 1.477 1.021.243 2.341-.043 2.934-.636 1.612-1.612.531-2.01-2.29-.841m23.649 1.259c.355.926.07 2.028-.639 2.466-1.837 1.135-.412 6.374 1.532 5.628.973-.373 1.458.095 1.458 1.409 0 1.421-.68 1.969-2.441 1.969-1.343 0-2.719.45-3.059 1-.34.55-.093 1 .548 1s.907.675.59 1.5c-.817 2.131.215 1.874 4.558-1.136 4.298-2.978 4.357-3.13 2.339-6.01-.805-1.15-1.2-2.356-.876-2.68.323-.323.234-1.395-.199-2.381-.433-.986-.826-2.237-.874-2.779-.047-.543-.872-1.138-1.832-1.323-1.279-.246-1.575.112-1.105 1.337M25.216 142.473c-1.237.592-2.25 1.682-2.25 2.423 0 1.835 2.923 1.712 3.638-.153.857-2.233 3.025-1.813 3.872.75l.744 2.25.454-2.336c.249-1.285.305-2.466.123-2.626-1.201-1.052-4.683-1.215-6.581-.308m315.326-.107c.374.605.06 1.524-.698 2.043-1.058.723-.932.871.539.638 2.466-.391 3.139-2.377 1.073-3.169-1.011-.388-1.345-.21-.914.488m-321.576 2.936c0 .582.45.781 1 .441s1-.816 1-1.059-.45-.441-1-.441-1 .477-1 1.059m260 29.5c0 .857.457 1.276 1.016.931.559-.346.758-1.047.441-1.559-.857-1.387-1.457-1.129-1.457.628m24.5-.559c-.34.55.309 1 1.441 1 1.132 0 2.059-.45 2.059-1s-.648-1-1.441-1-1.719.45-2.059 1m-285.5 6c0 .55.45 1 1 1s1-.45 1-1-.45-1-1-1-1 .45-1 1m249.5 10c-.575.93-.104 1.131 3.292 1.411.71.059 1.646.68 2.08 1.382.944 1.528 4.128.531 4.128-1.293 0-2.357-8.173-3.648-9.5-1.5m-239.5 5c0 .55.702 1 1.559 1s1.281-.45.941-1c-.34-.55-1.041-1-1.559-1s-.941.45-.941 1m48.729 3.604c-.401.401-.729 1.419-.729 2.263 0 1.125.296 1.237 1.112.421.612-.612.941-1.631.73-2.263-.211-.632-.712-.822-1.113-.421m-47.729 4.455c0 .582-.45.781-1 .441s-1-.216-1 .274c0 1.749 1.26 2.109 2.619.75 1.631-1.631 1.766-2.524.381-2.524-.55 0-1 .477-1 1.059m31.5-.059c.34.55.816 1 1.059 1s.441-.45.441-1-.477-1-1.059-1-.781.45-.441 1m10.5 0c0 .55.45 1 1 1s1-.45 1-1-.45-1-1-1-1 .45-1 1m77.5 0c-.34.55.11 1 1 1s1.34-.45 1-1c-.34-.55-.79-1-1-1-.21 0-.66.45-1 1m-81 1c-.34.55.084 1 .941 1s1.559-.45 1.559-1-.423-1-.941-1-1.219.45-1.559 1m-1.107 3.582c.334.87.607 1.77.607 2 0 .23.679.418 1.508.418 1.259 0 1.302-.332.26-2-1.482-2.373-3.244-2.684-2.375-.418m33.607.751c0 .927.777 1.66 1.75 1.652.999-.009 1.321-.336.75-.762a12.294 12.294 0 0 1-1.75-1.651c-.413-.498-.75-.155-.75.761m44.192-.258c.197.591.785 1.075 1.308 1.075s1.111-.484 1.308-1.075c.197-.591-.391-1.075-1.308-1.075s-1.505.484-1.308 1.075m-81.655.986c.703 1.136 3.463 1.258 3.463.152 0-.433-.91-.856-2.022-.94-1.112-.083-1.76.271-1.441.788m34.963-.061c-.34.55-.141 1 .441 1s1.059-.45 1.059-1-.198-1-.441-1-.719.45-1.059 1m75.152 1.157c-4.691.682-6.437 1.392-5.566 2.262.23.23 3.667.118 7.638-.25 5.998-.556 6.843-.842 4.997-1.693-1.286-.593-4.261-.727-7.069-.319m-112.652 1.312c0 .892.587 1.243 1.494.895.822-.316 1.246-.976.941-1.469-.872-1.412-2.435-1.044-2.435.574m90.981.054c-1.057 1.273-.995 1.42.378.893.902-.347 1.641-1.032 1.641-1.523 0-1.286-.579-1.105-2.019.63m-35.981 1.536c0 .582.45.781 1 .441s1-.816 1-1.059-.45-.441-1-.441-1 .477-1 1.059m115 7.941c0 .55.45 1 1 1s1-.45 1-1-.45-1-1-1-1 .45-1 1m-53 2c1.939 1.253 3 1.253 3 0 0-.55-1.013-.993-2.25-.985-1.819.013-1.963.201-.75.985m57.5 0c.34.55 1.266 1 2.059 1 .793 0 1.441-.45 1.441-1s-.927-1-2.059-1c-1.132 0-1.781.45-1.441 1m-3.5 2.393c0 .216.675.652 1.5.969.825.316 1.5.139 1.5-.393 0-.533-.675-.969-1.5-.969s-1.5.177-1.5.393m-18 5.607c.589 1.1 1.452 2 1.919 2 .466 0 1.083-.9 1.371-2 .417-1.597.03-2-1.919-2-2.131 0-2.306.254-1.371 2m.092 7.631c-.56 2.025-.802 4.029-.54 4.453.262.425-.461 1.07-1.606 1.433-1.993.633-2.005.722-.265 2.041 1.591 1.207 2.04 1.117 3.584-.718 1.636-1.945 1.644-2.186.109-3.308-1.53-1.119-1.531-1.258-.014-1.84 1.768-.678 2.242-4.202.694-5.159-.52-.321-1.403 1.073-1.962 3.098"/>
  </svg>