<?xml version="1.0" encoding="UTF-8"?>
<svg viewBox="0 0 372 274" version="1.1" xmlns="http://www.w3.org/2000/svg" xmlns:xlink="http://www.w3.org/1999/xlink">
    <g fill="#ff70a6" fill-rule="evenodd">
        <path d="M156.352,0.289034928 C153.083,1.54003493 152.802,2.84003493 155.531,4.08303493 C157.206,4.84603493 158,6.01903493 158,7.73003493 C158,9.11603493 157.508,10.2510349 156.908,10.2510349 C156.307,10.2510349 154.671,11.1510349 153.273,12.2510349 C151.874,13.3510349 149.316,14.2510349 147.588,14.2510349 C145.859,14.2510349 143.557,14.8660349 142.473,15.6180349 C140.233,17.1700349 126.997,18.8490349 127.006,17.5810349 C127.01,17.1240349 127.682,15.4670349 128.501,13.8970349 C130.154,10.7270349 129.713,9.04003493 127.457,9.90603493 C126.375,10.3210349 126.135,9.97403493 126.566,8.61203493 C126.915,7.50603493 125.906,8.15503493 124.077,10.2130349 C122.385,12.1170349 121,13.9810349 121,14.3550349 C121,15.0740349 113.644,18.2510349 111.98,18.2510349 C111.441,18.2510349 111,17.5860349 111,16.7720349 C111,15.5630349 110.55,15.4990349 108.531,16.4190349 C107.174,17.0370349 106.269,17.8770349 106.521,18.2840349 C106.772,18.6920349 106.261,18.9630349 105.385,18.8880349 C103.519,18.7280349 100,24.6930349 100,28.0170349 C100,29.2800349 99.375,30.5540349 98.611,30.8470349 C97.811,31.1540349 97.435,32.1970349 97.724,33.3030349 C98.423,35.9750349 95.556,36.8450349 92.548,34.8740349 C87.672,31.6800349 69.356,33.3500349 71.795,36.7670349 C72.183,37.3100349 73.732,38.3890349 75.238,39.1650349 C77.264,40.2090349 77.705,40.9020349 76.935,41.8300349 C76.175,42.7450349 76.381,43.2240349 77.697,43.6030349 C78.689,43.8890349 78.15,44.0390349 76.5,43.9370349 C74.032,43.7840349 73.44,44.1750349 73.162,46.1420349 C72.902,47.9840349 73.188,48.3930349 74.412,47.9230349 C75.375,47.5540349 76,47.8400349 76,48.6510349 C76,49.5580349 75.001,49.8720349 72.894,49.6270349 C70.834,49.3870349 68.731,50.0180349 66.646,51.5030349 C64.734,52.8650349 61.938,53.7710349 59.502,53.8200349 C51.068,53.9870349 50.633,54.1040349 52.054,55.8170349 C53.178,57.1710349 53.026,57.3460349 50.927,57.1120349 C49.592,56.9640349 46.778,57.2160349 44.673,57.6730349 C42.088,58.2330349 39.98,58.0950349 38.173,57.2470349 C33.973,55.2750349 29.329,54.4280349 27.852,55.3640349 C26.853,55.9970349 26.827,56.2240349 27.75,56.2360349 C28.438,56.2440349 29,56.9260349 29,57.7510349 C29,60.2150349 22.366,59.7600349 21.71,57.2510349 C21.373,55.9630349 21.68,55.2510349 22.571,55.2510349 C23.331,55.2510349 24.66,54.1730349 25.524,52.8550349 C26.387,51.5380349 28.085,50.1810349 29.297,49.8390349 C31.387,49.2500349 31.407,49.1470349 29.697,47.8360349 C28.458,46.8860349 28.279,46.3250349 29.124,46.0430349 C29.87,45.7940349 30.031,45.1110349 29.533,44.3050349 C28.943,43.3500349 28.189,44.0510349 26.856,46.7920349 C25.835,48.8910349 25,51.0960349 25,51.6920349 C25,52.2890349 23.987,53.2210349 22.75,53.7640349 C21.513,54.3070349 20.362,55.7210349 20.193,56.9070349 C19.855,59.2760349 16.093,60.7330349 12.915,59.7240349 C11.862,59.3900349 11,59.5440349 11,60.0670349 C11,61.4420349 16.019,62.1940349 18.614,61.2080349 C20.976,60.3100349 22,61.5570349 22,65.3330349 C22,67.7320349 20.029,67.8910349 19.921,65.5010349 C19.872,64.4230349 19.448,64.8320349 18.816,66.5680349 C18.231,68.1710349 17.249,69.1770349 16.535,68.9030349 C15,68.3140349 12.55,78.2570349 13.495,81.2370349 C13.984,82.7750349 13.769,83.0990349 12.565,82.6380349 C10.92,82.0060349 10.594,83.0300349 11.605,85.6630349 C11.937,86.5300349 12.611,86.9910349 13.102,86.6880349 C13.592,86.3850349 13.558,87.2840349 13.025,88.6850349 C11.758,92.0180349 12.687,94.2460349 15.357,94.2730349 C16.536,94.2850349 18.583,95.1280349 19.906,96.1450349 C22.66,98.2630349 22.205,101.123035 18.979,101.967035 C17.024,102.478035 17.034,102.553035 19.317,104.669035 C21.361,106.563035 21.683,107.846035 21.804,114.587035 C21.981,124.387035 23.444,129.831035 26.715,132.862035 C28.331,134.361035 28.772,135.259035 27.896,135.273035 C27.069,135.286035 27.519,136.082035 29,137.226035 C31.401,139.079035 31.429,139.227035 29.714,140.953035 C28.154,142.524035 27.803,142.561035 26.946,141.251035 C26.092,139.948035 25.825,139.987035 24.907,141.545035 C24.215,142.722035 23.189,143.129035 21.926,142.727035 C20.867,142.391035 20,142.566035 20,143.116035 C20,143.666035 20.9,144.402035 22,144.751035 C23.1,145.100035 24,145.854035 24,146.425035 C24,146.997035 23.339,147.211035 22.531,146.901035 C21.723,146.591035 19.81,146.990035 18.281,147.788035 C16.751,148.586035 14.847,149.241035 14.05,149.245035 C12.895,149.250035 12.853,149.504035 13.842,150.493035 C14.731,151.382035 15.284,151.421035 15.792,150.627035 C16.181,150.019035 17.85,149.572035 19.5,149.636035 C21.466,149.711035 23.315,148.916035 24.863,147.327035 C27.028,145.107035 27.307,145.049035 28.194,146.633035 C28.924,147.938035 29.488,148.091035 30.492,147.258035 C31.339,146.555035 32.042,146.510035 32.427,147.133035 C32.76,147.672035 32.463,148.481035 31.766,148.932035 C28.182,151.249035 26.334,152.279035 24.709,152.862035 C23.724,153.216035 23.037,154.236035 23.184,155.128035 C23.33,156.021035 23.097,157.314035 22.666,158.001035 C22.164,158.802035 22.442,159.251035 23.441,159.251035 C24.298,159.251035 25,158.801035 25,158.251035 C25,157.701035 26.152,157.251035 27.559,157.251035 C29.01,157.251035 29.851,157.684035 29.5,158.251035 C29.16,158.801035 29.359,159.251035 29.941,159.251035 C30.523,159.251035 31,159.974035 31,160.858035 C31,161.948035 30.463,162.259035 29.33,161.824035 C28.411,161.472035 27.252,161.761035 26.754,162.467035 C26.036,163.485035 25.742,163.492035 25.341,162.501035 C24.552,160.556035 23,161.030035 23,163.216035 C23,164.296035 23.812,165.615035 24.804,166.146035 C26.827,167.229035 29.593,166.020035 28.636,164.471035 C28.28,163.895035 29.518,163.293035 31.541,163.056035 C34.97,162.656035 35.054,162.729035 34.625,165.698035 C34.382,167.377035 34.142,168.919035 34.092,169.123035 C34.041,169.328035 33.33,168.940035 32.512,168.261035 C31.307,167.261035 30.906,167.332035 30.405,168.638035 C30.064,169.525035 28.901,170.251035 27.82,170.251035 C26.485,170.251035 25.962,170.813035 26.19,172.001035 C26.376,172.963035 27.196,173.751035 28.014,173.751035 C28.831,173.751035 29.35,173.076035 29.167,172.251035 C28.983,171.426035 29.167,171.085035 29.575,171.492035 C29.982,171.900035 30.915,171.737035 31.646,171.130035 C33.466,169.620035 34.756,172.932035 32.986,174.568035 C31.995,175.484035 31.866,175.469035 32.412,174.501035 C32.8,173.814035 32.653,173.251035 32.084,173.251035 C31.469,173.251035 31.292,174.463035 31.648,176.239035 C32.036,178.181035 31.677,180.095035 30.623,181.704035 C29.089,184.044035 29.114,184.241035 31.064,185.285035 C32.612,186.114035 33.506,186.076035 34.641,185.134035 C35.865,184.118035 36.758,184.182035 39.327,185.468035 C41.072,186.342035 43.215,187.284035 44.09,187.561035 C46.413,188.298035 45.788,192.561035 43.184,193.738035 C41.09,194.685035 40.103,197.251035 41.833,197.251035 C42.292,197.251035 43.979,198.589035 45.583,200.223035 C47.188,201.858035 49.233,203.208035 50.129,203.223035 C51.639,203.249035 54.776,208.805035 54.238,210.501035 C53.912,211.529035 54.776,211.441035 57.066,210.216035 C59.515,208.905035 59.502,207.704035 57,204.524035 C55.9,203.125035 55,201.128035 55,200.085035 C55,199.042035 54.325,197.929035 53.5,197.613035 C51.134,196.705035 51.75,195.251035 54.5,195.251035 C56.056,195.251035 57,195.818035 57,196.751035 C57,197.713035 57.986,198.262035 59.75,198.282035 C61.518,198.303035 63.16,199.220035 64.348,200.851035 C66.343,203.589035 65.909,205.251035 63.682,203.402035 C62.075,202.068035 60.63,203.071035 61.871,204.659035 C63.328,206.523035 64.059,211.097035 63.004,211.749035 C62.452,212.090035 62,211.907035 62,211.341035 C62,210.776035 61.301,210.582035 60.446,210.910035 C59.098,211.427035 59.152,211.789035 60.852,213.629035 C62.367,215.268035 63.063,218.253035 63.912,226.751035 C64.516,232.801035 65.105,238.539035 65.22,239.501035 C65.335,240.463035 65.83,241.251035 66.321,241.251035 C66.812,241.251035 66.936,241.974035 66.597,242.858035 C66.184,243.935035 67.373,245.777035 70.204,248.443035 C75.404,253.341035 78.525,255.001035 84.145,255.859035 C89.375,256.658035 90.546,257.492035 92.645,261.916035 C94.324,265.453035 94.501,265.480035 100.75,263.142035 C102.986,262.306035 103.891,260.251035 102.023,260.251035 C100.783,260.251035 97.541,255.377035 98.286,254.632035 C98.592,254.325035 100.122,255.021035 101.686,256.177035 C103.25,257.333035 107.117,258.700035 110.279,259.215035 C113.442,259.730035 116.492,260.437035 117.058,260.787035 C117.624,261.137035 118.63,260.976035 119.294,260.429035 C121.028,259.000035 126.712,259.680035 128.796,261.566035 C129.821,262.494035 131.461,262.943035 132.67,262.627035 C133.823,262.326035 136.203,262.822035 137.958,263.729035 C139.714,264.637035 144.308,265.645035 148.167,265.968035 C154.246,266.478035 155.55,266.948035 157.923,269.487035 L160.661,272.417035 L162.463,269.667035 C164.121,267.137035 164.135,266.823035 162.632,265.724035 C161.735,265.068035 161,263.623035 161,262.513035 C161,260.099035 163.465,257.803035 165.024,258.766035 C165.98,259.357035 167.018,257.418035 167.292,254.530035 C167.399,253.397035 171.609,250.251035 173.017,250.251035 C173.802,250.251035 174.077,251.466035 173.81,253.751035 C173.52,256.234035 173.796,257.251035 174.76,257.251035 C175.507,257.251035 175.909,257.588035 175.655,258.001035 C175.4,258.414035 176.278,258.751035 177.607,258.751035 C179.282,258.751035 179.855,258.316035 179.477,257.331035 C178.727,255.375035 181.001,254.181035 183.218,255.368035 C184.223,255.905035 187.723,256.515035 190.996,256.723035 C194.268,256.930035 197.398,257.379035 197.95,257.720035 C200.709,259.425035 205.542,259.090035 207.721,257.043035 C209.885,255.011035 210.061,254.996035 211.927,256.684035 C212.998,257.654035 214.386,258.131035 215.011,257.744035 C215.636,257.358035 217.301,258.101035 218.711,259.396035 C220.476,261.018035 221.413,261.362035 221.721,260.501035 C221.966,259.814035 222.831,259.251035 223.642,259.251035 C224.454,259.251035 224.852,258.821035 224.527,258.295035 C224.202,257.769035 223.163,257.604035 222.218,257.929035 C220.884,258.388035 220.947,258.172035 222.5,256.960035 C224.468,255.425035 224.457,255.384035 221.82,254.377035 C220.346,253.814035 217.585,253.606035 215.683,253.915035 C213.77,254.225035 211.392,253.958035 210.362,253.316035 C208.612,252.225035 208.623,252.189035 210.552,252.708035 C211.681,253.012035 213.481,252.620035 214.551,251.837035 C216.424,250.468035 216.391,250.387035 213.689,249.709035 C211.908,249.262035 211.069,248.512035 211.397,247.660035 C211.68,246.920035 211.482,246.049035 210.956,245.724035 C210.43,245.399035 210,246.060035 210,247.192035 C210,248.324035 209.606,249.251035 209.125,249.251035 C207.688,249.251035 208.135,244.413035 209.625,243.841035 C210.381,243.551035 211,243.785035 211,244.362035 C211,245.017035 212.18,245.151035 214.146,244.719035 C217.019,244.088035 217.242,244.217035 216.723,246.201035 C216.364,247.576035 216.677,248.574035 217.578,248.919035 C218.36,249.219035 219,250.092035 219,250.858035 C219,252.428035 220.548,252.545035 223.5,251.197035 C225.33,250.362035 225.295,250.304035 223.093,250.517035 C221.769,250.646035 220.494,250.189035 220.26,249.501035 C220.025,248.814035 220.347,248.251035 220.976,248.251035 C221.604,248.251035 221.885,247.874035 221.601,247.414035 C220.978,246.407035 223.735,242.251035 225.025,242.251035 C225.527,242.251035 225.678,242.926035 225.362,243.751035 C225.045,244.576035 225.247,245.251035 225.81,245.251035 C226.373,245.251035 227.01,244.721035 227.226,244.074035 C227.868,242.147035 230,244.178035 230,246.716035 C230,248.626035 230.419,248.974035 232.25,248.583035 C234.444,248.115035 234.451,248.142035 232.559,249.677035 C230.814,251.092035 231.089,251.723035 233.291,251.356035 C233.725,251.283035 235.017,251.725035 236.161,252.337035 C237.839,253.235035 238.084,253.189035 237.429,252.101035 C236.769,251.004035 236.935,251.010035 238.317,252.130035 C239.403,253.012035 241.271,253.306035 243.49,252.946035 C245.4,252.636035 247.241,252.832035 247.581,253.382035 C247.955,253.987035 248.939,253.711035 250.076,252.682035 C252.154,250.802035 251.764,249.020035 249.468,249.902035 C248.661,250.211035 248,249.967035 248,249.358035 C248,248.749035 249.405,248.251035 251.122,248.251035 C253.727,248.251035 254.047,248.012035 253.049,246.810035 C252.392,246.018035 251.212,245.616035 250.427,245.917035 C249.556,246.252035 249,245.839035 249,244.858035 C249,243.835035 248.183,243.280035 246.75,243.330035 C245.513,243.373035 245.063,243.636035 245.75,243.913035 C246.438,244.191035 247,244.816035 247,245.303035 C247,245.790035 246.325,245.929035 245.5,245.613035 C243.249,244.749035 243.617,240.584035 246,239.961035 C247.3,239.621035 248,239.931035 248,240.845035 C248,241.618035 248.638,242.251035 249.418,242.251035 C250.198,242.251035 251.548,242.524035 252.418,242.858035 C253.456,243.256035 254,242.913035 254,241.858035 C254,240.092035 257.493,239.621035 258.5,241.251035 C258.84,241.801035 259.907,242.251035 260.87,242.251035 C261.834,242.251035 263.639,243.198035 264.881,244.354035 C266.311,245.687035 268.001,246.293035 269.493,246.008035 C271.039,245.712035 272.045,246.106035 272.424,247.154035 C272.742,248.032035 273.287,249.385035 273.637,250.160035 C274.089,251.161035 273.799,251.388035 272.638,250.942035 C271.738,250.597035 270.012,250.681035 268.801,251.129035 C266.614,251.938035 266.617,251.954035 269.337,253.736035 C271.991,255.475035 272.142,255.469035 274.287,253.523035 C275.504,252.419035 278.264,251.247035 280.419,250.919035 C282.575,250.590035 284.6,249.958035 284.919,249.513035 C285.239,249.069035 286.786,247.886035 288.357,246.885035 C290.424,245.568035 291.516,245.367035 292.307,246.158035 C292.908,246.759035 294.098,247.244035 294.95,247.236035 C296.201,247.223035 296.238,247.055035 295.143,246.361035 C294.314,245.836035 294.175,245.261035 294.784,244.885035 C295.332,244.546035 296.546,245.435035 297.48,246.860035 L299.178,249.453035 L301.625,245.852035 C302.971,243.871035 304.87,242.251035 305.845,242.251035 C306.82,242.251035 308.491,241.590035 309.559,240.783035 C310.626,239.975035 312.746,239.300035 314.268,239.283035 C315.791,239.265035 319.249,238.094035 321.953,236.681035 C325.957,234.587035 327.256,234.318035 328.958,235.228035 C330.835,236.233035 330.891,236.502035 329.514,237.879035 C327.429,239.965035 328.479,241.245035 332.309,241.283035 C335.162,241.311035 335.316,241.454035 333.766,242.632035 C331.937,244.020035 332.388,245.251035 334.726,245.251035 C335.525,245.251035 335.814,244.758035 335.404,244.095035 C334.89,243.264035 335.616,243.124035 337.988,243.599035 C339.802,243.961035 341.784,243.900035 342.393,243.463035 C344.395,242.025035 351.136,240.054035 351.796,240.714035 C352.151,241.069035 351.855,241.723035 351.137,242.167035 C350.174,242.761035 350.39,243.120035 351.957,243.529035 C353.699,243.985035 353.973,243.740035 353.474,242.168035 C352.824,240.120035 355.332,239.360035 356.5,241.251035 C357.501,242.871035 358.817,242.403035 359.524,240.176035 C359.886,239.034035 360.479,238.397035 360.841,238.759035 C361.462,239.380035 361.567,239.738035 361.875,242.286035 C361.96,242.988035 362.648,242.975035 364.013,242.244035 C365.496,241.450035 365.795,240.718035 365.148,239.459035 C364.665,238.520035 364.472,237.189035 364.718,236.501035 C364.965,235.814035 364.424,235.251035 363.515,235.251035 C362.076,235.251035 362.129,234.878035 363.932,232.347035 C365.069,230.749035 366.003,228.837035 366.006,228.097035 C366.01,227.357035 366.654,225.521035 367.438,224.018035 C368.222,222.515035 368.533,221.080035 368.129,220.830035 C367.724,220.581035 367.735,216.860035 368.153,212.564035 C368.57,208.267035 369.148,202.135035 369.435,198.939035 C369.723,195.742035 370.217,192.709035 370.531,192.200035 C370.846,191.691035 370.36,191.559035 369.451,191.908035 C368.514,192.268035 367.416,191.938035 366.916,191.147035 C365.935,189.597035 366.75,183.284035 368.121,181.801035 C369.596,180.207035 369.107,179.410035 366.995,179.963035 C364.375,180.648035 361.729,178.397035 362.352,176.014035 C362.651,174.869035 362.389,174.288035 361.68,174.524035 C360.534,174.906035 358,172.999035 358,171.755035 C358,171.404035 358.9,171.402035 360,171.751035 C361.645,172.273035 362,171.931035 362,169.818035 C362,166.929035 360.851,166.520035 359,168.751035 C356.851,171.340035 353.998,170.625035 354.015,167.501035 C354.024,165.989035 354.433,164.116035 354.925,163.339035 C355.498,162.432035 355.345,161.453035 354.495,160.603035 C353.398,159.506035 352.689,159.533035 350.336,160.759035 C348.776,161.573035 347.838,162.298035 348.25,162.370035 C348.662,162.442035 349.525,162.557035 350.167,162.626035 C351.98,162.820035 352.366,165.251035 350.583,165.251035 C349.713,165.251035 349,164.801035 349,164.251035 C349,163.701035 348.373,163.251035 347.607,163.251035 C346.841,163.251035 345.955,162.576035 345.638,161.751035 C345.288,160.837035 345.637,160.251035 346.531,160.251035 C347.339,160.251035 348,159.771035 348,159.184035 C348,158.597035 348.803,158.371035 349.784,158.682035 C351.041,159.082035 353.055,157.701035 356.613,154.000035 C362.049,148.345035 363.587,145.616035 361.694,144.978035 C360.795,144.676035 360.782,144.227035 361.64,143.164035 C362.267,142.387035 362.599,139.951035 362.378,137.751035 C361.877,132.763035 361.231,125.316035 361.099,123.001035 C361.041,121.971035 360.203,121.251035 359.062,121.251035 C357.741,121.251035 357.172,120.615035 357.275,119.251035 C357.358,118.151035 358.005,117.251035 358.713,117.251035 C360.779,117.251035 360.197,114.633035 357.75,112.917035 C355.825,111.567035 355.717,111.190035 357,110.310035 C358.235,109.463035 358.109,109.279035 356.281,109.266035 C354.631,109.255035 354.202,108.803035 354.607,107.501035 C355.123,105.843035 355.092,105.843035 354.023,107.507035 C353.151,108.863035 353.248,109.766035 354.447,111.479035 C356.533,114.457035 356.402,116.462035 353.989,118.529035 C350.717,121.330035 349.824,120.661035 350.357,115.809035 C350.675,112.921035 350.435,111.216035 349.673,110.937035 C348.791,110.615035 348.812,110.042035 349.756,108.630035 C351.981,105.303035 352.287,104.138035 351.217,103.068035 C350.486,102.337035 349.471,102.508035 347.862,103.635035 C344.657,105.880035 343.319,105.659035 342.593,102.764035 C341.719,99.2820349 337.492,96.5970349 335.495,98.2550349 C334.159,99.3640349 333.609,98.9860349 333.842,97.1200349 C333.885,96.7730349 333.038,95.6910349 331.96,94.7150349 C330.882,93.7390349 330,92.0970349 330,91.0650349 C330,88.6850349 327.429,87.6500349 325.499,89.2520349 C324.31,90.2380349 323.903,90.1630349 323.405,88.8640349 C322.573,86.6950349 323.713,83.9550349 325.093,84.8080349 C325.902,85.3080349 325.902,84.9360349 325.094,83.4270349 C324.487,82.2920349 323.542,81.0860349 322.995,80.7480349 C321.488,79.8160349 321.805,77.2510349 323.427,77.2510349 C324.211,77.2510349 325.082,78.0390349 325.361,79.0010349 C325.655,80.0120349 325.791,79.6950349 325.685,78.2510349 C325.537,76.2570349 324.962,75.7510349 322.839,75.7510349 C321.375,75.7510349 319.838,75.4140349 319.422,75.0010349 C319.007,74.5880349 317.729,74.2370349 316.583,74.2210349 C314.688,74.1930349 314.658,74.0980349 316.25,73.1710349 C318.573,71.8180349 318.65,68.0640349 316.336,68.9520349 C315.263,69.3640349 314.914,69.1990349 315.354,68.4870349 C315.796,67.7720349 314.994,67.4130349 313.072,67.4680349 C309.96,67.5570349 303.691,64.1870349 305.714,63.5130349 C306.36,63.2980349 306.616,62.4140349 306.284,61.5500349 C305.874,60.4800349 306.131,60.1410349 307.091,60.4900349 C307.866,60.7710349 308.388,61.5070349 308.25,62.1260349 C308.106,62.7750349 309.341,63.2510349 311.171,63.2510349 C312.915,63.2510349 315.165,63.9960349 316.171,64.9060349 C317.319,65.9440349 318,66.1190349 318,65.3750349 C318,64.7220349 317.333,63.9320349 316.518,63.6200349 C315.39,63.1870349 315.282,62.5930349 316.065,61.1300349 C316.63,60.0740349 316.82,58.7690349 316.487,58.2300349 C316.154,57.6920349 316.374,57.2510349 316.976,57.2510349 C318.298,57.2510349 316.659,53.8750349 313.899,50.9130349 C312.893,49.8320349 312.307,48.5630349 312.598,48.0920349 C312.889,47.6220349 312.41,46.9620349 311.534,46.6260349 C310.534,46.2420349 310.156,45.3350349 310.519,44.1910349 C310.971,42.7660349 310.596,42.3990349 308.799,42.5110349 C307.534,42.5900349 306.128,43.1270349 305.674,43.7030349 C305.113,44.4150349 304.685,44.3500349 304.341,43.5010349 C304.062,42.8140349 303.378,42.2510349 302.821,42.2510349 C302.264,42.2510349 300.538,41.3460349 298.986,40.2410349 C296.468,38.4480349 296,38.3940349 294.653,39.7410349 C292.626,41.7670349 292,41.6430349 292,39.2160349 C292,37.4620349 291.711,37.3350349 289.912,38.2980349 C288.303,39.1590349 287.963,40.0270349 288.428,42.0830349 C288.98,44.5260349 288.912,44.5990349 287.621,42.9550349 C286.846,41.9660349 286.43,40.3220349 286.697,39.3010349 C287.027,38.0390349 286.512,37.2310349 285.091,36.7800349 C283.941,36.4150349 283,35.6480349 283,35.0770349 C283,34.5050349 282.315,34.3000349 281.477,34.6210349 C280.639,34.9430349 279.066,34.3170349 277.977,33.2280349 C276.432,31.6830349 276.328,31.2510349 277.5,31.2510349 C278.325,31.2510349 279,31.7010349 279,32.2510349 C279,32.8010349 279.419,33.2510349 279.932,33.2510349 C281.816,33.2510349 279.503,24.6580349 277.401,23.8520349 C275.797,23.2360349 275.399,26.7610349 276.964,27.7280349 C278.806,28.8670349 274.524,31.7510349 271.008,31.7400349 C268.194,31.7310349 267.261,31.1970349 266.204,28.9900349 C265.482,27.4830349 264.24,26.2510349 263.445,26.2510349 C262.65,26.2510349 262.113,25.6890349 262.25,25.0010349 C262.395,24.2760349 261.66,23.8530349 260.5,23.9950349 C259.4,24.1290349 254.258,24.4560349 249.073,24.7210349 C239.011,25.2370349 236.186,26.4150349 239.373,28.7680349 C241.152,30.0820349 241.114,30.1840349 238.604,30.8140349 C237.152,31.1790349 234.836,31.2620349 233.458,30.9980349 C232.08,30.7350349 230.738,30.8670349 230.475,31.2910349 C230.213,31.7160349 228.986,31.7930349 227.749,31.4640349 L225.5,30.8640349 L227.926,30.2800349 C229.26,29.9590349 230.53,29.1620349 230.747,28.5100349 C231.157,27.2810349 226.549,25.6220349 224.106,26.1200349 C223.34,26.2770349 222.34,25.8080349 221.885,25.0780349 C221.245,24.0530349 220.695,24.2640349 219.469,26.0050349 C218.149,27.8780349 217.536,28.0730349 215.829,27.1590349 C214.7,26.5550349 212.691,26.2680349 211.364,26.5220349 C210.038,26.7750349 208.711,26.5930349 208.417,26.1170349 C207.624,24.8340349 202.584,25.0670349 201.2,26.4510349 C200.267,27.3840349 200,27.3290349 199.999,26.2010349 C199.999,25.3600349 198.949,24.6900349 197.499,24.6070349 C196.125,24.5270349 195,24.9130349 195,25.4640349 C195,26.0270349 194.235,26.1480349 193.25,25.7390349 C190.985,24.7990349 190.028,24.7760349 186.804,25.5850349 C184.245,26.2280349 184.097,26.0350349 182.909,20.5020349 C182.23,17.3390349 181.3,13.9970349 180.842,13.0750349 C179.43,10.2340349 171.139,5.29403493 166.707,4.65203493 C164.135,4.27903493 161.723,3.15303493 160.5,1.75503493 C158.975,0.0110349281 157.99,-0.336965072 156.352,0.289034928 M236.5,17.6180349 L230.5,20.7510349 L237.903,21.0480349 C241.975,21.2110349 245.704,20.9470349 246.19,20.4610349 C247.39,19.2610349 245.391,14.2200349 243.775,14.3680349 C243.074,14.4330349 239.8,15.8960349 236.5,17.6180349 M60.5,21.2510349 C60.84,21.8010349 61.316,22.2510349 61.559,22.2510349 C61.802,22.2510349 62,21.8010349 62,21.2510349 C62,20.7010349 61.523,20.2510349 60.941,20.2510349 C60.359,20.2510349 60.16,20.7010349 60.5,21.2510349 M61.884,27.3590349 C60.719,28.1100349 60.738,28.4070349 62,29.2360349 C63.848,30.4490349 64.133,30.4530349 65.971,29.2900349 C67.527,28.3060349 66.843,26.9920349 64.605,26.6640349 C63.87,26.5560349 62.645,26.8690349 61.884,27.3590349 M291.5,29.2510349 C291.84,29.8010349 292.316,30.2510349 292.559,30.2510349 C292.802,30.2510349 293,29.8010349 293,29.2510349 C293,28.7010349 292.523,28.2510349 291.941,28.2510349 C291.359,28.2510349 291.16,28.7010349 291.5,29.2510349 M284.633,30.7640349 C284.146,32.0330349 284.558,32.3140349 286.537,32.0670349 C289.669,31.6750349 290.252,29.8580349 287.377,29.4480349 C286.132,29.2700349 284.998,29.8150349 284.633,30.7640349 M297,30.1920349 C297,30.7100349 297.45,31.4110349 298,31.7510349 C298.55,32.0910349 299,31.6670349 299,30.8100349 C299,29.9530349 298.55,29.2510349 298,29.2510349 C297.45,29.2510349 297,29.6740349 297,30.1920349 M216,31.6340349 C216,32.5220349 220.046,32.9860349 220.558,32.1570349 C220.866,31.6590349 219.966,31.2510349 218.559,31.2510349 C217.152,31.2510349 216,31.4240349 216,31.6340349 M256,32.2510349 C256,32.8010349 256.9,33.2510349 258,33.2510349 C259.1,33.2510349 260,32.8010349 260,32.2510349 C260,31.7010349 259.1,31.2510349 258,31.2510349 C256.9,31.2510349 256,31.7010349 256,32.2510349 M86,37.2510349 C86,37.8010349 86.45,38.2510349 87,38.2510349 C87.55,38.2510349 88,37.8010349 88,37.2510349 C88,36.7010349 87.55,36.2510349 87,36.2510349 C86.45,36.2510349 86,36.7010349 86,37.2510349 M277.753,46.7390349 C278.015,48.1080349 278.628,48.9810349 279.117,48.6790349 C279.62,48.3680349 279.555,47.2880349 278.968,46.1900349 C277.568,43.5750349 277.182,43.7500349 277.753,46.7390349 M308.813,50.9340349 C309.534,51.2230349 310.397,51.1870349 310.729,50.8550349 C311.061,50.5230349 310.471,50.2870349 309.417,50.3300349 C308.252,50.3780349 308.015,50.6150349 308.813,50.9340349 M15,54.2510349 C15,54.8010349 15.702,55.2510349 16.559,55.2510349 C17.416,55.2510349 17.84,54.8010349 17.5,54.2510349 C17.16,53.7010349 16.459,53.2510349 15.941,53.2510349 C15.423,53.2510349 15,53.7010349 15,54.2510349 M56.128,55.1720349 C54.99,55.8750349 54.992,56.0960349 56.137,56.5510349 C57.087,56.9290349 56.97,57.1170349 55.75,57.1720349 C53.7,57.2650349 53.344,59.2510349 55.378,59.2510349 C57.343,59.2510349 59.519,56.3700349 58.399,55.2500349 C57.892,54.7430349 56.878,54.7080349 56.128,55.1720349 M27.361,63.7520349 C27.045,64.5770349 26.133,65.2510349 25.334,65.2510349 C24.535,65.2510349 24.165,65.7080349 24.51,66.2670349 C24.856,66.8260349 25.669,66.9550349 26.318,66.5540349 C26.968,66.1530349 28.777,65.9590349 30.339,66.1230349 C32.582,66.3580349 33.108,66.0550349 32.84,64.6840349 C32.404,62.4600349 28.136,61.7340349 27.361,63.7520349 M10,75.2510349 C10,75.8010349 10.477,76.2510349 11.059,76.2510349 C11.641,76.2510349 11.84,75.8010349 11.5,75.2510349 C11.16,74.7010349 10.684,74.2510349 10.441,74.2510349 C10.198,74.2510349 10,74.7010349 10,75.2510349 M8.188,79.3140349 C8.428,80.0350349 9.216,80.8230349 9.938,81.0640349 C10.688,81.3140349 11.063,80.9390349 10.813,80.1890349 C10.572,79.4670349 9.784,78.6790349 9.063,78.4390349 C8.313,78.1890349 7.938,78.5640349 8.188,79.3140349 M19.552,80.1930349 C18.586,81.2610349 17.99,82.7200349 18.228,83.4340349 C18.466,84.1490349 18.062,85.3320349 17.33,86.0640349 C15.891,87.5030349 15.536,90.8680349 16.75,91.5610349 C17.163,91.7960349 19.11,92.2780349 21.079,92.6330349 C24.579,93.2630349 24.648,93.2130349 24.229,90.3550349 C23.964,88.5550349 23.069,87.2410349 21.9,86.9350349 C20.855,86.6620349 20,85.9160349 20,85.2770349 C20,84.5300349 20.798,84.3700349 22.242,84.8280349 C24.256,85.4670349 24.342,85.3680349 23.085,83.8530349 C22.024,82.5750349 21.966,81.8850349 22.842,81.0090349 C23.479,80.3720349 24,79.4910349 24,79.0510349 C24,77.5550349 21.316,78.2440349 19.552,80.1930349 M7.5,84.2510349 C7.16,84.8010349 7.584,85.2510349 8.441,85.2510349 C9.298,85.2510349 10,84.8010349 10,84.2510349 C10,83.7010349 9.577,83.2510349 9.059,83.2510349 C8.541,83.2510349 7.84,83.7010349 7.5,84.2510349 M321,99.1440349 C321,100.723035 323.815,101.175035 324.386,99.6880349 C324.75,98.7390349 324.269,98.2510349 322.969,98.2510349 C321.886,98.2510349 321,98.6530349 321,99.1440349 M337,102.310035 C337,102.892035 337.45,103.091035 338,102.751035 C338.55,102.411035 339,101.935035 339,101.692035 C339,101.449035 338.55,101.251035 338,101.251035 C337.45,101.251035 337,101.728035 337,102.310035 M350,133.061035 C350,133.598035 350.713,134.310035 351.584,134.645035 C352.557,135.018035 353.015,134.795035 352.771,134.064035 C352.273,132.569035 350,131.746035 350,133.061035 M353.562,137.055035 C352.754,139.601035 353.852,142.251035 355.714,142.251035 C356.659,142.251035 356.994,141.677035 356.618,140.699035 C356.291,139.845035 356.437,139.403035 356.942,139.715035 C357.448,140.028035 358.144,139.826035 358.49,139.267035 C358.835,138.708035 358.416,138.251035 357.559,138.251035 C356.702,138.251035 356.112,137.745035 356.25,137.126035 C356.692,135.137035 354.192,135.071035 353.562,137.055035 M9,147.751035 C9,148.576035 9.661,149.251035 10.469,149.251035 C11.363,149.251035 11.712,148.665035 11.362,147.751035 C11.045,146.926035 10.384,146.251035 9.893,146.251035 C9.402,146.251035 9,146.926035 9,147.751035 M11,153.644035 C11,154.410035 11.675,155.296035 12.5,155.613035 C13.325,155.929035 14,156.787035 14,157.520035 C14,158.373035 15.248,158.851035 17.474,158.851035 C20.621,158.851035 20.809,158.698035 19.474,157.222035 C18.663,156.326035 18,155.034035 18,154.351035 C18,153.541035 17.408,153.700035 16.298,154.810035 C14.695,156.413035 14.54,156.388035 13.645,154.382035 C12.571,151.975035 11,151.537035 11,153.644035 M1,158.251035 C1,158.801035 1.45,159.251035 2,159.251035 C2.55,159.251035 3,158.801035 3,158.251035 C3,157.701035 2.55,157.251035 2,157.251035 C1.45,157.251035 1,157.701035 1,158.251035 M357.427,161.022035 C357.787,162.156035 357.613,163.372035 357.041,163.726035 C355.304,164.799035 355.874,166.251035 358.031,166.251035 C361.074,166.251035 361.602,163.461035 359.015,161.051035 L356.774,158.962035 L357.427,161.022035 M0,162.251035 C0,162.801035 0.477,163.251035 1.059,163.251035 C1.641,163.251035 1.797,163.771035 1.405,164.406035 C0.952,165.137035 1.131,165.288035 1.894,164.816035 C2.815,164.247035 2.823,163.742035 1.926,162.662035 C0.544,160.997035 0,160.880035 0,162.251035 M11.813,165.934035 C12.534,166.223035 13.397,166.187035 13.729,165.855035 C14.061,165.523035 13.471,165.287035 12.417,165.330035 C11.252,165.378035 11.015,165.615035 11.813,165.934035 M1,167.313035 C1,167.829035 1.9,168.251035 3,168.251035 C4.1,168.251035 5,167.897035 5,167.464035 C5,167.031035 4.1,166.609035 3,166.526035 C1.9,166.443035 1,166.797035 1,167.313035 M343.25,167.611035 C340.676,168.886035 340.288,170.251035 342.5,170.251035 C343.325,170.251035 344,169.801035 344,169.251035 C344,168.701035 344.675,168.251035 345.5,168.251035 C346.325,168.251035 347,167.801035 347,167.251035 C347,166.056035 346.243,166.129035 343.25,167.611035 M10.5,181.251035 C10.84,181.801035 11.316,182.251035 11.559,182.251035 C11.802,182.251035 12,181.801035 12,181.251035 C12,180.701035 11.523,180.251035 10.941,180.251035 C10.359,180.251035 10.16,180.701035 10.5,181.251035 M49,191.251035 C49,191.801035 49.45,192.251035 50,192.251035 C50.55,192.251035 51,191.801035 51,191.251035 C51,190.701035 50.55,190.251035 50,190.251035 C49.45,190.251035 49,190.701035 49,191.251035 M260,236.251035 C260,236.801035 260.675,237.251035 261.5,237.251035 C262.325,237.251035 263,236.801035 263,236.251035 C263,235.701035 262.325,235.251035 261.5,235.251035 C260.675,235.251035 260,235.701035 260,236.251035 M365.606,236.835035 C365.233,237.808035 365.456,238.266035 366.187,238.022035 C367.682,237.524035 368.505,235.251035 367.19,235.251035 C366.653,235.251035 365.941,235.964035 365.606,236.835035 M269.971,237.786035 C268.281,239.822035 269.074,240.402035 271.311,238.765035 C272.306,238.038035 272.694,237.180035 272.173,236.858035 C271.653,236.536035 270.662,236.954035 269.971,237.786035 M292.003,238.743035 C290.628,242.359035 290.746,244.251035 292.345,244.251035 C294.37,244.251035 297.223,240.646035 296.826,238.587035 C296.26,235.646035 293.142,235.747035 292.003,238.743035 M279.871,238.418035 C279.8,238.601035 279.667,239.939035 279.576,241.391035 C279.463,243.185035 279.825,243.872035 280.705,243.534035 C281.417,243.261035 282,242.410035 282,241.644035 C282,240.878035 282.034,239.925035 282.075,239.526035 C282.15,238.804035 280.117,237.782035 279.871,238.418035 M287.638,241.751035 C287.288,242.665035 287.637,243.251035 288.531,243.251035 C289.339,243.251035 290,242.576035 290,241.751035 C290,240.926035 289.598,240.251035 289.107,240.251035 C288.616,240.251035 287.955,240.926035 287.638,241.751035 M264,251.251035 C264,251.801035 264.477,252.251035 265.059,252.251035 C265.641,252.251035 265.84,251.801035 265.5,251.251035 C265.16,250.701035 264.684,250.251035 264.441,250.251035 C264.198,250.251035 264,250.701035 264,251.251035 M226,257.251035 C226,257.801035 226.423,258.251035 226.941,258.251035 C227.459,258.251035 228.16,257.801035 228.5,257.251035 C228.84,256.701035 228.416,256.251035 227.559,256.251035 C226.702,256.251035 226,256.701035 226,257.251035"></path>
    </g>
</svg>