<svg xmlns="http://www.w3.org/2000/svg" viewBox="0 0 859 764">
    <path fill-rule="evenodd" d="M209.338 1c.34.55 1.266 1 2.059 1 .793 0 1.44-.45 1.44-1s-.926-1-2.058-1c-1.132 0-1.781.45-1.441 1M151.95 2.364c-.85 1.024-.576 1.912 1.152 3.739 2.209 2.336 5.735 3.484 5.735 1.868 0-1.634-1.24-3.971-2.107-3.971-.491 0-.9.787-.908 1.75-.013 1.413-.187 1.479-.908.341-.49-.775-.678-1.967-.416-2.649.698-1.819-1.25-2.643-2.548-1.078M295.838 2c0 .55.477 1 1.059 1s.78-.45.44-1-.815-1-1.058-1c-.243 0-.441.45-.441 1m-97.591.843c-.5.361-1.408 1.557-2.017 2.657-.61 1.1-2.011 2.048-3.114 2.107-1.103.059-2.437.373-2.964.699-.526.325-2.163-.034-3.636-.798-2.466-1.279-2.678-1.234-2.678.57 0 1.591.47 1.842 2.5 1.333 2.838-.713 3.185.047 1.013 2.219-1.316 1.316-1.785 1.189-4.078-1.104-2.24-2.239-2.503-2.316-1.948-.567.983 3.098-.108 3.916-4.041 3.029-3.241-.731-3.654-.572-4.534 1.743-1.216 3.198-2.376 2.253-1.503-1.225.359-1.43 1.114-2.301 1.688-1.946.57.353 1.29-.329 1.602-1.516.327-1.252 1.117-1.945 1.88-1.651.813.311 1.117-.021.793-.865-.417-1.087-1.181-1.146-3.7-.285-1.744.596-3.485 1.56-3.868 2.142-.382.581-1.044.708-1.471.282-.426-.427-.113-1.205.696-1.729 1.229-.796 1.07-1.263-.967-2.842-3.436-2.662-5.111-1.754-3.99 2.16.492 1.711.676 3.329.41 3.594-.265.266-.482.128-.482-.306s-.681-.223-1.514.468c-.833.691-3.174 1.357-5.203 1.481-2.085.126-3.89.824-4.15 1.606-.615 1.848-4.914 5.771-10.08 9.2-3.718 2.468-4.06 3-2.885 4.5 1.198 1.53 1.156 1.563-.411.334-2.521-1.976-9.18 1.145-8.443 3.958.526 2.014-1.69 2.729-2.814.909-.34-.55-1.255-1-2.034-1-1.082 0-1.201.567-.505 2.397.5 1.319.63 2.679.286 3.022-.343.344 1.466-.15 4.02-1.097 3.657-1.355 4.412-2.003 3.547-3.046-.604-.728-.821-1.603-.481-1.943.843-.842 3.772 1.687 3.14 2.711-.278.45-.014 1.121.586 1.492 1.96 1.212-3.095 5.464-6.496 5.464-2.227 0-3.364.619-4.076 2.219-.633 1.423-2.58 2.675-5.43 3.492-2.442.7-4.895 1.727-5.45 2.281-.553.554-2.053 1.008-3.332 1.008-1.787 0-2.465.699-2.93 3.021-.331 1.661-.995 3.263-1.474 3.559-1.664 1.028-.86 2.23 1.144 1.706 1.612-.422 1.878-.17 1.33 1.258-.797 2.076.673 1.451 4.565-1.943 1.882-1.641 2.28-1.739 1.819-.45-.42 1.173-.103 1.557 1.09 1.327.925-.179 2.034-.359 2.466-.401.432-.043.304-.977-.285-2.077-1.305-2.438-.305-2.586 2.195-.324 1.42 1.286 2.127 1.402 3.029.5.647-.647 2.098-1.138 3.226-1.092 1.406.058.715.698-2.2 2.038-2.338 1.075-4.25 2.627-4.25 3.451 0 1.141.436 1.264 1.829.519 1.45-.777 1.802-.625 1.702.732-.07.941-.468 2.266-.887 2.944-.43.695-.275 1.232.356 1.232.615 0 .816.489.446 1.087-.37.598-1.522.865-2.56.593-1.04-.271-1.637-.086-1.33.412.308.497-.094 1.838-.894 2.98-.957 1.367-1.69 1.693-2.145.955-.443-.716-1.9.16-4.034 2.422-3.365 3.569-5.757 3.884-6.9.91-.312-.817-1.018-1.208-1.568-.868-.55.339-1.764.189-2.7-.334-1.172-.656-2.386-.501-3.914.5-3.134 2.053-3.717.25-.821-2.537 1.33-1.282 2.42-1.841 2.42-1.244 0 1.41 5.513.773 7.488-.866.83-.69 1.51-1.762 1.509-2.382-.004-1.441-6.987-1.642-7.027-.203-.017.591-.48.306-1.027-.633-.55-.943-1.657-1.455-2.47-1.143-.81.311-1.473.067-1.473-.542S98.513 64 99.338 64s1.5-.45 1.5-1-.307-1-.682-1c-.793 0-15.298 15.024-15.36 15.908-.021.325-1.371 2.15-3 4.054-4.241 4.963-4.045 8.998.557 11.476 2.762 1.488 3.39 2.339 2.937 3.977-1.124 4.055-2.947 6.832-7.921 12.066-5.305 5.581-7.991 9.392-7.187 10.196.716.716 5.4-2.571 6.04-4.237.305-.792 1.105-1.44 1.78-1.44s2.484-1.205 4.02-2.677c1.538-1.473 3.086-2.387 3.44-2.031.81.808-2.322 5.708-3.647 5.708-.537 0-.985.787-.994 1.75-.01.963-1.866 3.55-4.126 5.75-2.26 2.2-4.733 5.463-5.496 7.25-.763 1.787-1.862 3.25-2.442 3.25-1.156 0-.197 4.145 1.163 5.026 1.12.727-.637 3.367-1.774 2.664-.503-.311-.96 1.028-1.016 2.976-.055 1.948-.593 4.035-1.196 4.638-.795.795-1.096-.746-1.096-5.604 0-7.039-.738-7.964-3.948-4.95-2.261 2.123-2.626 3.864-1.588 7.573.434 1.553.387 3.226-.104 3.717-1.168 1.168-5.36.06-5.36-1.416 0-1.248-3.917-4.041-4.645-3.312-.248.247.246 1.146 1.097 1.998 1.734 1.733 2.085 3.14.548 2.19-.55-.34-1 .114-1 1.008 0 1.171-.56 1.449-2 .992-1.553-.493-2.235-.012-3.062 2.162-.75 1.973-.75 2.901 0 3.151.584.194 1.062 1.039 1.062 1.877 0 .903-.577 1.303-1.416.981-1.025-.394-1.75.853-2.63 4.521-.763 3.179-1.836 5.226-2.884 5.5-1.14.298-1.67 1.498-1.67 3.779 0 3.664-1.812 6.529-4.13 6.529-1.003 0-1.266-.567-.811-1.75.37-.962.866-4.362 1.102-7.555.235-3.193.857-6.608 1.382-7.588 1.179-2.203.196-6.95-1.03-4.968-.47.762-.307 1.626.39 2.069.726.462.179.767-1.391.777-2.235.013-2.605.467-2.713 3.328-.068 1.823-.813 4.635-1.655 6.25-.843 1.616-1.534 3.444-1.538 4.065-.003.62-.681 1.687-1.506 2.372-.825.685-1.5 2.398-1.5 3.808 0 1.41-.888 3.508-1.974 4.664-1.085 1.155-2.128 3.112-2.316 4.348C19.12 191.615 12.23 200 10.36 200c-.76 0-2.054-.675-2.88-1.5-2.02-2.021-2.642-1.889-2.642.559 0 1.132-.43 1.793-.956 1.468-.526-.325-.673-1.33-.327-2.233.482-1.256.218-1.483-1.125-.968-.966.371-2.022.674-2.348.674-.326 0 .355 1.012 1.513 2.25 1.73 1.849 2.143 3.675 2.315 10.25.286 10.952 1.349 12.318 13.928 17.908 1.925.855 6.133 2.418 9.35 3.472l5.85 1.917 4.192-2.829c3.022-2.039 4.953-4.477 6.915-8.726 2.915-6.314 6.84-11.3 7.452-9.464.204.611-.108 2.006-.694 3.101-1.457 2.722-1.337 3.439.458 2.75 1.267-.486 1.334-.23.397 1.521-.851 1.59-.831 2.287.084 2.852.865.535.894.943.103 1.432-.61.376-1.107 1.809-1.107 3.184 0 1.375-.382 2.264-.85 1.975-.466-.288-.886.81-.932 2.441-.046 1.631.336 2.966.849 2.966 1.433 0 1.107 3.387-.535 5.559-1.98 2.618-1.891 3.441.373 3.441 1.659 0 1.835.548 1.365 4.25-.297 2.337-.984 4.813-1.527 5.5-1.348 1.706-3.743 1.579-3.743-.198 0-2.383-4.505-6.503-7.84-7.17-1.713-.343-3.636-1.25-4.272-2.017-.88-1.059-2.677-1.237-7.505-.743-4.471.458-6.798.278-7.866-.608-1.261-1.047-1.517-.952-1.517.559 0 1-1.111 2.978-2.47 4.395-1.654 1.727-2.663 4.196-3.057 7.479-.324 2.695-1.03 5.723-1.566 6.727-.645 1.205-.625 2.484.058 3.76 1.746 3.263 1.255 7.878-.965 9.066-2.375 1.271-2.576 3.277-.5 5 1.643 1.363 2.048 6.543.583 7.449-.552.341-.523 1.994.072 4.151.544 1.971.683 5.399.308 7.618-.531 3.145-.4 3.861.598 3.245.95-.588 1.077-.3.494 1.123-1.325 3.232-1.444 8.263-.218 9.249.727.584 2.1.546 3.663-.102 2.05-.851 2.185-1.113.75-1.459-1.85-.445-2.453-2.274-.75-2.274.55 0 1-.952 1-2.115 0-2.026-.105-2.046-2.5-.477-1.375.901-2.5 1.208-2.5.682 0-.525.9-1.241 2-1.59s2-1.504 2-2.567c0-1.063.45-1.933 1-1.933s1 .653 1 1.45c0 .798.788 1.909 1.75 2.47 1.095.637 1.257 1.031.433 1.05-.845.019-1.097.726-.703 1.967.338 1.066.03 2.895-.682 4.066-1.138 1.865-1.02 2.356.965 3.983 1.245 1.021 2.712 2.006 3.26 2.188 1.007.336 2.022 3.498 2.412 7.511.117 1.202.738 2.818 1.38 3.592.642.774.856 1.718.476 2.099-.381.381-.61 3.417-.508 6.748l.184 6.057-1.95-2.341-1.95-2.34-.034 2.75c-.018 1.512-.46 2.75-.981 2.75-.573 0-.531 1.198.109 3.031.58 1.667.824 3.917.54 5-.291 1.117-.013 1.976.643 1.984.82.011.838.229.06.75-1.448.971-2.76 6.03-2.472 9.535.126 1.541-.3 3.438-.946 4.217-.692.833-1.033 3.654-.831 6.856.19 2.992-.012 5.219-.45 4.948-1.291-.802-3.633 1.704-3.04 3.252.792 2.059-4.516 1.871-6.852-.242-1.728-1.564-1.936-1.549-3.297.25-1.957 2.585-1.895 2.878.916 4.383 1.742.932 2.775 2.753 3.642 6.419.665 2.814 1.82 5.477 2.568 5.917.747.44 1.358 1.374 1.358 2.075 0 2.947 4.52 5.543 10.647 6.115 5.709.534 6.153.423 6.855-1.71l.752-2.28.458 2.366c.25 1.301 1.304 2.587 2.34 2.858 2.416.632 3.619 4.231 1.805 5.401-1.125.726-1.101 1.043.143 1.86.825.541 2.089.991 2.809 1 .72.008 1.053.429.74.934-.312.506.09 1.577.894 2.381.804.804 1.187 1.737.85 2.072-.863.864-3.293-1.345-3.293-2.994 0-1.923-1.653-1.724-2.427.292-.584 1.522.828 3.277 2.666 3.315.406.008.644 1.155.529 2.548l-.21 2.533-1.842-2.283-1.841-2.283.645 2.298c.355 1.264.152 2.892-.451 3.619-1.12 1.348-.981 3.664.409 6.889.428.993.504 3.805.169 6.25-.558 4.076.527 6.155 1.668 3.194.265-.687.43-.237.37 1-.071 1.441-.745 2.25-1.875 2.25-2.058 0-5.282 4.428-4.337 5.956.355.574 1.503 1.044 2.55 1.044 2.487 0 3.977 2.911 3.977 7.768 0 4.677-.636 5.497-3.2 4.125-1.828-.978-1.911-.735-1.46 4.285.262 2.927 1.19 6.672 2.062 8.322.872 1.65 1.588 4.013 1.592 5.25.003 1.237.456 2.25 1.006 2.25s1.014-1.013 1.03-2.25c.029-2.12.095-2.14 1.13-.356.606 1.042 1.238 3.732 1.405 5.978.168 2.247.784 4.244 1.37 4.44.586.195 1.065 1.162 1.065 2.149 0 .987.626 2.314 1.392 2.949 2.639 2.19 2.653 5.123.029 6.12-3.192 1.214-3.117 2.362.1 1.554 3.134-.787 4.403 1.635 2.076 3.962-1.993 1.993-2.081 3.854-.146 3.111.908-.348 2.496.86 4.25 3.233 1.539 2.085 3.362 3.599 4.049 3.367.688-.233 1.25.064 1.25.66 0 .596-.004 1.416-.01 1.822-.003.407-.566.789-1.25.848l-2.99.261c-1.033.09-1.75.972-1.75 2.152 0 2.363 2.522 2.688 3.386.437.33-.86 1.053-1.284 1.607-.941.554.342 1.007.16 1.007-.406 0-.565.742-.742 1.65-.394 1.38.53 1.54.157.987-2.282l-.661-2.914 2.58 3c1.419 1.65 2.924 3.859 3.343 4.909.94 2.352.198 6.769-1.01 6.022-.486-.3-.434.635.114 2.077s.997 4.099.997 5.903c0 3.787 1.92 8.056 5.205 11.572 2.475 2.649 6.147 10.014 4.996 10.021-.386.003-.777 1.519-.871 3.369-.093 1.85-1.548 5.948-3.233 9.105-1.685 3.158-3.817 8.131-4.738 11.051l-1.673 5.309 2.617 3.11c1.44 1.711 2.907 4.654 3.26 6.54 1.16 6.181 3.268 11.027 4.629 10.64 5.702-1.621 5.457-1.639 3.558.263-2.286 2.288-2.208 3.175.444 5.032 1.679 1.176 2.204 2.57 2.235 5.932l.04 4.394 5.843.132c5.32.121 5.703-.009 4.268-1.444-2.217-2.217-2.864-5.56-1.68-8.675.844-2.219 1.64-2.668 4.806-2.71 2.087-.027 5.144-.186 6.794-.353 1.676-.17 4.985.692 7.5 1.954 2.475 1.241 5.898 2.211 7.606 2.154 1.708-.057 3.59.196 4.18.561.592.366 2.298-.468 3.79-1.852 2.825-2.617 4.898-3.177 5.88-1.588.315.51-.358 1.224-1.497 1.585-1.138.361-1.892 1.181-1.676 1.822.385 1.142 1.303 1.344 7.074 1.559 1.897.07 2.69.54 2.36 1.398-.71 1.851 1.9 5.027 4.452 5.416 1.196.183 2.837.885 3.648 1.562.81.676 3.772 2.355 6.579 3.73s5.16 3.063 5.229 3.75c.069.688.18 1.7.25 2.25.069.55.8 1 1.625 1s2.297.788 3.272 1.75c.974.962 2.887 2.488 4.25 3.391 4.708 3.117 1.412 2.722-5.871-.704-4.02-1.89-7.835-3.439-8.48-3.441-.644-.002-3.366-1.118-6.05-2.48-2.683-1.361-5.271-2.233-5.75-1.936-1.75 1.081-.8 3.35 2.129 5.079 1.65.975 3 2.463 3 3.307 0 .919.975 1.59 2.43 1.674 2.6.149 15.57 8.063 15.57 9.499 0 .474.494.861 1.099.861 2.358 0 7.858 3.288 8.41 5.028.32 1.01 2.628 3.034 5.128 4.499 2.939 1.723 5.047 3.867 5.967 6.068.783 1.873 1.867 3.405 2.409 3.405 1.71 0 1.07 3.532-1.052 5.811-1.121 1.204-2.921 2.189-4 2.189-2.452 0-2.46 1.824-.017 4.75 2.199 2.636 3.349 2.807 5.056.75 1.469-1.771 6.262-1.965 9.234-.375 2.8 1.499 14 1.435 17.708-.101 1.628-.674 3.668-2.306 4.532-3.625 2.025-3.09 4.555-3.227 3.765-.204l-.574 2.195 2.356-2.195c1.296-1.207 2.72-2.195 3.168-2.195.446 0 .81-.499.81-1.108 0-.683-.96-.868-2.5-.481-2.855.716-3.156-.178-1-2.97 1.486-1.921 1.516-1.921 3 0 1.262 1.632 1.5 1.681 1.5.309 0-2.836 1.568-2.759 5.088.251 1.877 1.605 2.963 2.974 2.413 3.042-.55.068-2.012.236-3.25.373-1.237.137-2.52.52-2.85.85-1.157 1.158.62 2.541 2.6 2.023 1.163-.303 2-.03 2 .653 0 .647.43.91.956.585.526-.325.703-1.252.393-2.059-.385-1.004.102-1.468 1.544-1.468 2.655 0 2.654-.789-.007-3.622l-2.115-2.251 2.115.553c1.162.304 2.114.959 2.114 1.456 0 .496 1.125.62 2.5.275 2.02-.507 2.5-.257 2.5 1.303 0 1.283 1.478 2.67 4.4 4.129 4.496 2.245 6.433 4.701 4.294 5.441-.657.227-1.98-.757-2.937-2.186-.96-1.429-1.747-2.272-1.75-1.873-.004.399-1.056.327-2.338-.161-2.063-.784-2.474-.492-3.566 2.529-.68 1.878-.951 4.31-.604 5.405.485 1.526.267 1.85-.934 1.389-1.247-.479-1.565.154-1.565 3.113 0 2.986.312 3.594 1.593 3.103 1.062-.408 1.767.056 2.116 1.393.66 2.524 1.756 2.521 5.316-.014 1.888-1.344 3.059-1.655 3.506-.932.369.598 1.3.845 2.07.55.822-.316 1.399.092 1.399.99 0 .9-.474 1.235-1.155.815-.733-.454-.882-.274-.408.493.41.664 1.234 1.045 1.829.847 1.392-.464 6.87 5.227 6.15 6.39-.871 1.41 1.735 3.317 6.584 4.819 2.475.767 4.928 1.766 5.45 2.22.523.454 2.21.826 3.75.826s2.8.473 2.8 1.051c0 .98 6.27 4.214 8.5 4.382.55.042 2.05.673 3.333 1.401 1.87 1.062 3.31 1.091 7.25.146 2.704-.649 4.917-1.542 4.917-1.986 0-1.453 4.89 1.458 5.889 3.506.919 1.883.98 1.858 1.043-.429.038-1.336.609-3.925 1.27-5.753.983-2.718 1.576-3.201 3.25-2.647 1.126.373 3.06.69 4.298.704 2.49.028 2.676.418 1.25 2.625-.646 1-.974 1.083-.985.25-.008-.687-1.156-1.25-2.55-1.25-2.225 0-2.405.244-1.465 2 .589 1.1 1.73 2 2.535 2 .806 0 1.465.605 1.465 1.345 0 1.897 3.657 4.985 4.953 4.184.594-.367.879-.992.633-1.389-.245-.397 1.098-.542 2.984-.322 2.07.242 3.43.952 3.43 1.791 0 .772 1.002 1.397 2.25 1.405 1.238.007 3.375.237 4.75.511 2.302.458 2.282.41-.25-.597-2.665-1.061-3.781-2.928-1.75-2.928.55 0 1.029-.788 1.063-1.75.048-1.308.298-1.166.992.564.533 1.329 1.403 2.021 2.043 1.625.784-.484.713-.944-.241-1.549-.923-.584-.973-.864-.157-.875.66-.008 1.659.773 2.22 1.735.984 1.69 1.155 1.483 1.445-1.75.195-2.173 3.847-2.366 8.283-.437 2.118.921 5.202 1.977 6.852 2.345 1.838.41 3.775 1.899 5 3.842 1.1 1.745 2.554 3.19 3.23 3.211.678.022 1.507 1.276 1.844 2.789 1.254 5.637 1.714 6.597 4.29 8.959 1.45 1.33 4.573 3.321 6.94 4.425 2.367 1.104 4.804 3.107 5.417 4.451.844 1.854 1.616 2.29 3.196 1.805 2.888-.885 3.037-1.139 1.649-2.811-.671-.808-1.072-2.463-.893-3.679.53-3.581 5.714-4.695 20.12-4.324 9.4.242 12.71.015 12.722-.874.01-.845.234-.875.75-.102.404.605 1.816 1.67 3.137 2.367 2.137 1.127 2.328 1.076 1.738-.462-.522-1.362-.29-1.571 1.099-.988.968.407 2.886.947 4.26 1.2 2.415.444 2.397.387-.5-1.651-1.65-1.161-3.882-1.893-4.962-1.626-1.08.266-2.655-.113-3.5-.843-1.811-1.563-9.037-2.857-9.037-1.617 0 .469.563 1.08 1.25 1.358.705.284.437.539-.617.583-1.46.062-1.735-.412-1.263-2.171.33-1.238.609-2.639.616-3.113.008-.475 1.476-.563 3.264-.194 1.788.368 4.375.608 5.75.533 4.9-.268 6.567-.126 11.85 1.005 4.723 1.012 5.582.938 7.312-.628 1.156-1.046 2.243-1.379 2.649-.813 1.217 1.695 3.189 1.516 3.183-.29-.004-.962-.635-2.956-1.404-4.429-2.065-3.957.632-5.457 3.912-2.176 1.329 1.329 1.39 1.807.322 2.485-.925.587-.962.844-.124.855.66.008 1.673-.772 2.25-1.735.958-1.597 1.136-1.608 2.028-.128.899 1.49 1.45 1.494 6.75.042 3.175-.869 6.364-2.392 7.088-3.385 2.566-3.52 8.287-5.611 13.267-4.848 3.479.532 4.584.384 4.584-.615 0-.724-.84-1.316-1.865-1.316-1.026 0-2.113-.647-2.416-1.437-.615-1.603-2.918-1.091-5.651 1.257-.97.834-2.553 1.575-3.517 1.646-.964.071-2.301.467-2.97.881-.67.414-3.587.945-6.483 1.182-2.896.236-6.165.599-7.265.807-1.1.207-1.5.196-.888-.026.61-.222 1.96-2.177 3-4.345 2.048-4.275 4.996-5.214 7.745-2.465 1.864 1.863 2.643 1.902 2.643.13 0-.884 1.614-1.552 4.549-1.883 2.503-.282 4.763-.726 5.024-.987.95-.95-.78-3.626-2.404-3.721-2.116-.123-7.807-.126-11.556-.006-3.223.104-5.884-1.693-3.53-2.383.779-.229 5.16-1.594 9.736-3.033 8.733-2.747 13.18-3.293 13.18-1.617 0 .55.81 1 1.8 1s2.384.562 3.096 1.25c1.043 1.006 1.593.811 2.822-1 1.783-2.628 4.408-2.87 7.703-.71 1.338.876 3.815 1.389 5.752 1.191 4.04-.415 6.502-1.696 5.02-2.612-.65-.402-.458-1.357.528-2.625 1.23-1.584 1.426-1.637.952-.259-.512 1.486-.325 1.565 1.3.55 1.044-.652 1.708-1.494 1.474-1.872-.233-.377.246-1.242 1.065-1.922 1.21-1.005 1.489-.944 1.489.324 0 2.133 7.635 2.059 11-.107 1.375-.885 4.45-2.602 6.835-3.815l4.335-2.207-.604 2.407c-.332 1.324-.213 2.407.266 2.407 1.695 0 7.677-2.341 8.273-3.238.78-1.174 7.505-.556 7.055.648-.186.501.408 1.329 1.322 1.84 1.177.659 2.229.417 3.606-.829 1.784-1.615 2.045-1.626 3.178-.14 1.13 1.485 1.417 1.469 3.426-.194 1.557-1.288 2.019-2.476 1.595-4.098-.562-2.149-.675-2.178-1.911-.488-1.084 1.481-1.581 1.573-2.845.525-2.13-1.768-1.91-3.026.528-3.026 1.199 0 1.785-.444 1.402-1.063-.957-1.548 2.295-4.725 5.574-5.445 1.555-.341 3.363-1.267 4.018-2.056.656-.79 1.677-1.436 2.269-1.436.727 0 .702.376-.075 1.153-.8.8-.847 1.726-.152 3.024.739 1.381.596 2.275-.547 3.418-.851.851-1.548 1.966-1.548 2.476 0 .511-1.098.929-2.441.929-3.317 0-3.914 1.369-1.535 3.521 1.087.984 1.976 2.391 1.976 3.128 0 1.563 3.15 1.301 5.244-.437 1.79-1.485 2.756-.603 2.756 2.518 0 1.683.52 2.343 1.75 2.218 3.232-.329 3.569.042 1.807 1.989-.964 1.065-1.457 2.415-1.096 3 .936 1.515 3.539 1.317 3.539-.268 0-.732 1.125-1.933 2.5-2.669 2.98-1.596 3.343-3.402.5-2.5-1.347.427-2 .18-2-.758 0-2.31 4.255-5.451 8.384-6.189 3.357-.6 3.798-.47 3.249.96-.414 1.079-.2 1.5.616 1.21.688-.244 1.147-1.389 1.02-2.545-.17-1.536.187-1.94 1.325-1.504.989.38 1.47.092 1.323-.788-.408-2.433 1.339-5.272 5.93-9.636 4.259-4.048 5.447-4.721 7.598-4.304 2.056.399 5.302-2.197 4.86-3.886-.338-1.294.65-2.153 3.905-3.396 2.396-.915 4.952-1.664 5.68-1.664.728 0 1.082-.629.787-1.399-.38-.992.46-1.515 2.893-1.799 3.584-.418 4.62.527 1.777 1.619-1.506.577-1.491.753.162 1.962 2.293 1.677 1.315 4.617-1.537 4.617-1.161 0-1.811.452-1.462 1.016.346.559.998.788 1.45.509.452-.279 1.582.653 2.51 2.072 2.122 3.236 5.675 2.631 9.913-1.688 2.653-2.704 4.596-3.643 8.825-4.263 1.912-.281 4.792-2.546 4.792-3.768 0-1.487-3.028-.969-3.638.622-.908 2.366-2.362 1.75-2.362-1 0-1.833-.533-2.5-2-2.5-1.1 0-2-.45-2-1s-.693-1-1.54-1c-1.266 0-1.31-.247-.25-1.393.866-.936 1.843-1.1 2.974-.5.927.491 2.667.893 3.867.893 1.679 0 2.063.454 1.667 1.97-.495 1.894-.426 1.903 1.78.25 2.408-1.804 2.383-3.22-.057-3.22-1.853 0-1.854-3.06-.003-5.559 1.42-1.918 1.456-1.917 2.968.059.842 1.1 1.576 1.55 1.63 1 .056-.55.265-2.233.464-3.739.223-1.696-.208-3.058-1.133-3.575-1.321-.74-1.318-.982.026-2.097 2.384-1.978 3.749-.277 3.414 4.255-.273 3.699-.051 4.192 2.025 4.486 1.379.196 2.809 1.422 3.5 3 .999 2.283 1.749 2.657 5.176 2.579 5.608-.128 9.586-2.48 10.896-6.442.603-1.824 1.659-3.501 2.346-3.725 1.749-.572 1.559 1.306-.321 3.187-1.43 1.428-1.384 1.571.5 1.571 1.3 0 2.077-.651 2.086-1.75.013-1.496.157-1.532.985-.25.862 1.333.984 1.333 1.103 0 .074-.825.11-1.748.082-2.051-.03-.303.818-1.094 1.88-1.758 1.528-.954 1.94-.943 1.965.051.017.692.519.417 1.117-.611 1.07-1.844.473-2.747-2.647-4-.55-.221-.143-1.061.905-1.866 1.469-1.13 1.759-2.197 1.265-4.665-.381-1.907-.26-2.964.302-2.618.537.333.777-.715.558-2.441-.262-2.071.146-3.333 1.294-4.002.976-.57 1.154-.991.426-1.009-.687-.016-1.25-.732-1.25-1.589s-.457-1.276-1.016-.931c-.56.346-.758 1.047-.441 1.559.316.512.072.931-.543.931s-.896.359-.625.798c.793 1.283-1.045 3.524-2.271 2.766-.776-.479-.617-1.194.519-2.33 1.518-1.518 1.477-1.71-.555-2.617-1.656-.739-2.051-1.548-1.612-3.298.477-1.902.174-2.334-1.687-2.401-1.888-.067-1.681-.342 1.23-1.636 2.358-1.047 3.017-1.726 2.019-2.079-.815-.289-2.09-1.131-2.831-1.873-.741-.742-1.852-1.037-2.468-.656-.81.5-.787.803.08 1.092.66.221 1.2 1.054 1.2 1.853 0 1.125-.434 1.219-1.933.416-2.846-1.523-3.006-1.337-1.74 2.019.82 2.174 1.66 2.921 2.914 2.594.968-.254 1.76-.053 1.76.446 0 .498-.45.906-1 .906s-1.036.788-1.08 1.75c-.046 1.045-.281 1.247-.582.5-.278-.688-1.122-1.25-1.876-1.25-2.07 0-6.462-4.818-6.462-7.087 0-1.098.928-2.99 2.062-4.205 1.555-1.665 1.897-1.778 1.393-.458-.743 1.942.59 2.274 3.309.823.955-.51 2.555-1.183 3.555-1.495 1.363-.426 1.643-1.133 1.118-2.823-.386-1.24-1.092-2.405-1.57-2.588-1.853-.712-.75-2.37 1.232-1.851 1.154.301 1.858.308 1.564.013-.295-.294-.106-1.664.419-3.045.897-2.358.795-2.47-1.67-1.851a6.279 6.279 0 0 1-4.885-.823c-3.42-2.241-3.433-11.387-.026-17.202 1.374-2.345 2.499-5.462 2.499-6.927 0-1.598 1.4-4.299 3.5-6.752 1.925-2.249 3.5-4.669 3.5-5.378 0-.731.645-1.041 1.492-.716.85.327 1.755-.116 2.107-1.031.338-.882 1.129-1.617 1.758-1.632.629-.015 2.493-1.437 4.143-3.159 1.913-1.997 2.366-2.904 1.25-2.504-.962.346-1.75.411-1.75.146 0-1.251 2.814-5.104 5.75-7.875 1.788-1.686 3.25-3.632 3.25-4.323 0-.691.46-1.257 1.025-1.257.563 0 1.452-1.125 1.975-2.5.523-1.375 1.418-2.5 1.99-2.5.572 0 3.058-1.962 5.525-4.359 3.542-3.443 4.493-5.072 4.52-7.75.023-2.031.975-4.538 2.376-6.251 2.244-2.743 2.673-2.856 10.467-2.742 6.989.102 8.368-.162 9.847-1.889.946-1.105 2.114-2.009 2.596-2.009 2.327 0 7.54-3.362 8.013-5.168.292-1.118.954-1.772 1.47-1.453.518.32 3.668-2.375 7-5.988 6.014-6.518 6.099-6.567 10.82-6.23l4.759.339.838-3.967c1.526-7.223 8.234-11.289 10.779-6.533.86 1.606.76 2-.504 2-.866 0-3.432 1.839-5.703 4.087-3.22 3.189-3.821 4.277-2.733 4.95.88.544 1.986.326 2.998-.59.883-.798 1.96-1.113 2.397-.699.437.414.477-.278.089-1.537-.637-2.074-.457-2.227 1.916-1.632 1.595.401 2.506.26 2.329-.361-.16-.56 0-.95.356-.868.355.083 1.592-.707 2.75-1.755s2.105-1.395 2.105-.772 1.839-.863 4.086-3.301c2.248-2.438 3.83-4.849 3.516-5.357-.314-.508.609-2.103 2.05-3.544 2.364-2.364 2.376-3.117.044-2.722-.442.075-1.486-.546-2.321-1.381-1.357-1.357-1.24-1.518 1.106-1.518 2.015 0 2.865-.695 3.669-3 1.52-4.36 3.532-3.79 2.908.823-.104.764.586 1.197 1.63 1.025.997-.164 2.4.071 3.122.523 1.03.646.923 1.114-.5 2.193-1.722 1.306-1.724 1.374-.03 1.404.98.018 2.042-.643 2.358-1.468.317-.825 1.626-1.5 2.91-1.5 1.284 0 2.659-.526 3.057-1.17.486-.787.178-.961-.941-.531-1.224.469-1.706.051-1.822-1.58-.29-4.044.186-6.093 1.836-7.916 1.982-2.19 3.472-2.358 2.684-.303-.823 2.144 1.009 1.852 3.138-.5 1.817-2.007 1.497-2.383-1.75-2.052-.962.098-1.75-.301-1.75-.885 0-.585 1.125-1.063 2.5-1.063s2.5.423 2.5.94c0 .737 3.677.846 5.872.174.205-.063-.204-.809-.91-1.66-.705-.85-1.848-1.328-2.54-1.063-2.475.95-2.44-2.679.059-5.955 3.13-4.105 3.133-4.808.019-7.257-1.375-1.082-2.5-2.384-2.5-2.893 0-.509-1.505-2.695-3.345-4.856-1.84-2.162-3.153-4.492-2.917-5.18.5-1.461 4.262-1.709 4.262-.281 0 .532.666.712 1.48.4 1.036-.397 1.352-1.586 1.05-3.948-.43-3.353 1.59-8.967 2.794-7.763.345.345 1.2.151 1.902-.43 1.197-.994 1.85-1.228 3.429-1.228.36 0-.202-.966-1.25-2.146-1.37-1.544-1.554-2.269-.655-2.583.687-.241 1.25-1.263 1.25-2.271 0-1.009.916-3.972 2.037-6.585 2.109-4.922 1.617-6.453-2.037-6.336-.825.026-.375.517 1 1.089 2.382.993 2.405 1.081.5 1.867-3.337 1.376-4.255 1.078-4.927-1.601-.433-1.724-1.208-2.455-2.36-2.227-1.305.259-1.676 1.28-1.558 4.285.086 2.17.648 4.109 1.25 4.31 1.65.55 1.314 3.198-.405 3.198-.833 0-1.5-.889-1.5-2 0-1.1-.344-2-.763-2-.943 0-3.432-10.138-2.675-10.895.3-.301 1.007.115 1.569.924.866 1.247.962 1.251.63.026-.215-.795.156-3.038.825-4.984 1.137-3.305 1.47-3.521 5.065-3.277 3.229.219 3.605.055 2.337-1.017-2.234-1.887-3.606-5.705-3.866-10.758-.127-2.465-.942-5.268-1.812-6.229-1.444-1.596-1.44-1.803.054-2.376 3.855-1.479.806-6.115-3.114-4.735-1.397.491-1.507.353-.547-.685.707-.764.876-1.959.408-2.897-.437-.878-.896-3.9-1.02-6.714-.17-3.847.16-5.265 1.325-5.712 1.156-.444 1.392-1.43.929-3.883-.691-3.669-3.138-7.034-4.502-6.191-1.272.786-6.707-1.801-7.361-3.504-.302-.788-.042-1.747.578-2.13.805-.497.643-1.636-.562-3.966-1.432-2.771-1.492-3.64-.39-5.698 1.09-2.039 1.066-2.577-.154-3.349-1.261-.797-1.254-.925.046-.965 1.183-.036 1.13-.261-.25-1.065-.962-.561-1.75-1.672-1.75-2.47 0-.797-.9-2.35-2-3.45s-2-2.675-2-3.5c0-.825-.788-1.464-1.75-1.421-1.045.047-1.247.282-.5.583 2.312.933 1.276 2.383-1.25 1.749-1.891-.475-2.5-.236-2.5.981 0 .884.788 1.638 1.75 1.676 1.42.055 1.337.267-.44 1.126-1.856.897-2.573.62-4.71-1.818-1.481-1.692-2.302-3.596-1.992-4.626.29-.962.043-1.75-.55-1.75-.713 0-.651-.757.184-2.25 1.768-3.162 2.879-3.755 4.954-2.645 1.199.641 1.804.618 1.804-.07 0-.569-.675-1.035-1.5-1.035-1.965 0-1.943-1.76.027-2.177 1.183-.25.827-1.17-1.572-4.073-3.303-3.995-4.955-4.726-4.955-2.191 0 .857.419 1.3.93.984.513-.317 1.214-.118 1.56.441.345.559.15 1.016-.431 1.016-.582 0-1.06.675-1.06 1.5s-.407 1.5-.905 1.5c-.5 0-.685-.849-.413-1.887.27-1.038.004-2.19-.594-2.559-.598-.37-1.087-1.515-1.087-2.546 0-1.03-.9-2.159-2.001-2.508-2.62-.832-4.28-4.04-3.447-6.663.444-1.399.297-1.862-.445-1.403-.61.376-1.107 1.61-1.107 2.742 0 1.513-.492 1.929-1.858 1.571-1.022-.267-2.66-.037-3.637.51-1.226.686-1.577.668-1.128-.059.359-.58-.261-1.344-1.377-1.698-2.485-.789-1.72-2.501.82-1.837 2.467.645 5.144-2.449 3.173-3.667-.897-.554-1.823-.266-2.654.826-1.135 1.493-1.28 1.383-1.307-.999-.02-1.58-.981-3.425-2.347-4.5-1.273-1.003-3.094-3.015-4.048-4.472-.954-1.457-3.063-3.199-4.686-3.871-1.623-.673-2.951-1.516-2.951-1.874 0-.358-1.545-1.483-3.434-2.501-1.89-1.017-4.13-3.257-4.977-4.977-.85-1.72-1.554-2.721-1.566-2.223-.013.498-.895.116-1.96-.848s-2.415-1.457-3-1.096-1.07.068-1.078-.652c-.011-.953-.283-.901-1 .191-.876 1.333-1.094 1.333-1.97 0-.541-.825-.991-2.042-1-2.705-.008-.662-1.14-2.329-2.515-3.704-1.375-1.375-2.5-2.071-2.5-1.546 0 .525-.675.955-1.5.955s-1.5-.822-1.5-1.826c0-1.946-3.908-6.174-5.707-6.174-.594 0-1.338-.675-1.655-1.5-.894-2.331-2.52-1.765-1.887.656.437 1.671.247 1.961-.842 1.288-.774-.478-2.98-.886-4.904-.907-2.674-.028-3.5-.457-3.501-1.82-.005-2.181-2.168-3.66-5.504-3.765l-2.5-.079 2.324-.932c1.49-.597 3.015-.562 4.25.099 1.55.829 1.926.699 1.926-.671 0-.937-.301-1.401-.67-1.033-.367.367-1.483-.07-2.48-.972-1.376-1.245-2.14-1.368-3.173-.511-1.776 1.474-2.996.236-1.52-1.542.88-1.062.708-1.7-.76-2.81-3.024-2.291-4.885-1.389-2.355 1.141.724.724.598 1.412-.411 2.249-.988.82-1.66.871-2.101.158-.356-.577-.146-1.049.467-1.049s0-1.012-1.36-2.25c-1.362-1.238-2.767-3.262-3.124-4.5-.55-1.909-.266-2.25 1.87-2.25 1.385 0 2.877.607 3.317 1.348.44.742 2.488 1.614 4.55 1.937 3.227.507 3.75.324 3.75-1.316 0-1.284-.49-1.718-1.5-1.331-1.091.419-1.5-.117-1.5-1.964 0-3.026-2.924-4.32-6.02-2.664-1.831.981-2.62.573-6.287-3.255-2.306-2.407-4.614-4.349-5.13-4.315-.514.033-1.31-1.38-1.765-3.141-.805-3.105-2.798-5.497-2.798-3.358 0 1.838-1.837 1.147-2.5-.941-.35-1.1-1.392-2.014-2.317-2.032-.926-.017-2.537-.678-3.58-1.468-1.044-.79-2.275-1.203-2.736-.918-.462.286-2.758-1.337-5.103-3.606-4.154-4.018-9.782-7.162-12-6.703-.605.125-1.66-.846-2.342-2.158-.683-1.312-1.82-2.742-2.525-3.178-1.98-1.224.498-5.747 3.569-6.518 2.79-.7 3.387-2.878 1.034-3.781-.825-.316-1.5-1.264-1.5-2.107 0-2.02-.624-1.935-4.13.561-2.68 1.909-3.373 1.987-7.946.89-5.616-1.348-14.102-.641-19.527 1.626-3.29 1.374-3.631 1.315-6.93-1.2-1.906-1.455-3.467-3.273-3.467-4.04 0-.767-2.475-2.527-5.5-3.911s-5.5-2.901-5.5-3.371c0-1.37-4.924-4.214-7.832-4.524-1.473-.157-2.668-.907-2.668-1.673 0-.764-1.125-2.146-2.5-3.071-2.231-1.502-3.114-1.539-8.214-.349-5.371 1.254-5.75 1.22-6.317-.568-.758-2.387-3.445-2.502-3.54-.151-.057 1.432-.193 1.478-.75.25-1.5-3.311-3.731-6-4.98-6-.724 0-1.058-.419-.742-.931.317-.512.11-1.218-.457-1.569-.568-.351-.777-1.052-.464-1.558.312-.505-.13-.651-.984-.324-.93.357-1.558.052-1.567-.761-.013-1.136-.157-1.134-.881.009-.591.932-1.385 1.076-2.498.453-1.472-.824-1.43-1.131.43-3.128 1.94-2.081 1.956-2.249.264-2.775-3.531-1.099-4.804-2.15-5.113-4.221-.303-2.032-1.618-2.815-6.21-3.699-1.2-.231-2.753-.895-3.452-1.475-.7-.581-2.077-.746-3.062-.368-1.23.472-1.564.32-1.068-.483 1.055-1.707-.932-1.433-2.395.33-1.512 1.821-4.644 1.968-5.338.25-.403-1-.52-1-.583 0-.127 2.018-2.552 1.44-5.03-1.198-1.265-1.347-3.594-2.732-5.175-3.08-2.496-.548-3.225-1.371-3.075-3.472.019-.275-1.84-.407-4.132-.292-5.175.258-9.411-1.327-10.201-3.816-.33-1.04-1.45-1.892-2.486-1.892-1.037 0-3.03-.521-4.43-1.159-2.114-.963-2.875-.857-4.522.634-1.09.986-1.74 2.182-1.445 2.659.294.476-.136.866-.957.866-.82 0-1.784-.924-2.143-2.053-.52-1.639-.936-1.816-2.067-.877-1.177.977-1.416.563-1.416-2.448 0-2.389-.463-3.622-1.361-3.622-.898 0-1.205.817-.903 2.399.389 2.034-.033 2.507-2.772 3.109-2.367.52-2.861.943-1.847 1.585 1.783 1.13 1.127 1.124-2.874-.023-2-.574-3.243-.574-3.243 0 0 .511-.477.93-1.06.93-.581 0-.78-.45-.44-1s-.282-1-1.382-1c-1.1 0-2.245-.396-2.543-.879-.3-.484-1.492-1.127-2.65-1.43-1.806-.473-2.022-.213-1.512 1.818.327 1.302.152 2.642-.39 2.976-1.796 1.111-5.023-1.471-5.023-4.02 0-1.86-.552-2.489-2.25-2.565-2.151-.095-2.14-.133.25-.862 2.197-.67 2.282-.855.707-1.524-1.69-.717-1.695-.87-.095-2.638 1.004-1.11 3.04-1.876 4.984-1.876 1.807 0 3.545-.42 3.862-.933 1.043-1.687 6.58-.85 8.026 1.214 1.512 2.158 8.982 3.391 10.053 1.66.338-.548-.777-2.296-2.478-3.886l-3.093-2.889 3.006-.66c1.653-.363 3.305-1.145 3.67-1.737.425-.686.19-.784-.642-.269-.897.554-1.07.42-.545-.427.452-.732 1.737-.991 3.154-.635 3.492.877 2.99-1.386-.61-2.744-1.65-.623-3-1.445-3-1.826s-1.377-.476-3.062-.211c-1.698.268-3.738-.077-4.576-.773-1.224-1.015-1.68-.986-2.384.154-.545.881-.423 1.695.326 2.17.658.419.735.768.17.777-.566.008-2.066-.712-3.335-1.601-1.657-1.161-2.001-1.921-1.222-2.7.596-.596 1.084-2.479 1.084-4.184s.54-3.64 1.2-4.3c.803-.803.838-1.2.107-1.2-.601 0-1.37.722-1.708 1.604-.352.915-1.256 1.358-2.107 1.031-.905-.347-1.492.005-1.492.896 0 2.241-2.003 1.757-4.678-1.129-1.943-2.096-2.93-2.454-5.115-1.852-1.49.41-3.832.864-5.207 1.01-1.375.145-5.085.556-8.244.913-4.356.492-6.272.279-7.932-.883-1.62-1.135-2.532-1.248-3.513-.433-2.135 1.772-9.053 1.53-10.966-.383-1.59-1.589-1.544-1.747.732-2.597 1.333-.497 4.55-1.217 7.15-1.598 2.599-.382 4.988-1.119 5.309-1.637.32-.518 1.418-.942 2.44-.942 1.02 0 2.12-.562 2.44-1.25.467-1 .7-1 1.167 0 .32.687 1.074 1.25 1.673 1.25 1.693 0 8.689-3.41 8.718-4.25.042-1.213-3.466-.858-4.811.487-1.68 1.679-8.006 1.613-8.66-.091-.286-.744-1.08-1.143-1.761-.885-.683.257-4.842.16-9.242-.217-5.092-.436-8.248-.314-8.682.335-.827 1.236-8.936.894-10.268-.433-.522-.52-3.95-.946-7.615-.946-5.06 0-7.254-.463-9.107-1.921-1.344-1.057-3.317-1.844-4.385-1.75-1.551.136-2.004-.563-2.247-3.464-.241-2.896.206-4.036 2.198-5.603 2.794-2.197 1.876-4.262-1.894-4.262-1.155 0-2.623-.523-3.263-1.163-.884-.884-1.412-.508-2.2 1.565-.57 1.501-1.037 3.079-1.037 3.508 0 1.226-3.944 4.48-4.615 3.808-.988-.988-10.684 3.235-13.44 5.854-1.405 1.335-3.344 2.428-4.31 2.428-.964 0-1.507.398-1.206.885.3.487.137 2.174-.364 3.75s-1.185 4.52-1.52 6.543c-.517 3.124-1.093 3.79-3.827 4.429-3.952.924-6.772.67-13.173-1.185-2.725-.79-6.41-1.163-8.19-.829-3.92.735-11.406-2.676-14.848-6.767-2.502-2.974-4.056-2.72-2.391.391.575 1.075.854 2.147.619 2.382-.441.44-6.91-1.907-9.945-3.608-.941-.527-2.484-.662-3.43-.299-1.523.584-1.5.358.21-1.985 1.062-1.454 2.45-2.658 3.085-2.676.759-.02.978-1.346.64-3.872-.443-3.298-.136-4.139 2.176-5.957 2.04-1.605 2.524-2.641 2.003-4.285-.48-1.507-.338-1.951.463-1.456 1.332.823 4.063-1.136 4.063-2.914 0-.665-1.127-1.812-2.504-2.549-1.378-.738-2.45-1.826-2.382-2.419.248-2.174-.135-3.579-.975-3.579-.474 0-.646 1.13-.382 2.512.438 2.29.272 2.431-1.888 1.596-1.303-.504-2.253-1.419-2.112-2.034.365-1.585-4.432-3.194-7.344-2.463-1.347.338-2.387 1.126-2.312 1.752.39 3.257-.142 3.787-3.142 3.128-1.85-.406-3.607-.198-4.487.532-.796.661-2.151.931-3.011.6-.861-.33-1.346-.246-1.08.186.268.433.089 1.431-.398 2.219-.68 1.1-1.226.624-2.347-2.043-.931-2.214-1.1-3.698-.465-4.091.558-.345.254-.901-.691-1.263-.982-.377-1.448-1.271-1.115-2.139.315-.821.189-1.492-.28-1.492-.468 0-1.13 1.013-1.468 2.25-.482 1.758-.812 1.947-1.511.863-.55-.854-1.903-1.194-3.523-.884-3.255.622-4.286-.794-2.232-3.065 1.957-2.162.51-5.425-1.51-3.406-.988.989-.946 1.255.209 1.305.798.035.36.499-.972 1.032-1.753.7-2.662.614-3.294-.314-.59-.864-.778-.497-.58 1.126.167 1.354-.297 2.609-1.06 2.868-1 .341-1.166-.129-.635-1.803.619-1.951.426-2.188-1.395-1.712-2.607.682-2.833-.897-.246-1.718 2.24-.711 5.906-4.542 4.346-4.542-.603 0-1.374.45-1.714 1-.34.55-1.443 1-2.452 1-1.01 0-2.112.726-2.453 1.613-.466 1.216-.946 1.341-1.95.508-.73-.607-1.614-.818-1.963-.47-.348.349-1.263.112-2.031-.526-1.578-1.309-4.633-.506-4.686 1.232-.02.629-.582.243-1.25-.857s-2.115-2.099-3.215-2.221c-1.1-.121-1.441.027-.758.331.902.4.96 1.076.215 2.471-1.115 2.082-3.571 2.578-4.151.838-.41-1.228-8.447 1.63-10.627 3.779-1.562 1.539-4.18 1.728-4.18.302 0-.55.703-1 1.56-1 .857 0 1.293-.43.968-.956-.943-1.526-3.527-.015-3.527 2.063 0 1.156-.701 1.893-1.8 1.893-.99 0-2.292.492-2.893 1.093-.79.79-1.676.78-3.2-.036-1.727-.924-2.107-.844-2.107.442 0 1.465-.731 1.537-5.95.583-.247-.045.09-.622.75-1.282 1.93-1.931 1.402-2.8-1.706-2.8-2.35 0-2.813.36-2.417 1.873.387 1.479-.211 2.005-2.844 2.498-1.833.344-3.777.739-4.32.877-.542.139-1.131-.501-1.308-1.421-.213-1.11.455-1.783 1.987-2 1.543-.219 2.419-1.111 2.643-2.693.184-1.305 1.193-2.59 2.25-2.866 2.18-.571 2.606-2.268.568-2.268-2.496 0-5.932-3.823-5.37-5.974.508-1.943-.243-2.463-3.033-2.101-.687.09-1.25-.709-1.25-1.774 0-2.063-2.081-3.4-3.591-2.308m87.59.216c0 .582.45.781 1 .441s1-.816 1-1.059-.45-.441-1-.441-1 .477-1 1.059m12.597.552c-.453 1.18-.192 1.448.974 1 .877-.336 1.782-.611 2.012-.611.23 0 .418-.45.418-1 0-1.629-2.733-1.138-3.404.611m-16.425 1.486c-.72 1.154-1.075 2.333-.788 2.619.686.686 3.617-2.267 3.617-3.645 0-1.742-1.422-1.227-2.83 1.026m7.13 3.247c-1.76 1.186-3.465 2.806-3.792 3.6-.435 1.058-.094.992 1.278-.25 1.029-.932 2.624-1.694 3.543-1.694s1.67-.477 1.67-1.059.446-.784.99-.448c.566.35.734-.051.393-.941-.328-.854-.66-1.51-.74-1.458l-3.341 2.25M310.838 8c0 1.111.667 2 1.5 2 .825 0 1.5.404 1.5.898 0 .991-6.626.809-7.645-.21-.352-.352-.071-1.326.625-2.164.97-1.17.982-1.524.049-1.524-.67 0-1.452.9-1.74 2-.56 2.142-2.29 2.772-2.29.833 0-3.098-1.267.583-1.333 3.874-.057 2.808.363 3.867 1.629 4.111.938.181 1.705-.148 1.705-.731 0-1.233 6.37-4.087 9.122-4.087 1.063 0 1.878.702 1.878 1.617 0 1.168-.667 1.489-2.407 1.156-2.206-.422-2.318-.264-1.34 1.883.588 1.289 1.472 2.344 1.967 2.344.494 0 .67-.369.392-.819-.28-.451.87-.617 2.552-.37 1.907.28 3.372-.06 3.892-.902.46-.743 1.149-1.037 1.532-.654.383.383.119 1.393-.587 2.244-1.073 1.293-1.031 1.45.256.956.848-.325 1.838-.111 2.2.477 1.17 1.893 2.543 1.138 2.543-1.401 0-1.626-.448-2.296-1.312-1.965-1.298.498-3.99-3.295-3.634-5.121.406-2.094-.111-3.528-1.061-2.941-.554.342-2.311-.306-3.904-1.441-3.692-2.628-6.09-2.653-6.09-.063m-42.5 3c.34.55.817 1 1.06 1 .243 0 .44-.45.44-1s-.476-1-1.058-1c-.582 0-.781.45-.441 1m21.385 1.75c-.43 2.795-.231 3.913.913 5.119 2.023 2.135 2.657.474.863-2.263-1.204-1.839-1.301-2.581-.385-2.952.948-.384.942-.514-.026-.575-.687-.043-1.302.259-1.365.671M212.338 14c.34.55 1.04 1 1.559 1 .518 0 .94-.45.94-1s-.701-1-1.558-1c-.857 0-1.281.45-.941 1m-38.465 1.934c-1.537 2.873-1.267 3.245.965 1.334 2.146-1.837 2.599-3.268 1.035-3.268-.53 0-1.43.87-2 1.934m109.965 2.007c0 1.132.45 2.059 1 2.059s1-.648 1-1.441-.45-1.719-1-2.059c-.55-.34-1 .309-1 1.441m-32 .176c0 .651-1.041.917-2.5.638-2.65-.506-2.99-.075-1.627 2.073.68 1.074 1.535.957 4.458-.609C255.618 18.37 256.045 17 253.17 17c-.733 0-1.333.502-1.333 1.117m-26 2.883c0 1.264 2.043 1.264 4 0 1.169-.755.893-.973-1.25-.985-1.512-.008-2.75.435-2.75.985m74.625-.202c-.271.439-.073 1.451.44 2.25.814 1.264 1.063 1.257 1.92-.048.54-.825.99-1.838 1-2.25.02-1.002-2.735-.963-3.36.048M243.838 24c0 .55.45 1 1 1s1-.45 1-1-.45-1-1-1-1 .45-1 1m32.986.414c-1.504 1.504-1.18 2.586.773 2.586.968 0 2.262-.804 2.875-1.786.923-1.477.789-1.785-.774-1.785-1.04 0-2.332.443-2.874.985M278.338 29c-.731 1.183.248 1.183 3 0 1.928-.829 1.92-.862-.191-.93-1.205-.038-2.47.38-2.81.93m6.139.5c-.35.914-.001 1.5.893 1.5.808 0 1.469-.675 1.469-1.5s-.402-1.5-.893-1.5-1.152.675-1.47 1.5m3.363-.5c0 .55.477 1 1.059 1s.78-.45.44-1-.815-1-1.058-1c-.243 0-.441.45-.441 1m-150.221 2.625c.419 2.19.653 2.354 1.416.992.932-1.666.33-3.617-1.115-3.617-.442 0-.577 1.181-.301 2.625M310.337 31c-.34.55.085 1 .942 1s1.559-.45 1.559-1-.423-1-.941-1-1.22.45-1.56 1m-163.5 1.059c0 .582.45.781 1 .441s1-.816 1-1.059-.45-.441-1-.441-1 .477-1 1.059m155-.177c0 .55.45 1.278 1 1.618.55.34 1 .168 1-.382s-.45-1.278-1-1.618c-.55-.34-1-.168-1 .382m-5.267 2.033c-.3 1.147-.163 2.085.303 2.085 1.362 0 1.898-1.49 1.038-2.882-.58-.939-.943-.722-1.341.797M119.63 35.76c.964.324 1.009.775.176 1.778-.925 1.115-.592 1.146 1.959.184 3.995-1.508 3.916-2.613-.177-2.492-1.787.052-2.67.291-1.958.53m19.654.327c-.37.598-.171 1.588.44 2.2.818.817 1.114.528 1.114-1.087 0-2.415-.52-2.787-1.554-1.113M324.338 39c-.34.55-.141 1 .44 1 .583 0 1.06-.45 1.06-1s-.198-1-.441-1-.72.45-1.06 1m-175.5 2c0 1.1.399 2 .884 2 .486 0 1.209 1.013 1.606 2.25.612 1.906.795 1.982 1.19.5.257-.963.91-1.75 1.453-1.75.542 0 .7-.462.352-1.027-.35-.564-1.388-.902-2.31-.75-1.114.185-1.576-.308-1.38-1.473.16-.963-.176-1.75-.75-1.75-.574 0-1.044.9-1.044 2m155.807.119c-1.134.701-1.412 6.609-.361 7.661.316.316 1.23-.293 2.033-1.353 1.374-1.817 1.459-1.823 1.489-.104.02 1.191.64 1.707 1.782 1.487 2.134-.411 2.344-3.268.25-3.406-4.544-.3-4.914-.465-4.35-1.934.37-.965 1.28-1.309 2.468-.932 1.21.383 1.882.113 1.882-.756 0-1.422-3.286-1.841-5.193-.663m-159.807 1.44c0 .857.457 1.276 1.016.931.559-.346.758-1.047.44-1.559-.856-1.387-1.456-1.129-1.456.628m-8 .441c0 .55.477 1 1.059 1s.78-.45.44-1-.815-1-1.058-1c-.243 0-.441.45-.441 1m185 .559c0 .857.457 1.276 1.016.931.559-.346.758-1.047.44-1.559-.856-1.387-1.456-1.129-1.456.628m-196 4.441c0 .55.477 1 1.059 1s.78-.45.44-1-.815-1-1.058-1c-.243 0-.441.45-.441 1m192.5 2c-.34.55-.168 1 .382 1s1.278-.45 1.618-1c.34-.55.168-1-.382-1s-1.278.45-1.618 1m-207.812 2.646c-1.374 1.374-.662 3.496 1.062 3.164.963-.186 1.75-.969 1.75-1.74 0-1.579-1.764-2.472-2.812-1.424m301.705 4.936c.334.87.607 2.19.607 2.933 0 .854 1.105 1.32 3 1.266 1.65-.047 3-.467 3-.933s-.546-.735-1.213-.598c-.668.137-1.674-.762-2.238-2-1.162-2.554-4.12-3.18-3.156-.668m-294.393 2.811c0 .216.698.661 1.552.989.89.341 1.29.173.94-.393-.586-.951-2.492-1.406-2.492-.596m-6.441 3.313c-.774 2.018-.265 2.502 1.798 1.711 2.019-.775 2.12-2.02.226-2.747-.78-.299-1.69.167-2.024 1.036m18.9-.639c-1.076 1.741.149 2.11 1.52.457.79-.95.866-1.524.202-1.524-.584 0-1.36.48-1.722 1.067m5.235 1.277c-1.122 1.713-2.364 2.295-4.615 2.161-3.515-.209-3.712.138-1.476 2.609 1.526 1.686 1.72 1.654 4.04-.667 1.342-1.341 3.77-3.127 5.398-3.968 3.582-1.853 3.727-2.479.574-2.479-1.398 0-3.02.97-3.921 2.344m-19.02 1.248c.34.886.066 1.372-.676 1.199-.687-.16-1.454.272-1.706.959-.69 1.879 1.169 1.503 3.096-.626 1.468-1.622 1.496-1.955.206-2.45-1.025-.393-1.313-.106-.92.918m5.512 7.463c-1.273.51-2.034 1.382-1.691 1.937.936 1.515 1.887 1.227 3.273-.992.687-1.1 1.133-1.971.99-1.937-.142.035-1.3.481-2.572.992m20.957 1.852c-1.006.625-1.053 1.03-.183 1.568 1.372.848 2.402.097 1.894-1.38-.208-.606-.914-.683-1.711-.188M114.038 77.2c-1.838 1.838-1.621 2.148 4.723 6.745 5.965 4.32 6.423 5.429 3.69 8.935-.886 1.139-.491 1.252 2.264.647 4.453-.978 10.053-4.883 12.299-8.576 2.135-3.51 2.515-6.042.624-4.151-.66.66-2.46 1.2-4 1.2-3.164 0-3.666 1.396-1.05 2.92 1.667.971 1.667 1.021 0 1.05-.963.016-1.757.593-1.765 1.28-.012.973-.196.966-.83-.034-.448-.706-1.563-.997-2.477-.646-1.05.403-1.894.031-2.293-1.009-.84-2.188.47-3.402 1.654-1.532.512.809.937.978.946.376.008-.602-.922-1.943-2.067-2.979-1.968-1.781-2.136-1.789-3.061-.134-1.325 2.367-2.697 1.321-2.133-1.628.354-1.852-.067-2.524-1.884-3.01-3.15-.844-3.264-.83-4.64.546m349.8.3c0 .825.177 1.5.393 1.5.216 0 .652-.675.969-1.5.316-.825.139-1.5-.393-1.5-.533 0-.97.675-.97 1.5m5.554-.585a1.116 1.116 0 0 0 .362 1.532c.52.322 1.21.159 1.532-.362a1.116 1.116 0 0 0-.362-1.532 1.116 1.116 0 0 0-1.532.362M148.338 79c.34.55 1.068 1 1.618 1s.722-.45.382-1c-.34-.55-1.068-1-1.618-1s-.722.45-.382 1m343.5 13.031c0 .533.675.969 1.5.969s1.5-.177 1.5-.393c0-.216-.675-.652-1.5-.969-.825-.316-1.5-.139-1.5.393m-6 .969c-1.282.828-1.246.972.25.985.962.008 1.75-.435 1.75-.985 0-1.22-.113-1.22-2 0m-20 1c0 .55.45 1 1 1s1-.45 1-1-.45-1-1-1-1 .45-1 1m15 4.5c0 .825.375 1.5.833 1.5.459 0 .834-.675.834-1.5s-.375-1.5-.834-1.5c-.458 0-.833.675-.833 1.5m-14 .5c0 .55.45 1 1 1s1-.45 1-1-.45-1-1-1-1 .45-1 1m30.564.707c-.542 1.425-.428 1.54.56.56.684-.679.99-1.486.683-1.793-.308-.308-.867.247-1.243 1.233m-380.007 1.516c-2.001 2.855-1.966 3.777.143 3.777 1.322 0 1.433.267.5 1.2-1.58 1.579-1.544 4.081.05 3.55.688-.229 1.26-1.054 1.272-1.833.013-.784.795-1.286 1.75-1.123.95.161 1.728-.162 1.728-.719 0-.557.616-.776 1.369-.487 1.972.757 2.92-3.726 1.16-5.486-1.212-1.214-1.762-1.18-3.94.247-2.124 1.392-2.436 1.417-1.952.154.853-2.222-.3-1.824-2.08.72m394.475-.473c-.022 1.571.553 2.25 1.909 2.25 2.132 0 3.687-1.736 2.522-2.817-.405-.375-.946-.097-1.201.62-.343.964-.82.834-1.831-.5-1.286-1.696-1.37-1.669-1.4.447M479.839 102c0 .55.477 1 1.059 1s.78-.45.44-1-.815-1-1.058-1c-.243 0-.441.45-.441 1m65.485 2.025c-.35.563-.21.901.308.75.519-.151 1.863.85 2.989 2.225 1.125 1.375 2.314 2.233 2.642 1.907.567-.564-3.79-5.907-4.817-5.907-.27 0-.774.461-1.122 1.025m-11.47 3.725c-.008.688-.69 1.25-1.515 1.25-.94 0-1.5.948-1.5 2.535 0 2.173.269 2.391 1.882 1.528 2.375-1.271 3.192-3.335 2.04-5.154-.631-.997-.896-1.044-.907-.159m70.985 3.345c0 .525-1.125 1.382-2.5 1.905-3.062 1.164-3.15 2.113-.355 3.858 1.878 1.173 2.069 1.141 1.53-.259-.732-1.91 1.144-2.094 4.723-.464 2.75 1.254 4.044 3.474 2.558 4.392-.526.325-.956.129-.956-.437 0-.565-.694-.761-1.543-.435-1.375.528-1.365.789.094 2.401.9.995 2.237 1.579 2.97 1.298.937-.36 1.172.105.789 1.567-.31 1.189-.065 2.079.573 2.079.615 0 1.117-.394 1.117-.875s1.09-.875 2.423-.875c1.907 0 2.173.27 1.25 1.27-.645.699-1.51 1.066-1.923.816-.413-.25-.75-.004-.75.546 0 1.953 2.153 2.289 3.993.624 1.77-1.603 1.84-1.582 1.32.402-.57 2.182 1.067 2.904 2.249.991.4-.646 1.972-.853 3.809-.501 2.158.413 2.672.306 1.657-.346-1.251-.803-1.198-1.049.35-1.644 1.124-.431 2.163-.163 2.708.696 1.366 2.159 1.09 2.896-1.086 2.896-1.226 0-2.012.677-2.032 1.75-.03 1.667-.095 1.667-1.36 0-.731-.963-1.793-1.75-2.361-1.75-1.441 0-2.598 3.383-1.304 3.814.58.194 1.057.99 1.057 1.769 0 .78.614 1.417 1.365 1.417.75 0 2.553.934 4.004 2.076 1.45 1.141 4.212 2.221 6.135 2.4 3.422.318 4.726-.764 2.246-1.864-.687-.304-.397-.454.646-.333 1.043.122 2.116-.41 2.384-1.181.355-1.021-.107-1.246-1.703-.828-1.427.373-2.053.164-1.796-.599.218-.644 1.648-1.189 3.178-1.211 2.199-.032 3.195-.845 4.75-3.876 1.798-3.504 1.83-3.973.379-5.424-1.34-1.341-1.593-1.36-1.621-.124-.023.99-.678.69-2.025-.928-2.211-2.655-1.848-4.104.534-2.128 1.817 1.508 1.909.96.397-2.36-.932-2.045-1.521-2.324-3.397-1.611-1.25.475-2.43.73-2.623.568-.194-.163-1.65-.607-3.233-.988-2.556-.614-2.82-.462-2.344 1.358.295 1.128.128 2.303-.37 2.611-.498.308-.906-.168-.906-1.058s-.39-1.377-.866-1.083c-.477.295-1.714-.419-2.75-1.586-1.873-2.11-1.87-2.119.866-1.615 1.513.279 2.75.079 2.75-.443 0-.552-2.288-.717-5.461-.394-4.037.411-5.841.176-6.92-.902-1.113-1.114-1.582-1.166-1.981-.218-.524 1.246-.637 1.146-3.43-3.027-1.092-1.632-7.208-3.445-7.208-2.137m-53.5 5.905c-.34.55-.168 1 .382 1s1.278-.45 1.618-1c.34-.55.168-1-.382-1s-1.278.45-1.618 1m71.138 3.5c.317.825.753 1.5.969 1.5.216 0 .393-.675.393-1.5s-.436-1.5-.97-1.5c-.531 0-.708.675-.392 1.5m-54.424 1.25c-.927 1.273-1.426 1.409-1.828.5-.591-1.337-4.386-1.761-4.386-.491 0 .418.9 1.322 2 2.009 1.599.999 2.4.999 4 0 1.1-.687 2-1.816 2-2.509 0-1.666-.267-1.592-1.786.491m7.786 8.25c0 .55.477 1 1.059 1s.78-.45.44-1-.815-1-1.058-1c-.243 0-.441.45-.441 1m65 1c.589 1.1 1.28 2 1.535 2 .256 0 .465-.9.465-2 0-1.131-.667-2-1.535-2-1.225 0-1.32.404-.465 2m-585 12.941c0 .518.45 1.219 1 1.559.55.34 1-.084 1-.941s-.45-1.559-1-1.559-1 .423-1 .941m566.079 22.642c.048 1.165.285 1.402.604.605.289-.722.253-1.585-.08-1.917-.331-.332-.567.258-.524 1.312M685.837 179c0 .55.478 1 1.06 1 .582 0 .78-.45.44-1s-.815-1-1.058-1c-.243 0-.441.45-.441 1m-629.5 1c-.34.55-.168 1 .382 1s1.278-.45 1.618-1c.34-.55.168-1-.382-1s-1.278.45-1.618 1m-.5 17.059c0 .582.45.781 1 .441s1-.816 1-1.059-.45-.441-1-.441-1 .477-1 1.059m651.25 7.603c-1.43.577-1.7 2.338-.357 2.338.49 0 1.152-.675 1.469-1.5.316-.825.477-1.464.357-1.421-.121.043-.781.306-1.47.583m-691.25 8.307c0 .532.676.709 1.5.393.826-.317 1.5-.753 1.5-.969 0-.216-.674-.393-1.5-.393-.824 0-1.5.436-1.5.969m711.5 2.031c-.34.55-.14 1 .442 1 .582 0 1.059-.45 1.059-1s-.198-1-.441-1-.72.45-1.06 1m7.2 8.339c-.262.685.06 1.98.718 2.879 1.099 1.503 1.282 1.493 2.287-.115.86-1.379.709-1.989-.717-2.879-1.375-.858-1.924-.831-2.287.115m-680.091 3.237c-.845 2.203.083 3.132 1.608 1.607.838-.838.872-1.494.116-2.25-.757-.757-1.26-.569-1.724.643m679.39 37.483c0 .582.45.781 1 .441s1-.816 1-1.059-.45-.441-1-.441-1 .477-1 1.059m10.814 19.624c.72.289 1.584.253 1.916-.079.332-.332-.258-.568-1.312-.525-1.165.048-1.402.285-.604.604m43.187 6.876c0 .857.45 1.281 1 .941.55-.34 1-1.041 1-1.559s-.45-.941-1-.941-1 .702-1 1.559m-44 4.359c0 1.143 3.476 4.082 4.829 4.082.644 0 1.17.675 1.17 1.5s.526 1.5 1.168 1.5c.64 0 .87-.296.508-.658-.362-.362-.25-1.151.25-1.753 1.43-1.723-1.317-4.607-4.81-5.049-1.713-.217-3.115-.047-3.115.378m69.667 2.749c-.367.366-.667 1.131-.667 1.7 0 .626.466.567 1.183-.15.65-.651.95-1.416.667-1.7-.284-.284-.817-.217-1.183.15M39.838 299c0 .55.45 1 1 1s1-.45 1-1-.45-1-1-1-1 .45-1 1m777.564 1.293c.376.986.935 1.541 1.243 1.233.308-.307 0-1.114-.683-1.793-.988-.98-1.102-.865-.56.56M26.838 301c0 .55.45 1 1 1s1-.45 1-1-.45-1-1-1-1 .45-1 1m775 4.893c0 .491.679 1.154 1.509 1.472.83.319 1.393 1.098 1.25 1.732-.142.634.304 1.359.99 1.611 1.797.659 1.54-1.347-.471-3.697-1.814-2.118-3.278-2.618-3.278-1.118m-781 8.048c0 .518.45 1.219 1 1.559.55.34 1-.084 1-.941s-.45-1.559-1-1.559-1 .423-1 .941m-9.343 5.826c-1.38.311-1.672.959-1.164 2.574.374 1.188.665 2.994.647 4.015-.03 1.732.09 1.746 1.789.208 1.726-1.561 2.537-6.25 1.196-6.906-.344-.169-1.454-.119-2.468.109m-6.091 11.131c-1.17.458-1.511 1.018-.863 1.418.589.364 1.626-.008 2.306-.827 1.37-1.65 1.317-1.672-1.443-.591M828.338 337c.34.55.816 1 1.059 1s.44-.45.44-1-.476-1-1.058-1c-.582 0-.781.45-.441 1m-781.5.941c0 .518.445 1.216.989 1.552.566.35.734-.051.393-.941-.665-1.732-1.382-2.049-1.382-.611m1.5 6.059c-.34.55.335 1 1.5 1s1.84-.45 1.5-1c-.34-.55-1.015-1-1.5-1-.485 0-1.16.45-1.5 1m-24.342 5c0 1.375.227 1.938.504 1.25.278-.687.278-1.812 0-2.5-.277-.687-.504-.125-.504 1.25m23.342-1c-.34.55-.141 1 .44 1 .583 0 1.06-.45 1.06-1s-.198-1-.441-1-.72.45-1.06 1m-21.5 8.059c0 .582.45.781 1 .441s1-.816 1-1.059-.45-.441-1-.441-1 .477-1 1.059m23.278 2.766c.129 1.842.775 3.172 1.54 3.173.902.001 1.103-.709.638-2.248-1.141-3.777-2.417-4.319-2.178-.925m777.287 2.468c.376.986.935 1.541 1.243 1.233.308-.307 0-1.114-.683-1.793-.988-.98-1.102-.865-.56.56m8.436 2.358c0 1.807 4.09 2.821 5.059 1.254.445-.72.59-1.662.325-2.092-.761-1.232-5.384-.513-5.384.838m-814 1.349c0 .55.477 1 1.059 1s.78-.45.44-1-.815-1-1.058-1c-.243 0-.441.45-.441 1m814.565 1.895c-.305.493.096 1.145.89 1.449.963.37 1.258.072.887-.895-.645-1.68-1.011-1.794-1.777-.554m3.164 4.105c-1.346 3.479-1.34 7.935.01 8.454.882.338 1.32-.102 1.207-1.212-.316-3.123.035-4.372 1.054-3.742.55.34 1 .141 1-.441S841.42 373 840.91 373s-1.115-.788-1.345-1.75c-.346-1.447-.52-1.49-1-.25m-34.297 4.75c.319 2.613.939 6.325 1.379 8.25.445 1.952.384 4.615-.14 6.022-.711 1.914-.444 3.542 1.105 6.748 1.135 2.35 1.63 4.479 1.117 4.797-.51.314-.598 1.099-.2 1.744.399.645.885 3.086 1.08 5.424.486 5.781-1.802 4.865-4.148-1.662-1.462-4.063-2.081-4.766-3.8-4.317-1.753.459-1.947.207-1.333-1.728.527-1.659.362-2.146-.616-1.82-2.272.758-5.08 9.912-3.874 12.631.876 1.975.727 2.419-.961 2.861-1.556.407-1.924 1.203-1.662 3.596.36 3.29-2.762 9.701-4.727 9.708-1.14.003-4.651 7.369-4.651 9.757 0 .681.54 1.239 1.2 1.239.933 0 .933.267 0 1.2-1.796 1.796-1.446 2.956.55 1.825.962-.546 3.307-1.361 5.21-1.812 3.144-.745 3.473-1.16 3.59-4.531.083-2.381.966-4.603 2.464-6.197 2.76-2.939 5.539-3.43 4.162-.735-.492.962-1.171 3.212-1.51 5-.581 3.064-.45 3.25 2.3 3.25 1.604 0 3.182-.43 3.507-.956.325-.526 1.217-.717 1.982-.423 1.902.73 5.542-3.113 5.56-5.871.01-1.639.249-1.882.873-.897.682 1.077 1.31 1.111 3.075.167 1.219-.653 4.23-1.187 6.69-1.187 3.002 0 4.658-.481 5.035-1.461.443-1.157.88-1.005 2.094.727 1.47 2.1 1.589 2.115 2.876.354 1.577-2.156 1.77-3.836.342-2.953-.55.34-1 .13-1-.466 0-.596 1.175-1.53 2.612-2.077l2.612-.993-2.643-2.079c-2.065-1.624-2.95-1.824-4.045-.915-1.086.901-1.991.778-4.011-.545l-2.608-1.71 3.29-2.817c1.812-1.549 2.757-2.835 2.102-2.857-.655-.023-1.47.409-1.81.959-.34.55-1.067 1-1.617 1s-.722-.45-.382-1c.34-.55.25-1-.197-1-.887 0-5.303-9.082-5.303-10.908 0-.618-.562-2.972-1.25-5.232-.91-2.987-2.105-4.519-4.385-5.615-2.73-1.311-3.195-2.119-3.591-6.248-.445-4.629-3.871-10.997-5.917-10.997-.615 0-.781 1.845-.426 4.75m-789.431 8.191c0 .518.45 1.219 1 1.559.55.34 1-.084 1-.941s-.45-1.559-1-1.559-1 .423-1 .941m5.596 1.45c.329.857-.125 2.28-1.008 3.164-.884.883-1.351 2.02-1.038 2.526.312.505.204.926-.241.934-.445.009-1.466.431-2.27.939-1.25.791-1.191 1.221.406 2.985 2.347 2.594 4.737 2.622 7.034.085.983-1.087 2.178-1.736 2.655-1.441.476.294.866-.181.866-1.055 0-.875.675-1.85 1.5-2.166 2.692-1.033 1.722-3.255-1.25-2.863-1.513.2-3.01.394-3.327.432-.317.038-.378 1.419-.136 3.069s.1 3-.313 3c-1.39 0-3.318-3.483-2.49-4.497 1.405-1.718 1.578-5.796.265-6.244-.79-.269-1.03.149-.653 1.132M834.338 385c-.34.55-.168 1 .382 1s1.278-.45 1.618-1c.34-.55.168-1-.382-1s-1.278.45-1.618 1m3.064.707c-.542 1.425-.428 1.54.56.56.684-.679.99-1.486.683-1.793-.308-.308-.867.247-1.243 1.233m-2.532 1.852c-.018.582.629 1.932 1.436 3 .808 1.067 1.483 1.465 1.5.882.018-.582-.63-1.932-1.436-3-.808-1.067-1.483-1.465-1.5-.882m-810.032 4c0 .857.45 1.281 1 .941.55-.34 1-1.041 1-1.559s-.45-.941-1-.941-1 .702-1 1.559m801-.5c0 .582.45.781 1 .441s1-.816 1-1.059-.45-.441-1-.441-1 .477-1 1.059m-816 3.35c0 .19.675.906 1.5 1.591.865.718 1.5.815 1.5.229 0-.558-.675-1.274-1.5-1.591-.825-.316-1.5-.419-1.5-.229m10.079 1.174c.048 1.165.285 1.402.604.605.289-.722.253-1.585-.08-1.917-.331-.332-.567.258-.524 1.312m811.544.957c-.901 2.348-.835 2.46 1.45 2.46 1.398 0 1.968-.543 1.75-1.667-.442-2.283-2.438-2.778-3.2-.793M14.338 400c.34.55.816 1 1.059 1s.44-.45.44-1-.476-1-1.058-1c-.582 0-.781.45-.441 1m6.5 1c0 .55.45 1 1 1s1-.45 1-1-.45-1-1-1-1 .45-1 1m5.863 1.239c1.425 1.817 3.194 1.5 3.058-.548-.054-.817-.241-.786-.597.101-.424 1.055-.821 1.055-2.171 0-1.475-1.153-1.506-1.104-.29.447m816.637.761c-.34.55-.141 1 .44 1 .583 0 1.06-.45 1.06-1s-.198-1-.441-1-.72.45-1.06 1m-823.832.667c-.956.955-.822 2.333.226 2.333.49 0 1.152-.675 1.469-1.5.585-1.524-.481-2.048-1.695-.833m3.348.083c.028 1.369 1.867 3.702 2.454 3.114.788-.788-.467-3.864-1.576-3.864-.491 0-.886.337-.878.75m829.985 2.583c0 1.467-.45 2.667-1 2.667-1.66 0-1.131 1.8 1.15 3.926 3.117 2.903 3.935 1.674 2.363-3.549-1.678-5.574-2.513-6.586-2.513-3.044M837.2 414.5c.316.825.139 1.5-.393 1.5-.533 0-.97.675-.97 1.5 0 2.036 4.61 1.959 5.397-.09.733-1.911-.166-3.67-1.465-2.867-.512.316-.931.098-.931-.484S838.34 413 837.73 413c-.61 0-.848.675-.531 1.5m-6.362.559c0 .582.45.781 1 .441s1-.816 1-1.059-.45-.441-1-.441-1 .477-1 1.059m20.079 2.524c.048 1.165.285 1.402.604.605.289-.722.253-1.585-.08-1.917-.331-.332-.567.258-.524 1.312m1.155 4.933c.404.432-.046 1.422-1 2.198-1.283 1.045-1.405 1.548-.466 1.938.697.29 1.88 1.14 2.63 1.89.75.749 1.632 1.095 1.959.768.327-.327 1.184-.106 1.904.491 1.042.866 1.349.16 1.507-3.465.167-3.831-.027-4.366-1.221-3.375-1.09.905-1.956.898-3.733-.027-1.273-.663-1.983-.851-1.58-.418m-6.571 3.048c.308.804.035 2.095-.608 2.87-.955 1.15-.792 1.31.888.871 2.355-.616 2.774-3.816.608-4.647-.973-.373-1.265-.076-.888.906m-7.682.959c-1.057 1.273-.995 1.42.378.893.902-.347 1.64-1.032 1.64-1.523 0-1.286-.578-1.105-2.018.63M45.338 430c-.34.55-.141 1 .44 1 .583 0 1.06-.45 1.06-1s-.198-1-.441-1-.72.45-1.06 1m775.23.604c-1.191 1.191-.832 2.396.712 2.396.793 0 1.762-.52 2.154-1.155.422-.682.277-.884-.355-.493-.588.363-1.23.18-1.425-.408-.196-.588-.685-.741-1.086-.34m-785.57 1.636c-1.447 1.448-1.495 2.76-.1 2.76.582 0 .802-.416.488-.924-.314-.509.222-1.082 1.19-1.274 1.089-.215 1.346-.612.673-1.036-.6-.377-1.612-.164-2.25.474m818.84 4.76c0 .55.477 1 1.059 1s.78-.45.44-1-.815-1-1.058-1c-.243 0-.441.45-.441 1m-64.427 4.895c-1.661.651-1.706.84-.323 1.371.882.338 2.142-.033 2.799-.825 1.297-1.562.543-1.728-2.476-.546m42.984 5.523c1.067.78 2.153 1.206 2.412.946.55-.55-2.028-2.326-3.41-2.349-.518-.008-.068.623.998 1.403M827.838 450c0 .55.45 1 1 1s1-.45 1-1-.45-1-1-1-1 .45-1 1m5 .571c0 .807 2.716 3.429 3.55 3.429.383 0 .194-.604-.42-1.342-.611-.738-.817-1.638-.455-2 .362-.362-.092-.658-1.008-.658-.917 0-1.667.257-1.667.571m-801.985 9.62c-.008.93.435 1.969.985 2.309 1.266.782 1.266-.542 0-2.5-.835-1.293-.971-1.266-.985.191m813.254 8.116c.566 1.702 3.73 2.108 3.73.479 0-.748-.928-1.43-2.063-1.516-1.202-.09-1.9.343-1.667 1.037m-7.602 7.36c-.956.955-.822 2.333.226 2.333.49 0 1.152-.675 1.469-1.5.585-1.524-.481-2.048-1.695-.833m4.333 2.392c0 .582.45.781 1 .441s1-.816 1-1.059-.45-.441-1-.441-1 .477-1 1.059m-39.49 5.957c.346.559 1.047.758 1.559.441 1.387-.857 1.129-1.457-.628-1.457-.857 0-1.276.457-.931 1.016M787.338 506c-.34.55-.168 1 .382 1s1.278-.45 1.618-1c.34-.55.168-1-.382-1s-1.278.45-1.618 1m-709 15c-.34.55-.141 1 .44 1 .583 0 1.06-.45 1.06-1s-.198-1-.441-1-.72.45-1.06 1m-29.5 4c1.959 1.266 3.283 1.266 2.5 0-.34-.55-1.378-.993-2.308-.985-1.457.014-1.484.15-.191.985m31 2.393c0 2.204 2.597 4.343 3.806 3.135.78-.781-1.61-5.528-2.785-5.528-.561 0-1.021 1.077-1.021 2.393m653.667 3.274c-.367.366-.653 1.379-.637 2.25.025 1.3.22 1.257 1.092-.242 1.077-1.852.765-3.228-.455-2.008m-649.27 7.083c.91 1.788 2.093 3.25 2.629 3.25 1.698 0 1.06-1.572-1.653-4.076l-2.627-2.424 1.652 3.25m-6.398 37.096c0 .6-.68.83-1.511.511-1.035-.397-1.335-.119-.951.882.729 1.9 5.656 1.712 6.267-.239.258-.825.11-1.166-.326-.759-.437.408-1.4.24-2.137-.372-.955-.793-1.342-.8-1.342-.023m5.5 12.154c.34.55.816 1 1.059 1s.44-.45.44-1-.476-1-1.058-1c-.582 0-.781.45-.441 1m598.66 2.75c.09.413-.372 2.05-1.026 3.639-1.441 3.497-.987 4.161 1.696 2.485 2.318-1.448 2.727-6.874.518-6.874-.741 0-1.275.337-1.187.75m-7.661 6.25c-1.1.473-1.48.891-.844.93.697.042.926.964.577 2.32-.54 2.092-.445 2.145 1.344.75 2.57-2.005 3.393-3.24 2.798-4.202-.593-.96-1.251-.925-3.875.202m-573.5 10.839c0 .462-1.116 1.349-2.48 1.97-1.62.738-2.277 1.662-1.893 2.661.342.892.042 1.53-.72 1.53-.97 0-1.016.291-.18 1.127.62.62 2.179.862 3.466.539 1.944-.487 2.357-1.269 2.445-4.626.058-2.222-.062-4.04-.266-4.04-.205 0-.372.378-.372.839m7.21 1.762c-.71.769-.848 1.399-.308 1.399 1.038 0 2.54-1.902 1.948-2.466-.192-.183-.93.297-1.64 1.067m-27.21 4.899c0 .825.436 1.5.969 1.5.532 0 .709-.675.393-1.5-.317-.825-.753-1.5-.97-1.5-.215 0-.392.675-.392 1.5m25.583-.634c-.431.697-.513 1.537-.183 1.867.895.895 1.87-.421 1.387-1.871-.338-1.016-.574-1.016-1.204.004m3.417 2.665c0 .808.675 1.469 1.5 1.469s1.5-.402 1.5-.893-.675-1.152-1.5-1.469c-.914-.35-1.5-.001-1.5.893m519.566 14.367c-1.34.525-1.567.983-.741 1.494 1.445.893 5.175-.159 5.175-1.459 0-1.09-1.706-1.103-4.434-.035m48.24 5.968c-.718 1.026-1.756 1.926-2.306 2-1.111.149-1.117.649-.05 3.792l.735 2.157 2.014-2.014c1.946-1.946 3.195-7.801 1.665-7.801-.413 0-1.34.84-2.057 1.866m-13.27.884c.414.962.783 2.538.822 3.501.038.962.873 2.005 1.855 2.317.982.312 1.786 1.017 1.786 1.567s.844.732 1.876.404c1.336-.424 2.029-.011 2.406 1.433.292 1.115 1.023 2.028 1.624 2.028 1.348 0 1.44-1.668.138-2.473-.526-.325-.717-1.217-.423-1.982.293-.765-.401-2.325-1.544-3.468-2.116-2.116-4.7-2.894-3.577-1.077.34.55.31 1.498-.066 2.107-.92 1.487-2.398-.872-2.42-3.857-.008-1.394-.626-2.25-1.621-2.25-1.15 0-1.393.498-.855 1.75m18.736 1.081c-.676.418-.828 1.273-.36 2.029.627 1.015.956.921 1.47-.419.799-2.082.456-2.578-1.11-1.61m11.479 4.004c-.386 1.477-.018 1.747 1.884 1.384 2.719-.52 3.08-1.73.78-2.612-2.155-.827-2.122-.843-2.664 1.228m-35.115 3.665c-.316.825-.14 1.5.393 1.5s.969-.675.969-1.5-.177-1.5-.393-1.5c-.216 0-.652.675-.97 1.5m-66.637 1.981c0 1.746-3.991 2.945-7.542 2.266-2.621-.501-4.238.653-2.458 1.753.568.351.75 1.094.407 1.65-.372.602.32.878 1.709.681 2.564-.364 3.904 2.549 2.034 4.419-.717.717-.865.376-.477-1.106.584-2.235-.27-2.686-2.457-1.299-.745.473-1 1.557-.605 2.584.597 1.555.435 1.617-1.334.512-2.267-1.416-5.318-.666-5.198 1.278.062 1.003.188 1.01.583.031 1.105-2.738 3.945-1.095 3.456 2-.065.413.782.75 1.882.75 2.213 0 2.71 1.547.75 2.338-1 .403-1 .52 0 .583.688.043 1.264 1.092 1.282 2.329.03 2.179.11 2.16 2.536-.598 1.417-1.611 2.277-3.565 1.98-4.5-.287-.909.145-2.936.96-4.506.815-1.57 1.23-3.26.923-3.757-.582-.942.18-1.306 4.903-2.346 2.056-.452 2.63-.295 2.095.571-.466.755-.313.932.416.481 1.439-.889 1.503-3.262.11-4.122-.573-.355-1.71-.092-2.523.583-.814.676-1.803.906-2.198.511-.394-.394.076-1.161 1.045-1.703 1.945-1.089 1.425-2.864-.838-2.864-.793 0-1.441.666-1.441 1.481m-2.98 3.995c-.79.95-.865 1.524-.201 1.524 1.208 0 2.617-1.897 1.924-2.591-.252-.251-1.027.229-1.723 1.067m68.98.993c0 .892.587 1.243 1.494.895.822-.316 1.246-.976.94-1.469-.871-1.412-2.434-1.044-2.434.574m35.229.719c.618 1.854 2.77 2.161 2.77.395 0-.871-.711-1.583-1.582-1.583-.871 0-1.406.534-1.188 1.188m-97.646 2.678c-.431.697-.513 1.537-.183 1.867.895.895 1.87-.421 1.387-1.871-.338-1.016-.574-1.016-1.204.004m2.957 1.874c-1.397 1.507-2.54 3.182-2.54 3.723 0 .54 1.35-.495 3-2.302 1.65-1.806 3-3.482 3-3.723 0-.992-1.057-.289-3.46 2.302M244.338 660c-.34.55-.168 1 .382 1s1.278-.45 1.618-1c.34-.55.168-1-.382-1s-1.278.45-1.618 1m346.856 1.448c.083 1.406.888 2.643 1.893 2.906 2.685.703 3.205-1.282.899-3.431-2.665-2.483-2.966-2.426-2.792.525m63.644-.417c0 .533.45.969 1 .969 1.899 0 .993 1.769-1.25 2.442-2.18.653-2.187.7-.25 1.48 1.227.494 2.284.375 2.735-.308 1.225-1.857.854-4.366-.735-4.976-.825-.316-1.5-.139-1.5.393m-80 1.969c0 .55.45 1 1 1s1-.45 1-1-.45-1-1-1-1 .45-1 1m-13.49 1.016c.346.559 1.047.758 1.559.441 1.387-.857 1.129-1.457-.628-1.457-.857 0-1.276.457-.931 1.016m98.49-.016c0 .55.702 1 1.559 1s1.28-.45.94-1c-.34-.55-1.04-1-1.558-1s-.941.45-.941 1m-44.077 2.177c-.746 3.154-.461 4.489 1.283 6.002 1.978 1.715 2.15 1.718 3.393.064 1.075-1.432 1.076-1.922.006-2.743-.717-.55-1.348-1.45-1.401-2-.088-.897-3.094-2.11-3.281-1.323m5.593.798c-.808 1.307 1.493 2.416 2.638 1.271.64-.64.448-1.185-.555-1.57-.844-.324-1.782-.189-2.083.299m16.065.674c-.827 2.155-.375 2.469 1.159.803.682-.74.842-1.592.355-1.893-.487-.301-1.168.189-1.514 1.09m55.002-.783c-.431.697-.513 1.537-.183 1.867.895.895 1.87-.421 1.387-1.871-.338-1.016-.574-1.016-1.204.004m-119.554 1.095c-.81.512-1.085 1.292-.613 1.735.472.442 1.059.242 1.304-.446.246-.687.929-1.25 1.518-1.25.59 0 .275.88-.698 1.956-1.63 1.801-1.642 2.085-.155 3.572.888.888 1.615 2.279 1.615 3.09 0 1.211.429 1.153 2.395-.321 1.842-1.382 2.178-2.206 1.454-3.568-.518-.974-.71-2.145-.427-2.603.284-.459-.617-1.349-2-1.98-2.975-1.355-2.57-1.338-4.393-.185m70.97.539c0 .825.45 1.5 1 1.5s1-.675 1-1.5-.45-1.5-1-1.5-1 .675-1 1.5m-87.724 1.5c-.083 1.1.298 2 .846 2s.719-.45.379-1c-.34-.55-.115-1 .5-1s.84-.45.5-1c-1.004-1.624-2.063-1.148-2.225 1m30.476.981c-2.874 2.261-4.294 8.019-1.978 8.019 1.944 0 8.227-6.416 8.227-8.4 0-2.207-3.207-2.011-6.25.381m-4.75.078c0 .582.45.781 1 .441s1-.816 1-1.059-.45-.441-1-.441-1 .477-1 1.059m28.537.881c-.32.518.413 1.868 1.629 3 2.222 2.07 4.834 2.751 4.834 1.26 0-1.569-2.27-3.034-3.795-2.448-1.141.437-1.382.152-.91-1.078.674-1.757-.757-2.354-1.758-.734M594.838 676c0 1.506.522 2.046 1.75 1.81.962-.186 1.75-1 1.75-1.81s-.788-1.624-1.75-1.81c-1.228-.236-1.75.304-1.75 1.81m46.192 1.075c.197.591.684 1.041 1.083 1 .399-.041 1.4-.075 2.225-.075.825 0 1.5-.45 1.5-1s-1.163-1-2.583-1c-1.421 0-2.422.484-2.225 1.075m2.267 2.992c-.92 1.489.147 2.298 2.06 1.564.885-.339 1.328-1.07.985-1.624-.81-1.311-2.215-1.284-3.045.06m-24.46 1.492c0 .857.45 1.281 1 .941.55-.34 1-1.041 1-1.559s-.45-.941-1-.941-1 .702-1 1.559m-390.456 2.372c-.317.512-.118 1.213.44 1.559.56.345 1.017-.074 1.017-.931 0-1.757-.6-2.015-1.457-.628m319.687 6.638c-3.015 4.6-2.851 5.749.746 5.221 1.636-.24 3.155.047 3.375.637.27.73.813.683 1.69-.144 1.05-.989.98-1.337-.374-1.857-1.013-.389-1.667-1.751-1.667-3.474 0-4.123-1.235-4.249-3.77-.383m78.77-2.114c0 .521 4.918 5.545 5.429 5.545.186 0 .578-.918.87-2.041.434-1.654.17-1.926-1.382-1.433-1.333.423-1.917.131-1.917-.959 0-.862-.675-1.567-1.5-1.567s-1.5.205-1.5.455m-401.835 2.422c-1.014.643-.834.976.75 1.391 1.383.361 2.085.071 2.085-.862 0-1.595-.891-1.761-2.835-.529m19.547 2.369c-2.201 1.642-1.197 5.754 1.405 5.754 2.12 0 2.544-1.565.633-2.341-.942-.382-.882-.762.242-1.541 1.037-.72 1.173-1.353.446-2.08-.727-.727-1.557-.664-2.726.208m380.886-.51c-1.073 1.073-.63 2.264.843 2.264.793 0 1.69-.403 1.994-.895.636-1.03-1.936-2.271-2.837-1.369m-68.598 2.323c0 .582.45.781 1 .441s1-.816 1-1.059-.45-.441-1-.441-1 .477-1 1.059m20.5-.059c.34.55.816 1 1.059 1s.44-.45.44-1-.476-1-1.058-1c-.582 0-.781.45-.441 1m-326.805 3.711c-2.22.562-1.742 2.518.7 2.877.984.144 2.026.499 2.316.789.29.29 1.202-.147 2.027-.972.825-.825 1.334-1.648 1.13-1.828-.871-.776-4.511-1.286-6.173-.866m302.805.289c.34.55 1.293 1 2.118 1s1.222-.45.882-1c-.34-.55-1.293-1-2.118-1s-1.222.45-.882 1m59.455 2.45c-1.44 1.431-1.146 3.55.489 3.55.795 0 2.707-1.105 4.25-2.455l2.806-2.455-3.295.205c-1.813.113-3.725.633-4.25 1.155M244.338 704c-.34.55.084 1 .94 1 .858 0 1.56-.45 1.56-1s-.423-1-.941-1-1.22.45-1.56 1m349.379.904c.816.516 1.062 1.428.603 2.234-.6 1.054-.49 1.099.485.199 1.389-1.282.597-3.346-1.275-3.322-.783.01-.72.315.187.889M349.338 711c.34.55.816 1 1.059 1s.44-.45.44-1-.476-1-1.058-1c-.582 0-.781.45-.441 1m216.5 1.941c0 .518.483 1.24 1.073 1.604.672.415.297 1.208-1 2.116-1.14.799-2.073 1.932-2.073 2.518 0 .659.59.575 1.55-.221 1.31-1.087 1.639-.951 2.117.878.312 1.19.91 2.164 1.333 2.164 1.264 0 1.99-4.306.94-5.571-.536-.647-.694-1.908-.35-2.802.455-1.185.052-1.627-1.483-1.627-1.16 0-2.107.423-2.107.941m-236 6.059c-1.181.73-1.23 1.17-.242 2.158.966.966 1.509.975 2.442.042 1.622-1.622-.195-3.439-2.2-2.2m-35 3.059c0 .582.45.781 1 .441s1-.816 1-1.059-.45-.441-1-.441-1 .477-1 1.059m-10.5 3.941c-.34.55-.141 1 .44 1 .583 0 1.06-.45 1.06-1s-.198-1-.441-1-.72.45-1.06 1m154.5-.008c0 .619-.453.845-1.008.502-1.714-1.059-4.558.405-4.71 2.425-.194 2.571 2.593 3.505 4.719 1.581.94-.852 2.338-1.317 3.105-1.035 1.952.719 4.653-1.124 3.387-2.311-1.695-1.588-5.492-2.392-5.492-1.162m9.118-.128c-1.114.739-1.017 1.022.5 1.457 3.07.882 10.296.627 10.92-.384.319-.515-.515-.937-1.854-.937-1.34 0-3.728-.237-5.31-.527-1.58-.29-3.496-.114-4.256.391M489.838 728c0 .55.45 1 1 1s1-.45 1-1-.45-1-1-1-1 .45-1 1m4.278.122c-1.231 1.231-.625 3.878.888 3.878.524 0 .662-.47.307-1.044-.355-.574-.101-1.699.563-2.5 1.41-1.7-.104-1.988-1.758-.334m-47.945 1.351c0 .792.6 1.671 1.334 1.953.733.281 1.333.13 1.333-.335s-.6-1.344-1.333-1.953c-1.007-.835-1.334-.753-1.334.335m54.113-.386c-.37.598-.105 1.611.588 2.25.984.908 1.13.793.669-.522-.325-.927-.053-1.904.603-2.171.92-.375.92-.504.003-.565-.655-.043-1.493.41-1.863 1.008m-48.177 2.606c.973.254 2.323.237 3-.037.677-.274-.12-.481-1.77-.461-1.65.02-2.203.244-1.23.498m28.73 1.307c0 .55.45 1 1 1s1-.45 1-1-.45-1-1-1-1 .45-1 1m-7.374 1.798c-.84 1.358 1.109 3.553 3.295 3.715 2.619.192 2.715-2.103.146-3.478-2.326-1.244-2.798-1.277-3.441-.237m-12.077 1.613c1.06.777 2.32 1.17 2.798.875 1.047-.647-1.271-2.249-3.287-2.271-1.018-.011-.875.399.489 1.396m20.452-.411c0 .55.45 1 1 1s1-.45 1-1-.45-1-1-1-1 .45-1 1m-125.697.792c-.697.443-.86 1.307-.39 2.069.6.97.95.769 1.355-.776.299-1.147.474-2.078.388-2.07-.086.009-.695.358-1.353.777m144.697 1.149c0 1.132.45 2.059 1 2.059s1-.648 1-1.441-.45-1.719-1-2.059c-.55-.34-1 .309-1 1.441m-5.834 8.12c.184 1.255 1.009 2.464 1.834 2.687 1.233.332 1.255.233.122-.56-.758-.53-1.088-1.434-.734-2.007.355-.574.149-1.349-.456-1.723-.706-.437-.981.137-.766 1.603m.834 4.939c0 .55.45 1 1 1s1-.45 1-1-.45-1-1-1-1 .45-1 1"/>
  </svg>